<?xml version="1.0" encoding="UTF-8"?>
<svg id="Layer_1" data-name="Layer 1" xmlns="http://www.w3.org/2000/svg" viewBox="0 0 960 960">
  <defs>
    <style>
      .cls-1 {
        stroke: #ba9653;
      }

      .cls-1, .cls-2, .cls-3, .cls-4, .cls-5, .cls-6, .cls-7 {
        fill: none;
      }

      .cls-1, .cls-3, .cls-4, .cls-5, .cls-6, .cls-7 {
        stroke-width: .36px;
      }

      .cls-2 {
        stroke: #fff;
        stroke-width: 1.44px;
      }

      .cls-8, .cls-9, .cls-10, .cls-11, .cls-12, .cls-13, .cls-14 {
        stroke-width: 0px;
      }

      .cls-3 {
        stroke: #a63732;
      }

      .cls-9 {
        fill: #008248;
      }

      .cls-4 {
        stroke: #008248;
      }

      .cls-10 {
        fill: #fff;
      }

      .cls-11 {
        fill: #ba9653;
      }

      .cls-5, .cls-6 {
        stroke: #f9b282;
      }

      .cls-6 {
        stroke-linecap: round;
      }

      .cls-12 {
        fill: #008348;
      }

      .cls-13 {
        fill: #a63732;
      }

      .cls-14 {
        fill: #f9b282;
      }

      .cls-7 {
        stroke: #00a55c;
      }
    </style>
  </defs>
  <path class="cls-10" d="M330.32,873.17c7.36,8.53,21.7,21.31,32.16,25.96,8.26,4.17,17.53,5.91,26.74,5.04,7.75-.77,6.2,2.33,0,3.49-5.81.77-19.76.77-28.68-3.88-8.91-5.04-23.64-13.95-32.55-27.13-1.94-3.1,0-6.2,2.33-3.49Z"/>
  <path class="cls-10" d="M868.96,453.88c.28-198.84-149.51-365.85-347.21-387.13-2.07-2.11-4.42-3.93-6.98-5.43-31.39-20.15-56.96-5.04-75.18,3.49-1.51.85-3.06,1.63-4.65,2.33-33.33,3.73-66.03,11.81-97.27,24.03-3.82-5.4-8.1-10.45-12.79-15.11-18.65-18.77-44.07-29.25-70.53-29.06-54.99-.02-99.57,44.54-99.59,99.53,0,.02,0,.04,0,.06-.08,22.73,7.72,44.78,22.09,62.39-125.01,155.07-113.15,379.41,27.51,520.43,35.48,35.27,77.28,63.53,123.23,83.32-2.33,20.54.78,34.49,4.65,39.91-5.81,5.04-8.14,7.75-8.91,13.56-8.91,12.4,12.79,27.9,22.09,34.88,18.6,14.34,28.29,11.63,42.63,11.24,17.83-.77,34.49-21.7,44.18-35.26,19.38-2.71,22.86.39,23.64,2.71,8.81-1.34,17.4-3.82,25.58-7.36,25.96-10.85,18.99-24.41,16.28-26.74-.74-.84-1.39-1.74-1.94-2.71,60.92-2.32,120.41-19.05,173.61-48.83,2.11,2.22,3.93,4.69,5.43,7.36,5.81,8.53,8.91,35.65,10.08,49.99,1.16,13.95,3.49,23.64,10.46,45.73,6.98,22.48,9.69,6.2,9.69,0,.39-5.81,1.55-27.51.78-43.01-1.16-15.89-1.55-38.36,1.55-48.05,2.71-9.69-2.33-12.01-3.88-13.95-1.55-1.55,0-2.33-3.88-14.73-.32-.73-.45-1.53-.39-2.33,19.99-13.75,38.67-29.32,55.8-46.5,73.33-72.57,114.39-171.58,113.93-274.75Z"/>
  <path class="cls-2" d="M868.96,453.88c.28-198.84-149.51-365.85-347.21-387.13-2.07-2.11-4.42-3.93-6.98-5.43-31.39-20.15-56.96-5.04-75.18,3.49-1.51.85-3.06,1.63-4.65,2.33-33.33,3.73-66.03,11.81-97.27,24.03-3.82-5.4-8.1-10.45-12.79-15.11-18.65-18.77-44.07-29.25-70.53-29.06-54.99-.02-99.57,44.54-99.59,99.53,0,.02,0,.04,0,.06-.08,22.73,7.72,44.78,22.09,62.39-125.01,155.07-113.15,379.41,27.51,520.43,35.48,35.27,77.28,63.53,123.23,83.32-2.33,20.54.78,34.49,4.65,39.91-5.81,5.04-8.14,7.75-8.91,13.56-8.91,12.4,12.79,27.9,22.09,34.88,18.6,14.34,28.29,11.63,42.63,11.24,17.83-.77,34.49-21.7,44.18-35.26,19.38-2.71,22.86.39,23.64,2.71,8.81-1.34,17.4-3.82,25.58-7.36,25.96-10.85,18.99-24.41,16.28-26.74-.74-.84-1.39-1.74-1.94-2.71,60.92-2.32,120.41-19.05,173.61-48.83,2.11,2.22,3.93,4.69,5.43,7.36,5.81,8.53,8.91,35.65,10.08,49.99,1.16,13.95,3.49,23.64,10.46,45.73,6.98,22.48,9.69,6.2,9.69,0,.39-5.81,1.55-27.51.78-43.01-1.16-15.89-1.55-38.36,1.55-48.05,2.71-9.69-2.33-12.01-3.88-13.95-1.55-1.55,0-2.33-3.88-14.73-.32-.73-.45-1.53-.39-2.33,19.99-13.75,38.67-29.32,55.8-46.5,73.33-72.57,114.39-171.58,113.93-274.75Z"/>
  <path class="cls-8" d="M868.96,453.88c.28-198.84-149.51-365.85-347.21-387.13-2.07-2.11-4.42-3.93-6.98-5.43-31.39-20.15-56.96-5.04-75.18,3.49-1.51.85-3.06,1.63-4.65,2.33-33.33,3.73-66.03,11.81-97.27,24.03-3.82-5.4-8.1-10.45-12.79-15.11-18.65-18.77-44.07-29.25-70.53-29.06-54.99-.02-99.57,44.54-99.59,99.53,0,.02,0,.04,0,.06-.08,22.73,7.72,44.78,22.09,62.39-125.01,155.07-113.15,379.41,27.51,520.43,35.48,35.27,77.28,63.53,123.23,83.32-2.33,20.54.78,34.49,4.65,39.91-5.81,5.04-8.14,7.75-8.91,13.56-8.91,12.4,12.79,27.9,22.09,34.88,18.6,14.34,28.29,11.63,42.63,11.24,17.83-.77,34.49-21.7,44.18-35.26,19.38-2.71,22.86.39,23.64,2.71,8.81-1.34,17.4-3.82,25.58-7.36,25.96-10.85,18.99-24.41,16.28-26.74-.74-.84-1.39-1.74-1.94-2.71,60.92-2.32,120.41-19.05,173.61-48.83,2.11,2.22,3.93,4.69,5.43,7.36,5.81,8.53,8.91,35.65,10.08,49.99,1.16,13.95,3.49,23.64,10.46,45.73,6.98,22.48,9.69,6.2,9.69,0,.39-5.81,1.55-27.51.78-43.01-1.16-15.89-1.55-38.36,1.55-48.05,2.71-9.69-2.33-12.01-3.88-13.95-1.55-1.55,0-2.33-3.88-14.73-.32-.73-.45-1.53-.39-2.33,19.99-13.75,38.67-29.32,55.8-46.5,73.33-72.57,114.39-171.58,113.93-274.75Z"/>
  <path class="cls-9" d="M387.67,817.37c14.95-1.08,29.69-4.21,43.79-9.3,1.16.39,3.1,1.55,6.2,2.71,1.16-9.69-5.04-29.45-8.53-38.75-1.94-5.81-4.26-10.08-6.98-16.28-8.81-2.09-17.38-5.08-25.58-8.91,0,5.81,1.16,20.54,2.33,30.23-4.11.51-8.25.77-12.4.78,1.14,13.14,1.53,26.34,1.16,39.53Z"/>
  <path class="cls-4" d="M387.67,817.37c14.95-1.08,29.69-4.21,43.79-9.3,1.16.39,3.1,1.55,6.2,2.71,1.16-9.69-5.04-29.45-8.53-38.75-1.94-5.81-4.26-10.08-6.98-16.28-8.81-2.09-17.38-5.08-25.58-8.91,0,5.81,1.16,20.54,2.33,30.23-4.11.51-8.25.77-12.4.78,1.14,13.14,1.53,26.34,1.16,39.53Z"/>
  <path class="cls-9" d="M660.09,785.2c-2.71-2.71,3.49-11.24,6.2-26.74,2.71-15.89,2.71-41.85-8.53-56.96-3.92-4.34-7.06-9.32-9.3-14.73-35.47,25.85-76.46,43.1-119.74,50.38-.58.87-1.1,1.77-1.55,2.71-7.63,9.72-16.95,17.99-27.51,24.41-8.08,4.2-16.51,7.7-25.19,10.46-1.16,9.69-2.71,31-.39,38.36,1.16,2.71,12.01,9.3,15.89,16.28.78.78.78,1.55,1.16,2.33,59.58-1.5,117.93-17.32,170.12-46.11q-.77,0-1.16-.39Z"/>
  <path class="cls-4" d="M660.09,785.2c-2.71-2.71,3.49-11.24,6.2-26.74,2.71-15.89,2.71-41.85-8.53-56.96-3.92-4.34-7.06-9.32-9.3-14.73-35.47,25.85-76.46,43.1-119.74,50.38-.58.87-1.1,1.77-1.55,2.71-7.63,9.72-16.95,17.99-27.51,24.41-8.08,4.2-16.51,7.7-25.19,10.46-1.16,9.69-2.71,31-.39,38.36,1.16,2.71,12.01,9.3,15.89,16.28.78.78.78,1.55,1.16,2.33,59.58-1.5,117.93-17.32,170.12-46.11q-.77,0-1.16-.39Z"/>
  <path class="cls-9" d="M747.28,186.11c-58.41-58.61-134.58-96.22-216.62-106.95,6.59,12.79,7.36,27.51,8.14,37.2,11.63-5.04,20.93-7.75,25.58-15.89,5.04-7.75,11.63-6.2,15.89-.39,3.88,5.81,3.88,12.79-6.98,19.76-7.14,4.28-14.52,8.16-22.09,11.63-2.33,1.16,0,3.1,2.71,7.75,2.71,4.26,9.69,15.5,10.85,39.14v.78c44.69,13.61,85.31,38.11,118.19,71.3,86.73,86.45,109.13,218.38,55.8,328.61,2.33,1.16,5.81,10.08,6.98,21.7.82,5.7.42,11.51-1.16,17.05-1.94,3.88-16.28,25.19-23.25,31.78-3.68,2.64-8.77,1.96-11.63-1.55-2.71-3.88-3.1-1.94-5.43,0-1.94,2.33-8.91,12.79-10.85,15.5s-7.75,5.04-3.88,16.28c3.88,10.85,8.53,18.6,6.98,24.8s-2.33,7.75,5.81,14.73c8.53,6.97,7.75,15.11,4.26,20.93-3.7,6.75-6.2,14.09-7.36,21.7,170.24-121.27,209.94-357.59,88.67-527.84-12.18-17.1-25.77-33.16-40.61-48.01Z"/>
  <path class="cls-4" d="M747.28,186.11c-58.41-58.61-134.58-96.22-216.62-106.95,6.59,12.79,7.36,27.51,8.14,37.2,11.63-5.04,20.93-7.75,25.58-15.89,5.04-7.75,11.63-6.2,15.89-.39,3.88,5.81,3.88,12.79-6.98,19.76-7.14,4.28-14.52,8.16-22.09,11.63-2.33,1.16,0,3.1,2.71,7.75,2.71,4.26,9.69,15.5,10.85,39.14v.78c44.69,13.61,85.31,38.11,118.19,71.3,86.73,86.45,109.13,218.38,55.8,328.61,2.33,1.16,5.81,10.08,6.98,21.7.82,5.7.42,11.51-1.16,17.05-1.94,3.88-16.28,25.19-23.25,31.78-3.68,2.64-8.77,1.96-11.63-1.55-2.71-3.88-3.1-1.94-5.43,0-1.94,2.33-8.91,12.79-10.85,15.5s-7.75,5.04-3.88,16.28c3.88,10.85,8.53,18.6,6.98,24.8s-2.33,7.75,5.81,14.73c8.53,6.97,7.75,15.11,4.26,20.93-3.7,6.75-6.2,14.09-7.36,21.7,170.24-121.27,209.94-357.59,88.67-527.84-12.18-17.1-25.77-33.16-40.61-48.01Z"/>
  <path class="cls-9" d="M312.88,733.28c-1.16-10.46-2.71-28.68,4.65-41.85-14.81-9.94-28.58-21.37-41.08-34.1-112.19-112.3-112.11-294.29.19-406.48,1.98-1.97,3.98-3.92,6.01-5.83.41-1.16,1.07-2.22,1.94-3.1-9.57,2.77-19.48,4.2-29.45,4.26-26.33.11-51.6-10.36-70.14-29.06-120.72,150.42-109.04,367.56,27.13,504.16,33.71,33.65,73.4,60.72,117.03,79.83,2.02-8.94,4.61-17.74,7.75-26.35,3.49-8.91-1.55-29.06-10.08-39.53-4.56-1.19-9.24-1.84-13.95-1.94Z"/>
  <path class="cls-4" d="M312.88,733.28c-1.16-10.46-2.71-28.68,4.65-41.85-14.81-9.94-28.58-21.37-41.08-34.1-112.19-112.3-112.11-294.29.19-406.48,1.98-1.97,3.98-3.92,6.01-5.83.41-1.16,1.07-2.22,1.94-3.1-9.57,2.77-19.48,4.2-29.45,4.26-26.33.11-51.6-10.36-70.14-29.06-120.72,150.42-109.04,367.56,27.13,504.16,33.71,33.65,73.4,60.72,117.03,79.83,2.02-8.94,4.61-17.74,7.75-26.35,3.49-8.91-1.55-29.06-10.08-39.53-4.56-1.19-9.24-1.84-13.95-1.94Z"/>
  <path class="cls-9" d="M413.25,81.48c-23.89,3.9-47.28,10.4-69.75,19.38,7.43,14.09,11.29,29.79,11.24,45.73-.06,21.13-6.69,41.72-18.99,58.9,20.91-12.25,43.31-21.75,66.65-28.29,1.55-1.55,3.1-3.1,4.65-4.65-8.91-14.34-20.54-37.2-10.08-68.98,3.05-8.85,8.73-16.55,16.28-22.09Z"/>
  <path class="cls-4" d="M413.25,81.48c-23.89,3.9-47.28,10.4-69.75,19.38,7.43,14.09,11.29,29.79,11.24,45.73-.06,21.13-6.69,41.72-18.99,58.9,20.91-12.25,43.31-21.75,66.65-28.29,1.55-1.55,3.1-3.1,4.65-4.65-8.91-14.34-20.54-37.2-10.08-68.98,3.05-8.85,8.73-16.55,16.28-22.09Z"/>
  <path class="cls-10" d="M564.38,195.41c11.58,5.14,17.56,18.08,13.95,30.23-1.16,6.98-6.98,13.56-7.75,16.28-.78,4.65-10.08,12.01-13.18,18.21-2.71,6.2-3.49,11.24-2.71,13.56,6.49,5.41,13.82,9.73,21.7,12.79,4.65,1.55,4.26,2.71,2.33,5.81,3.49.39,5.04,2.33,8.14,6.2,3.49,3.88,12.4,1.55,17.44-1.16,5.43-2.71,12.4-3.88,17.83,2.71,7.37,9.09,13.26,19.29,17.44,30.23,2.4,7.76,5.51,15.29,9.3,22.48,1.16,1.94-4.26,34.88-5.81,48.44-1.55,13.18-2.71,18.99-3.1,20.93,0,2.33,8.53-7.36,8.91,3.88,0,9.3,4.65,38.36,9.3,60.06.92,5,2.21,9.92,3.88,14.73,3.49.39,6.59,7.75,8.91,18.6,1.94,11.24,6.2,18.21,6.98,23.64,0,5.43,1.55,6.2,3.49,7.36,1.55.78,1.16,3.49-4.26,9.69,1.51,1.19,2.93,2.49,4.26,3.88,2.06-1.95,4-4.02,5.81-6.2,0,0,16.66,6.59,20.15,7.75s8.14-7.75,18.6-2.71c3.76,2.11,6.75,5.37,8.53,9.3,17.46-37.09,26.46-77.59,26.35-118.58.3-122.56-79.15-231.06-196.08-267.77,0,4.26-.39,8.14-.39,9.69Z"/>
  <path class="cls-10" d="M651.57,668.56c-4.26-1.94-7.36,1.16-9.3-15.5-.84-5.34-3.43-10.24-7.36-13.95-2.87-3.93-3.46-9.08-1.55-13.56,1.92-6.67,2.84-13.6,2.71-20.54-.39-6.2.78-13.56,8.91-17.05-2.54-3.15-4.27-6.88-5.04-10.85-12.4-4.26-15.11-4.65-17.44-10.46-3.65-10.7-6.25-21.73-7.75-32.94-.78-3.88-1.16-7.36-1.55-10.85-3.88-7.36-12.79-24.03-19.38-36.43-2.33-4.65-5.04-8.91-6.2-11.63-6.2-10.46,0-24.41,2.71-32.55,3.1-8.14,5.43-15.11,2.71-23.64-1.52-4.29-2.68-8.7-3.49-13.18-.39-3.49-3.49-7.36-6.98,3.88s-10.46,28.29-14.34,45.73c-2.54,10.26-3.71,20.82-3.49,31.39.47,7.88,2.3,15.62,5.43,22.86,7.75,15.89,17.44,31,15.89,39.91-.36,3.78-1.41,7.45-3.1,10.85-1.55,17.44-8.91,51.15-12.79,60.84s-19.38,44.56-22.86,59.29c-3.88,17.04-9.06,33.75-15.5,49.99,44.24-8.4,85.83-27.27,121.29-55.03.78-2.71.78-5.04-1.55-6.59Z"/>
  <path class="cls-10" d="M316.76,274.07c3.63,4.61,8.27,8.32,13.56,10.85,14.73,7.75,17.44,13.18,17.44,25.96s2.71,39.53,6.59,43.79c2.56-2.25,4.78-4.86,6.59-7.75,3.88,7.75,12.4,22.48,25.96,31.39,1.16.39.39,3.88,2.71,4.65,4.65,1.16,33.71,5.81,34.49,11.63,6.2-6.2,15.89-20.93,17.44-26.35,5.56-10.8,12.32-20.94,20.15-30.23-.17-2.2-.04-4.42.39-6.59-2.33,1.94-5.43,6.59-10.08,8.53-5.04,2.33-21.7,9.69-33.71,15.5-4.26,1.94-11.63,4.65-14.73-17.44-3.1-22.09,0-33.71,1.94-38.75,2.33-5.04,6.2-9.69,13.56-7.36,7.75,2.33,19.76,6.59,22.86,6.59.39-2.33,2.71-6.98-5.43-7.75-5.81-.78-20.93-5.04-29.06-16.66-3.83-5.32-5.99-11.66-6.2-18.21-17.05,2.71-56.58,7.75-65.49,10.08-8.53,2.33-16.28,3.88-18.99-15.89-1.16-8.53-3.1-20.15,2.71-15.89,6.46-5.4,14.97-7.67,23.25-6.2,2.37.48,4.46,1.87,5.81,3.88.78,2.71-.78,7.75-1.94,12.01-2.71,8.14-7.75,13.95,8.53,10.08,17.44-3.88,39.14-6.98,44.56-8.14.78-5.81,5.81-15.11,11.63-21.7,3.48-3.97,5.89-8.78,6.98-13.95,0-2.33-1.94-2.71-4.65,0-3.49,2.71-13.56,8.91-22.48,6.59-3.88-1.16-8.53-7.75-10.46-11.63,3.58-6.74,8-12.99,13.18-18.6-32.28,10.26-62.36,26.42-88.74,47.66-.3,6.54.49,13.09,2.33,19.38,1.84,7.35,4.99,14.31,9.3,20.54Z"/>
  <path class="cls-10" d="M337.68,684.84c12.4-4.65,22.09-4.65,31.39,8.53,2.71,3.49,5.04,13.95,28.29,4.65-12.4-14.73-19.76-32.16-26.35-55.8-10.85-36.81-34.88-79.05-25.96-98.04-5.04-5.04-11.24-23.64-17.44-21.31-4.26,1.16-10.08,1.16-5.43-12.79,3.09-8.34,7.4-16.18,12.79-23.25,8.14-11.24,21.31-24.8,42.24-41.08,1.55-1.55,2.33-2.71,1.16-3.88-1.89-2.25-4.11-4.21-6.59-5.81-1.95-1.17-4.46-.67-5.81,1.16-1.94,1.55-5.04,3.88-6.59,5.04-1.94,1.16-16.28-12.79-23.64-23.25-4.64-6.3-10.76-11.36-17.83-14.73,2.71-3.49,9.69-10.46,7.36-9.69-4.65,1.55-12.4,2.33-20.54-6.2-10.08-10.46-6.2-15.89-8.53-17.44-1.94-1.16-12.79,1.16-20.93-11.63-8.14-12.4-11.24-18.21-5.04-27.13,3.49-4.65,4.65-6.59,3.88-12.4-1.16-5.81,0-9.3,7.36-16.28,7.75-7.36,12.01-13.95,15.5-13.18,2.33.39-5.43-9.3-9.69-16.28-1.19-1.51-2.11-3.21-2.71-5.04-1.78-4.37-3.08-8.91-3.88-13.56-109.58,109.63-109.53,287.34.1,396.92.09.09.19.19.28.28,12.49,12.05,25.83,23.18,39.91,33.33,3.72-4.88,10.7-5.83,15.58-2.1.38.29.74.6,1.08.94Z"/>
  <path class="cls-13" d="M178.03,91.55c24.41,6.2,43.01,26.35,51.15,37.2,2.33,3.1,4.26,2.71,5.04.39,3.38-9.73,5.21-19.93,5.43-30.23,0-25.19,3.49-35.26,9.69-46.89-28.53,1.7-54.75,16.23-71.3,39.53Z"/>
  <path class="cls-3" d="M178.03,91.55c24.41,6.2,43.01,26.35,51.15,37.2,2.33,3.1,4.26,2.71,5.04.39,3.38-9.73,5.21-19.93,5.43-30.23,0-25.19,3.49-35.26,9.69-46.89-28.53,1.7-54.75,16.23-71.3,39.53Z"/>
  <path class="cls-13" d="M162.91,169.06c46.5,4.26,60.84-21.7,63.94-25.58,2.71-3.88-.39-6.2-2.33-8.53-7.75-11.24-25.96-31-50.38-37.2-9.14,14.64-13.97,31.56-13.95,48.83.11,7.57,1.02,15.1,2.71,22.48Z"/>
  <path class="cls-3" d="M162.91,169.06c46.5,4.26,60.84-21.7,63.94-25.58,2.71-3.88-.39-6.2-2.33-8.53-7.75-11.24-25.96-31-50.38-37.2-9.14,14.64-13.97,31.56-13.95,48.83.11,7.57,1.02,15.1,2.71,22.48Z"/>
  <path class="cls-13" d="M346.98,167.12c-19.76-8.14-43.01-.78-59.29,13.95-16.66,14.34-25.19,25.19-31,59.68h-1.94c-23.56.07-46.27-8.79-63.55-24.8,28.29-6.98,51.93-20.15,79.05-45.34,26.74-25.19,39.91-54.64,43.4-68.59,3.88-13.95-1.16-5.81-3.88.39-11.2,23.37-26.71,44.4-45.73,62-27.13,25.58-48.44,37.98-77.12,47.66-9.49-9.99-16.76-21.87-21.31-34.88,9.69.78,39.91-2.71,55.03-15.11,20.15-16.66,22.48-36.04,25.19-63.55s6.59-35.65,13.18-46.5c50.34,2.41,90,43.77,90.29,94.17.04,7.04-.74,14.06-2.33,20.93Z"/>
  <path class="cls-3" d="M346.98,167.12c-19.76-8.14-43.01-.78-59.29,13.95-16.66,14.34-25.19,25.19-31,59.68h-1.94c-23.56.07-46.27-8.79-63.55-24.8,28.29-6.98,51.93-20.15,79.05-45.34,26.74-25.19,39.91-54.64,43.4-68.59,3.88-13.95-1.16-5.81-3.88.39-11.2,23.37-26.71,44.4-45.73,62-27.13,25.58-48.44,37.98-77.12,47.66-9.49-9.99-16.76-21.87-21.31-34.88,9.69.78,39.91-2.71,55.03-15.11,20.15-16.66,22.48-36.04,25.19-63.55s6.59-35.65,13.18-46.5c50.34,2.41,90,43.77,90.29,94.17.04,7.04-.74,14.06-2.33,20.93Z"/>
  <path class="cls-13" d="M344.27,176.42c-4.65-6.2-20.54-9.3-46.11,6.59-2.71,1.55-4.26,2.71-1.16,5.43,8.05,8.67,14.6,18.63,19.38,29.45,12.79-11.12,22.42-25.42,27.9-41.46Z"/>
  <path class="cls-3" d="M344.27,176.42c-4.65-6.2-20.54-9.3-46.11,6.59-2.71,1.55-4.26,2.71-1.16,5.43,8.05,8.67,14.6,18.63,19.38,29.45,12.79-11.12,22.42-25.42,27.9-41.46Z"/>
  <path class="cls-13" d="M308.62,224.08c-5.43-13.18-9.69-22.86-15.11-29.45-2.33-3.88-3.1-5.04-8.14-.78-14.34,12.4-19.76,31.39-22.86,46.5,16.57-1.1,32.53-6.73,46.11-16.28Z"/>
  <path class="cls-3" d="M308.62,224.08c-5.43-13.18-9.69-22.86-15.11-29.45-2.33-3.88-3.1-5.04-8.14-.78-14.34,12.4-19.76,31.39-22.86,46.5,16.57-1.1,32.53-6.73,46.11-16.28Z"/>
  <path class="cls-11" d="M424.87,815.82c1.94-.78,4.26-1.94,5.81-1.16,1.16,1.16,8.14,6.2,12.79,10.08,4.65,3.88,5.81,5.04,2.33,7.36-3.49,1.94-6.98,3.88-6.2,2.33.92-2.36.47-5.04-1.16-6.98-3.44-3.18-7.06-6.16-10.85-8.91-1.55-1.55-2.71-2.71-2.71-2.71Z"/>
  <path class="cls-1" d="M424.87,815.82c1.94-.78,4.26-1.94,5.81-1.16,1.16,1.16,8.14,6.2,12.79,10.08,4.65,3.88,5.81,5.04,2.33,7.36-3.49,1.94-6.98,3.88-6.2,2.33.92-2.36.47-5.04-1.16-6.98-3.44-3.18-7.06-6.16-10.85-8.91-1.55-1.55-2.71-2.71-2.71-2.71Z"/>
  <path class="cls-11" d="M407.43,820.85c-1.5,1.42-1.56,3.79-.14,5.29.04.05.09.09.14.14,1.94,1.55,12.01,10.08,13.56,11.63,1.85,1.78,4.47,2.51,6.98,1.94,2.71-.78-3.1,3.1-5.43,3.88-2.62.67-5.41-.06-7.36-1.94-2.33-1.94-15.89-14.73-18.6-17.44s.78-2.71,3.1-3.1c2.59.05,5.18-.08,7.75-.39Z"/>
  <path class="cls-1" d="M407.43,820.85c-1.5,1.42-1.56,3.79-.14,5.29.04.05.09.09.14.14,1.94,1.55,12.01,10.08,13.56,11.63,1.85,1.78,4.47,2.51,6.98,1.94,2.71-.78-3.1,3.1-5.43,3.88-2.62.67-5.41-.06-7.36-1.94-2.33-1.94-15.89-14.73-18.6-17.44s.78-2.71,3.1-3.1c2.59.05,5.18-.08,7.75-.39Z"/>
  <path class="cls-11" d="M390.77,743.74c1.16,2.71,1.16,5.43-2.71,4.65-4.26-.39-22.09-2.33-27.13-2.33-1.55,0-.78-2.71-2.71-1.55s-1.16,3.88-1.16,6.98v6.98c0,3.1,1.94,7.75,10.08,8.14s15.5-.39,18.21-2.33c2.33-1.55-.39-4.26-2.71-4.26-1.94,0-15.5,1.16-18.6,0-2.71-.77-4.65-4.26-2.71-5.81,2.71-1.55,7.36.39,11.63.39,4.65,0,9.69-1.16,11.24-.39,1.16.78,2.71.39,2.71,6.2,0,1.16,3.1,1.55,4.26,1.55s1.94,2.33,1.55,5.43c-.39,2.71.39,3.49-5.43,3.49h-32.16c-1.55,0-1.55-1.16-1.55-3.88-.39-2.71-1.16-21.7-1.55-23.25s3.49-1.55,6.98-.78c3.97.68,7.99,1.06,12.01,1.16,5.04.39,12.79,1.16,12.79,1.16,0,0,3.88.39,4.26-.78,1.16-1.16,2.33-1.55,2.71-.77Z"/>
  <path class="cls-1" d="M390.77,743.74c1.16,2.71,1.16,5.43-2.71,4.65-4.26-.39-22.09-2.33-27.13-2.33-1.55,0-.78-2.71-2.71-1.55s-1.16,3.88-1.16,6.98v6.98c0,3.1,1.94,7.75,10.08,8.14s15.5-.39,18.21-2.33c2.33-1.55-.39-4.26-2.71-4.26-1.94,0-15.5,1.16-18.6,0-2.71-.77-4.65-4.26-2.71-5.81,2.71-1.55,7.36.39,11.63.39,4.65,0,9.69-1.16,11.24-.39,1.16.78,2.71.39,2.71,6.2,0,1.16,3.1,1.55,4.26,1.55s1.94,2.33,1.55,5.43c-.39,2.71.39,3.49-5.43,3.49h-32.16c-1.55,0-1.55-1.16-1.55-3.88-.39-2.71-1.16-21.7-1.55-23.25s3.49-1.55,6.98-.78c3.97.68,7.99,1.06,12.01,1.16,5.04.39,12.79,1.16,12.79,1.16,0,0,3.88.39,4.26-.78,1.16-1.16,2.33-1.55,2.71-.77Z"/>
  <path class="cls-14" d="M282.66,329.49c-3.88-1.16-6.98,3.49-8.53,7.36-1.94,3.49-3.88,7.36,1.55,15.5,5.81,8.14,9.3,13.18,19.38,12.4,4.18-.57,7.95-2.81,10.46-6.2,1.55-1.94,1.55,1.55-.39,5.43-2.33,3.49-4.26,12.01,0,17.44,4.65,5.81,13.95,10.46,26.35,3.49,8.23-4.71,15.05-11.53,19.76-19.76,1.94-3.88,1.94-5.81,0-8.53-2.33-2.33-9.3-13.56-10.46-36.04-1.16-13.56,1.16-22.48-6.98-27.13-8.53-5.04-27.9-16.28-30.23-38.75-.78-8.53-.39-21.31-8.53-14.34-5.68,3.84-9.14,10.2-9.3,17.05-1.16,5.04,3.49,12.01,6.98,16.66,3.49,5.04,7.75,15.5,11.24,18.21,3.1,2.71,5.04,5.04,8.14,5.04,2.71.39,13.56.39,16.28,1.16,2.71,1.16,3.88,4.26-2.33,4.26-7.15.26-14.27,1.04-21.31,2.33-4.65.78-8.91,1.16-11.24,10.08-1.94,8.91-5.04,19.76-5.04,22.86-.39,3.1-2.33,5.04-2.33,6.98,0,1.55,3.49,10.46,11.63,1.55,5.69-6.15,10.04-13.4,12.79-21.31,1.55-4.26,3.49-3.88,1.94,2.71s-1.94,23.25,1.16,28.68c3.1,6.2,10.08,12.4,18.6,8.53,2.16-1.52,4.73-2.33,7.36-2.33,2.33.39-.39,4.65-2.71,6.2-1.94,1.94-8.91,9.69-21.31-1.16-4.24-4.52-7.06-10.17-8.14-16.28-.08-1.48-1.36-2.62-2.84-2.53-.92.05-1.75.57-2.2,1.37-1.55,1.94-9.69,9.69-15.11,3.88-5.81-5.43-8.14-8.53-5.04-19.76.78-2.33,1.94-4.26.39-5.04Z"/>
  <path class="cls-6" d="M282.66,329.49c-3.88-1.16-6.98,3.49-8.53,7.36-1.94,3.49-3.88,7.36,1.55,15.5,5.81,8.14,9.3,13.18,19.38,12.4,4.18-.57,7.95-2.81,10.46-6.2,1.55-1.94,1.55,1.55-.39,5.43-2.33,3.49-4.26,12.01,0,17.44,4.65,5.81,13.95,10.46,26.35,3.49,8.23-4.71,15.05-11.53,19.76-19.76,1.94-3.88,1.94-5.81,0-8.53-2.33-2.33-9.3-13.56-10.46-36.04-1.16-13.56,1.16-22.48-6.98-27.13-8.53-5.04-27.9-16.28-30.23-38.75-.78-8.53-.39-21.31-8.53-14.34-5.68,3.84-9.14,10.2-9.3,17.05-1.16,5.04,3.49,12.01,6.98,16.66,3.49,5.04,7.75,15.5,11.24,18.21,3.1,2.71,5.04,5.04,8.14,5.04,2.71.39,13.56.39,16.28,1.16,2.71,1.16,3.88,4.26-2.33,4.26-7.15.26-14.27,1.04-21.31,2.33-4.65.78-8.91,1.16-11.24,10.08-1.94,8.91-5.04,19.76-5.04,22.86-.39,3.1-2.33,5.04-2.33,6.98,0,1.55,3.49,10.46,11.63,1.55,5.69-6.15,10.04-13.4,12.79-21.31,1.55-4.26,3.49-3.88,1.94,2.71s-1.94,23.25,1.16,28.68c3.1,6.2,10.08,12.4,18.6,8.53,2.16-1.52,4.73-2.33,7.36-2.33,2.33.39-.39,4.65-2.71,6.2-1.94,1.94-8.91,9.69-21.31-1.16-4.24-4.52-7.06-10.17-8.14-16.28-.08-1.48-1.36-2.62-2.84-2.53-.92.05-1.75.57-2.2,1.37-1.55,1.94-9.69,9.69-15.11,3.88-5.81-5.43-8.14-8.53-5.04-19.76.78-2.33,1.94-4.26.39-5.04Z"/>
  <path class="cls-14" d="M288.86,312.82c-1.16,3.88-2.33,8.91-3.1,10.85-.39,1.55-3.1,5.81-5.81.39-2.51-4.11-1.87-9.4,1.55-12.79,1.16-1.16,3.1-3.49,4.26-2.33s3.49,3.1,3.1,3.88Z"/>
  <path class="cls-6" d="M288.86,312.82c-1.16,3.88-2.33,8.91-3.1,10.85-.39,1.55-3.1,5.81-5.81.39-2.51-4.11-1.87-9.4,1.55-12.79,1.16-1.16,3.1-3.49,4.26-2.33s3.49,3.1,3.1,3.88Z"/>
  <path class="cls-14" d="M302.42,298.87c-2.33,1.16-7.75,1.16-9.69,5.43-1.16,2.71-6.2-.39-3.49-3.88,2.33-3.1,3.88-2.71,5.81-3.88,1.16-.78,1.94-3.49,5.04-1.94,2.71,1.55,3.1,3.87,2.33,4.26Z"/>
  <path class="cls-6" d="M302.42,298.87c-2.33,1.16-7.75,1.16-9.69,5.43-1.16,2.71-6.2-.39-3.49-3.88,2.33-3.1,3.88-2.71,5.81-3.88,1.16-.78,1.94-3.49,5.04-1.94,2.71,1.55,3.1,3.87,2.33,4.26Z"/>
  <path class="cls-14" d="M500.44,150.07c-8.53.78-16.28,5.81-24.03,11.24-7.75,5.43-36.04,29.45-42.63,34.1,6.98,3.49,8.91,10.85,6.59,22.48-.78,2.71,0,3.88,1.55,1.94s10.08-10.85,10.08-18.21c-.24-4.45-1.71-8.75-4.26-12.4-.39-1.16,2.33-4.65,5.81,2.71,3.49,7.75,2.33,18.21-7.36,29.84-10.08,11.63-17.83,11.63-22.09,13.56-4.26,2.33-8.53,5.43-4.65,11.63,3.88,6.59,11.24,3.88,14.34,1.94,3.1-2.33,7.36-4.65,17.05-3.88,9.69,1.16,12.79-5.04,6.2-11.63-1.94-1.94-7.36-6.98-.78-6.98,3.88,0,8.53,8.91,11.24,11.24s8.91,3.49,17.05,3.88,20.93,3.49,20.93,11.24c0,5.04-2.71,6.59-6.2,2.71-1.55-1.55-3.49.78-4.65,2.33-5.43,5.04-18.21,18.99-27.9,21.31-9.3,2.33-12.79-.39-25.19-6.98s-23.64-13.56-27.13-15.5c-3.1-1.94-10.08-6.98-6.98,2.71,3.49,9.69,11.63,19.76,27.51,25.19,16.28,5.04,18.99,6.98,22.48,8.91,3.49,1.55,1.55,3.49-3.49,2.71-3.88-.39-8.53-3.88-5.04,3.88,3.49,8.14,8.91,17.05,25.58,14.73,16.66-1.94,17.05-5.43,27.51-22.48,1.55-3.1,3.49-1.16,2.33,6.98,5.63-2.65,11.46-4.85,17.44-6.59,11.18-2.65,20.58-10.19,25.58-20.54,4.26-7.75,6.59-10.46,5.81-18.6,0-3.1,4.26-9.3,8.91-13.56,4.65-3.88,17.05-20.15,10.46-31.39-6.2-11.24-17.05-5.81-22.09,2.71s-10.85,17.44-11.24,32.16c-3.24-1.25-6.92-.13-8.91,2.71-.78,1.55-13.95,0-18.6,1.16s-6.2-1.55-1.16-7.75c4.65-6.2,21.7-29.45,20.93-46.11-.29-3.4.11-6.83,1.16-10.08.78-5.04,1.16-5.04-4.65-8.53-4.26-2.33-4.26-8.53-5.04-13.18-.78-5.04-1.55-5.04-7.36-3.88-4.65,1.94-11.63-2.32-15.11-7.75Z"/>
  <path class="cls-5" d="M500.44,150.07c-8.53.78-16.28,5.81-24.03,11.24-7.75,5.43-36.04,29.45-42.63,34.1,6.98,3.49,8.91,10.85,6.59,22.48-.78,2.71,0,3.88,1.55,1.94s10.08-10.85,10.08-18.21c-.24-4.45-1.71-8.75-4.26-12.4-.39-1.16,2.33-4.65,5.81,2.71,3.49,7.75,2.33,18.21-7.36,29.84-10.08,11.63-17.83,11.63-22.09,13.56-4.26,2.33-8.53,5.43-4.65,11.63,3.88,6.59,11.24,3.88,14.34,1.94,3.1-2.33,7.36-4.65,17.05-3.88,9.69,1.16,12.79-5.04,6.2-11.63-1.94-1.94-7.36-6.98-.78-6.98,3.88,0,8.53,8.91,11.24,11.24s8.91,3.49,17.05,3.88,20.93,3.49,20.93,11.24c0,5.04-2.71,6.59-6.2,2.71-1.55-1.55-3.49.78-4.65,2.33-5.43,5.04-18.21,18.99-27.9,21.31-9.3,2.33-12.79-.39-25.19-6.98s-23.64-13.56-27.13-15.5c-3.1-1.94-10.08-6.98-6.98,2.71,3.49,9.69,11.63,19.76,27.51,25.19,16.28,5.04,18.99,6.98,22.48,8.91,3.49,1.55,1.55,3.49-3.49,2.71-3.88-.39-8.53-3.88-5.04,3.88,3.49,8.14,8.91,17.05,25.58,14.73,16.66-1.94,17.05-5.43,27.51-22.48,1.55-3.1,3.49-1.16,2.33,6.98,5.63-2.65,11.46-4.85,17.44-6.59,11.18-2.65,20.58-10.19,25.58-20.54,4.26-7.75,6.59-10.46,5.81-18.6,0-3.1,4.26-9.3,8.91-13.56,4.65-3.88,17.05-20.15,10.46-31.39-6.2-11.24-17.05-5.81-22.09,2.71s-10.85,17.44-11.24,32.16c-3.24-1.25-6.92-.13-8.91,2.71-.78,1.55-13.95,0-18.6,1.16s-6.2-1.55-1.16-7.75c4.65-6.2,21.7-29.45,20.93-46.11-.29-3.4.11-6.83,1.16-10.08.78-5.04,1.16-5.04-4.65-8.53-4.26-2.33-4.26-8.53-5.04-13.18-.78-5.04-1.55-5.04-7.36-3.88-4.65,1.94-11.63-2.32-15.11-7.75Z"/>
  <path class="cls-14" d="M465.56,244.23c-1.94,3.88-6.59,7.36-17.05,5.81-5.04-.39-10.08-.39-11.24,3.49-.39,3.1-2.71,2.71-6.2,2.71-3.49-.39-7.36-.78-7.36.39-.39,1.16,14.73,10.08,19.76,12.4,4.65,1.94,12.01,7.75,18.21,6.98,7.75-.78,14.34-4.65,25.96-17.05,5.04-5.04,8.53-7.75,4.26-9.69-3.32-1.33-6.9-1.86-10.46-1.55-3.88,0-12.79-.78-15.89-3.49Z"/>
  <path class="cls-5" d="M465.56,244.23c-1.94,3.88-6.59,7.36-17.05,5.81-5.04-.39-10.08-.39-11.24,3.49-.39,3.1-2.71,2.71-6.2,2.71-3.49-.39-7.36-.78-7.36.39-.39,1.16,14.73,10.08,19.76,12.4,4.65,1.94,12.01,7.75,18.21,6.98,7.75-.78,14.34-4.65,25.96-17.05,5.04-5.04,8.53-7.75,4.26-9.69-3.32-1.33-6.9-1.86-10.46-1.55-3.88,0-12.79-.78-15.89-3.49Z"/>
  <path class="cls-14" d="M409.37,244.23c-4.26,0-4.65-3.1-1.94-7.75,2.33-4.21,5.35-8.01,8.91-11.24.69,2.17,2.05,4.07,3.88,5.43-3.69,2.83-5.6,7.4-5.04,12.01l-5.81,1.55Z"/>
  <path class="cls-5" d="M409.37,244.23c-4.26,0-4.65-3.1-1.94-7.75,2.33-4.21,5.35-8.01,8.91-11.24.69,2.17,2.05,4.07,3.88,5.43-3.69,2.83-5.6,7.4-5.04,12.01l-5.81,1.55Z"/>
  <path class="cls-8" d="M476.8,199.67c.78-3.88.39-7.75-6.2-2.33-5.81-4.26-10.85-9.3-12.4-10.46-1.44-.53-2.18-2.13-1.65-3.57.23-.62.68-1.15,1.26-1.47,1.94-2.33,5.81,1.55,5.04-4.65-.39-2.33,4.65-.78,5.81-1.55,1.16-.39-.78-3.49,5.04-2.33,1.55.78.78-2.71,4.65-2.33,3.49.39,5.04,1.94,5.81-.78.78-3.1,1.94-4.65,6.2-1.94,3.1,1.94,4.26.78,4.65-.78,0-1.16,3.1-.39,5.81,1.16,6.23,3.29,11.76,7.77,16.28,13.18,1.94,2.33,2.71,4.26,1.55,4.65s-2.71,0-2.71,2.33c-.39,2.71-1.55,4.65-3.1,1.94s-1.55.39-2.71-2.71c-.78-2.71-2.33,1.16-3.1-.78-.78-2.33-1.94.39-2.71-1.55-.78-1.16-3.49,1.16-4.26-.39-1.16-1.55-3.1,1.55-4.26-.39-1.55-1.94-1.55,2.33-3.88,1.16-2.71-.78-1.55,2.33-3.88,1.55-2.71-1.16-1.94,2.71-3.88,2.33-2.33-.39-2.33.39-2.71,2.71-.39,2.71-1.55,12.79-1.55,14.73,0,2.33,5.04,1.94,12.79.78,9.92-1.31,19.37-5.04,27.51-10.85,2.71-1.94,5.04-1.94,5.43-1.55.39.78-.78,3.49-2.71,5.04-5.16,4.85-11.63,8.08-18.6,9.3-11.63,1.94-21.31,3.88-23.25,3.49s.78,3.1,4.26,2.33c1.94-.78,5.81,6.59,12.01,6.59,5.04,0,12.79-5.81,14.73-7.36,2.33-1.55,9.69-5.04,4.65,0-5.04,5.43-10.46,10.85-15.89,11.24-6.87-.12-13.57-2.13-19.38-5.81-5.81-3.88-7.75-5.81-6.98-12.01,1.06-2.89,1.84-5.87,2.32-8.91Z"/>
  <path class="cls-5" d="M476.8,199.67c.78-3.88.39-7.75-6.2-2.33-5.81-4.26-10.85-9.3-12.4-10.46-1.44-.53-2.18-2.13-1.65-3.57.23-.62.68-1.15,1.26-1.47,1.94-2.33,5.81,1.55,5.04-4.65-.39-2.33,4.65-.78,5.81-1.55,1.16-.39-.78-3.49,5.04-2.33,1.55.78.78-2.71,4.65-2.33,3.49.39,5.04,1.94,5.81-.78.78-3.1,1.94-4.65,6.2-1.94,3.1,1.94,4.26.78,4.65-.78,0-1.16,3.1-.39,5.81,1.16,6.23,3.29,11.76,7.77,16.28,13.18,1.94,2.33,2.71,4.26,1.55,4.65s-2.71,0-2.71,2.33c-.39,2.71-1.55,4.65-3.1,1.94s-1.55.39-2.71-2.71c-.78-2.71-2.33,1.16-3.1-.78-.78-2.33-1.94.39-2.71-1.55-.78-1.16-3.49,1.16-4.26-.39-1.16-1.55-3.1,1.55-4.26-.39-1.55-1.94-1.55,2.33-3.88,1.16-2.71-.78-1.55,2.33-3.88,1.55-2.71-1.16-1.94,2.71-3.88,2.33-2.33-.39-2.33.39-2.71,2.71-.39,2.71-1.55,12.79-1.55,14.73,0,2.33,5.04,1.94,12.79.78,9.92-1.31,19.37-5.04,27.51-10.85,2.71-1.94,5.04-1.94,5.43-1.55.39.78-.78,3.49-2.71,5.04-5.16,4.85-11.63,8.08-18.6,9.3-11.63,1.94-21.31,3.88-23.25,3.49s.78,3.1,4.26,2.33c1.94-.78,5.81,6.59,12.01,6.59,5.04,0,12.79-5.81,14.73-7.36,2.33-1.55,9.69-5.04,4.65,0-5.04,5.43-10.46,10.85-15.89,11.24-6.87-.12-13.57-2.13-19.38-5.81-5.81-3.88-7.75-5.81-6.98-12.01,1.06-2.89,1.84-5.87,2.32-8.91Z"/>
  <path class="cls-8" d="M564.38,219.05c-3.49,2.33-5.43,3.49-5.81,7.36,0,4.26-1.16,11.63-2.71,12.01-1.94.78-1.55-3.88-2.33-2.33-.78,2.33-3.49,1.16-4.26-.78,0-.78-7.75-.78-1.94-9.3,5.81-8.14,9.69-12.01,13.56-13.95s10.46,1.94,3.49,6.98Z"/>
  <path class="cls-5" d="M564.38,219.05c-3.49,2.33-5.43,3.49-5.81,7.36,0,4.26-1.16,11.63-2.71,12.01-1.94.78-1.55-3.88-2.33-2.33-.78,2.33-3.49,1.16-4.26-.78,0-.78-7.75-.78-1.94-9.3,5.81-8.14,9.69-12.01,13.56-13.95s10.46,1.94,3.49,6.98Z"/>
  <path class="cls-14" d="M711.63,576.33c-1.55-3.49,1.16-9.3,8.53-5.04,7.36,3.88,13.18,7.75,7.75,24.41-5.43,16.28-9.3,25.96-11.24,32.94-2.33,6.98-10.46,15.89-7.75,3.88,2.71-11.63,4.26-25.96,3.1-32.94-2.33-13.56,1.94-12.4.78-18.6-.39-1.94-.78-3.1-1.16-4.65Z"/>
  <path class="cls-6" d="M711.63,576.33c-1.55-3.49,1.16-9.3,8.53-5.04,7.36,3.88,13.18,7.75,7.75,24.41-5.43,16.28-9.3,25.96-11.24,32.94-2.33,6.98-10.46,15.89-7.75,3.88,2.71-11.63,4.26-25.96,3.1-32.94-2.33-13.56,1.94-12.4.78-18.6-.39-1.94-.78-3.1-1.16-4.65Z"/>
  <path class="cls-14" d="M739.92,590.67c2.33,6.59,4.65,21.31,1.16,27.51-3.88,5.81-14.73,22.48-18.99,26.74s-7.36,2.33-4.65-1.94c2.33-4.65,6.2-10.85,6.2-12.79,0-2.33-.39-4.65,3.49-11.24,3.49-6.98,9.69-30.23,10.08-32.16.78-1.55,2.33,2.33,2.71,3.88Z"/>
  <path class="cls-6" d="M739.92,590.67c2.33,6.59,4.65,21.31,1.16,27.51-3.88,5.81-14.73,22.48-18.99,26.74s-7.36,2.33-4.65-1.94c2.33-4.65,6.2-10.85,6.2-12.79,0-2.33-.39-4.65,3.49-11.24,3.49-6.98,9.69-30.23,10.08-32.16.78-1.55,2.33,2.33,2.71,3.88Z"/>
  <path class="cls-14" d="M662.42,646.47c-1.55-5.43-2.71-13.18-5.81-17.83,2.71-6.59,10.46-24.41,24.03-29.84,1.16-.39,2.33-1.94,1.55-3.1-.39-1.16,1.55-2.33,2.71,1.94,1.48,5.35,2.64,10.79,3.49,16.28.14,2.89-.26,5.78-1.16,8.53-.78,3.49-2.33,11.63-1.16,15.89.78,4.26,2.33,7.36,10.85,5.43,4.26-.78,3.88-2.33,5.04-5.81s4.65-13.95,5.81-19.76c.94-7.74.68-15.59-.78-23.25-1.16-3.49.39-15.5-.78-17.83-.78-2.71-1.16-6.2-8.91-8.53-7.36-2.71-9.69-3.1-14.73,1.94s-6.98,7.36-9.3,9.69c-2.33,2.71-8.14.39-3.1-4.65,5.04-4.65,9.69-9.69,11.24-10.85l-1.55-3.88h-2.71c-7.17,7.07-16.16,12.03-25.96,14.34-2.71.39-7.75,1.16-4.26,5.81,1.16,1.16,1.16,4.65,3.49,3.49s5.43-6.59,8.53-4.26c2.71,2.71-.39,8.53-4.26,10.85-3.49,2.71-7.36,5.43-10.08,7.36-2.71,1.16-4.26,2.71-3.88,7.75.68,6.68-.11,13.42-2.33,19.76-2.33,6.59-1.16,8.53,1.55,13.18,2.33,4.26,6.2,8.14,7.36,15.5,1.16,7.36,1.55,8.91,6.59,8.53,3.69-.23,6.96-2.46,8.53-5.81v-10.85Z"/>
  <path class="cls-6" d="M662.42,646.47c-1.55-5.43-2.71-13.18-5.81-17.83,2.71-6.59,10.46-24.41,24.03-29.84,1.16-.39,2.33-1.94,1.55-3.1-.39-1.16,1.55-2.33,2.71,1.94,1.48,5.35,2.64,10.79,3.49,16.28.14,2.89-.26,5.78-1.16,8.53-.78,3.49-2.33,11.63-1.16,15.89.78,4.26,2.33,7.36,10.85,5.43,4.26-.78,3.88-2.33,5.04-5.81s4.65-13.95,5.81-19.76c.94-7.74.68-15.59-.78-23.25-1.16-3.49.39-15.5-.78-17.83-.78-2.71-1.16-6.2-8.91-8.53-7.36-2.71-9.69-3.1-14.73,1.94s-6.98,7.36-9.3,9.69c-2.33,2.71-8.14.39-3.1-4.65,5.04-4.65,9.69-9.69,11.24-10.85l-1.55-3.88h-2.71c-7.17,7.07-16.16,12.03-25.96,14.34-2.71.39-7.75,1.16-4.26,5.81,1.16,1.16,1.16,4.65,3.49,3.49s5.43-6.59,8.53-4.26c2.71,2.71-.39,8.53-4.26,10.85-3.49,2.71-7.36,5.43-10.08,7.36-2.71,1.16-4.26,2.71-3.88,7.75.68,6.68-.11,13.42-2.33,19.76-2.33,6.59-1.16,8.53,1.55,13.18,2.33,4.26,6.2,8.14,7.36,15.5,1.16,7.36,1.55,8.91,6.59,8.53,3.69-.23,6.96-2.46,8.53-5.81v-10.85Z"/>
  <path class="cls-13" d="M664.36,660.42c-3.17,4.18-5.18,9.13-5.81,14.34,0,5.04-5.04,10.46-4.65,12.79s7.36,8.91,11.24,15.5c6.16,9.86,9.26,21.32,8.91,32.94-.63,14.25-2.71,28.41-6.2,42.24-.39,2.71-2.33,5.43,2.33,9.69s11.63,12.01,14.73,29.84c2.71,17.44,4.65,27.13,5.81,27.9,1.16,1.16.78,2.71.78,5.81,0,3.49,3.1,22.48,5.04,25.96,2.33,3.88,1.94-20.15,1.55-27.13,0-7.36.39-40.3,1.55-44.95,1.16-5.04,2.33-10.08-1.55-16.28-4.26-6.2-11.63-16.28-6.2-33.71s13.95-17.44,11.24-24.03c-2.69-5.87-6.36-11.25-10.85-15.89-3.88-3.88-.78-13.18-1.16-17.05-.39-7.36-6.2-8.53-6.59-16.66-.78-8.14-1.16-14.73,5.04-22.86,5.81-8.14-2.33-7.75-5.04-12.79s-3.88-11.63-1.55-22.48c1.16-5.43.39-6.98-1.16-7.36-1.16-.39-7.75-1.94-7.75-1.94l-8.91,18.99c1.21,4.03,1.86,8.2,1.94,12.4l-2.71,14.73Z"/>
  <path class="cls-3" d="M664.36,660.42c-3.17,4.18-5.18,9.13-5.81,14.34,0,5.04-5.04,10.46-4.65,12.79s7.36,8.91,11.24,15.5c6.16,9.86,9.26,21.32,8.91,32.94-.63,14.25-2.71,28.41-6.2,42.24-.39,2.71-2.33,5.43,2.33,9.69s11.63,12.01,14.73,29.84c2.71,17.44,4.65,27.13,5.81,27.9,1.16,1.16.78,2.71.78,5.81,0,3.49,3.1,22.48,5.04,25.96,2.33,3.88,1.94-20.15,1.55-27.13,0-7.36.39-40.3,1.55-44.95,1.16-5.04,2.33-10.08-1.55-16.28-4.26-6.2-11.63-16.28-6.2-33.71s13.95-17.44,11.24-24.03c-2.69-5.87-6.36-11.25-10.85-15.89-3.88-3.88-.78-13.18-1.16-17.05-.39-7.36-6.2-8.53-6.59-16.66-.78-8.14-1.16-14.73,5.04-22.86,5.81-8.14-2.33-7.75-5.04-12.79s-3.88-11.63-1.55-22.48c1.16-5.43.39-6.98-1.16-7.36-1.16-.39-7.75-1.94-7.75-1.94l-8.91,18.99c1.21,4.03,1.86,8.2,1.94,12.4l-2.71,14.73Z"/>
  <path class="cls-10" d="M577.17,294.22c-7.36,9.69-18.6,34.88-24.41,50.38-5.43,15.89-17.44,53.09-8.91,77.89,8.91,24.8,25.96,8.91,29.84-.39,3.88-9.3,10.08-25.19,12.01-29.45,1.55-4.26,2.33-6.59,5.81,3.49,3.55,11.68,6.27,23.59,8.14,35.65,0,2.33-3.1,8.14-6.98,17.44-3.49,9.69-5.81,15.89-1.94,21.7,3.49,5.81,17.44,29.84,22.09,40.69,2.71,6.2,5.04,7.36,12.4,5.81,10.12-2.83,20.08-6.19,29.84-10.08,5.04-2.71,2.71-6.59,1.16-11.63-2.33-7.75-11.24-51.15-11.24-56.96s1.16-13.56-6.2-5.04c-2.71,3.1-6.2,0-5.43-3.88,1.16-4.26,10.08-63.16,10.46-70.14-5.04-11.24-20.15-46.11-24.41-52.7-4.26-6.2-5.81-6.59-12.01-3.1-6.2,3.1-20.54,8.14-25.58-3.88-1.16-1.94-2.71-6.98,1.16-7.36l-2.71-1.16c0-.39-1.94,1.16-3.1,2.71Z"/>
  <path class="cls-10" d="M656.22,510.46c-5.43,3.1-24.8,11.63-32.55,12.79-7.75,1.16-5.81,3.49-4.65,9.3,1.55,6.2,6.2,24.03,8.53,30.61,2.71,6.2,5.81,6.2,12.4,6.2,13.79-.86,26.88-6.32,37.2-15.5-3.1-3.88-8.91-22.86-10.85-30.61-1.94-8.91-1.94-17.44-10.08-12.79Z"/>
  <path class="cls-10" d="M483.77,336.85c-1.23,3-4.12,4.98-7.36,5.04-5.04,0-8.91-1.55-12.01,2.71-2.71,3.88-19.76,24.41-23.25,36.81,3.49,7.36,8.53,20.93,12.01,30.61,11.63-10.08,49.21-46.5,56.19-53.48,2.71-2.71,3.1-5.04-.78-7.75s-18.6-12.01-20.93-13.56-3.49-1.55-3.88-.39Z"/>
  <path class="cls-10" d="M388.83,389.55c-3.04,13.37-7.87,26.27-14.34,38.36,2.71,5.04,5.04,8.91,8.91,10.85,10.33-7.91,19.92-16.73,28.68-26.35,4.65-5.43,10.08-13.56,10.08-15.11,0-1.94-1.94-2.33-4.65-1.94-2.71.78-13.95-3.88-24.8-5.81-2.71-1.16-3.49-1.16-3.88,0Z"/>
  <path class="cls-10" d="M382.25,380.64c-3.49-.78-14.73-12.79-18.6-19.38s-4.65-6.2-6.2-1.16c-2.62,7.21-6.28,13.99-10.85,20.15-3.88,5.04-14.34,18.6-17.05,21.31-2.71,3.1,0,4.26,2.33,6.59s14.73,17.44,17.44,20.93c2.71,3.1,5.81,9.3,12.79,2.71,9.09-8.58,16-19.21,20.15-31,3.88-12.4,3.88-18.99,7.36-18.21l.39-2.71-1.16-1.55-1.55-1.55c.45,1.03.3,2.22-.39,3.1-.78,1.94-3.1,1.16-4.65.78Z"/>
  <path class="cls-10" d="M566.32,103.95c-8.14,9.69-24.41,18.21-51.93,24.8-27.13,6.98-53.48,26.35-64.33,35.65-11.24,9.69-39.14,32.16-52.31,37.98-3.88,1.55-11.63,6.59-1.55,7.75,7.36,1.16,12.4-3.1,27.9-14.73,15.89-11.24,27.9-19.38,39.91-31,11.24-11.24,31-21.31,53.09-27.13,21.7-6.2,49.99-15.5,58.13-24.8,3.88-3.88,4.26-6.2.78-9.69-3.88-3.88-6.2-2.71-9.69,1.16Z"/>
  <path class="cls-10" d="M428.36,198.51c-2.33,1.16-3.49,2.71-6.2,11.63-2.71,8.53-2.33,13.56,0,15.89,1.41,1.16,3.22,1.72,5.04,1.55,1.16,0,1.94.39,1.94-1.94-.39-2.71-.39-13.56,7.75-18.6,1.55-.78-.39-7.36-5.81-6.2-1.55.39.39-3.88-2.71-2.33Z"/>
  <path class="cls-10" d="M335.36,233c4.26,0,6.98,0,6.59,5.04-.39,4.65-2.33,11.24-2.71,15.89s-.39,6.2,2.33,6.2-3.88,2.71-7.36,3.49c-3.88.39-9.3,2.71-12.01-12.79-1.16-4.65-.78-12.4-1.55-13.95,4.53-2.46,9.58-3.78,14.73-3.88Z"/>
  <path class="cls-10" d="M415.18,245.78c1.16,6.2,2.71,6.2,1.55,6.98s-2.33-2.33-7.36-1.55c-4.65.78-42.63,6.59-45.34,6.98-8.53,1.16-8.91-.39-.78-2.33,7.75-1.55,36.43-6.59,44.95-8.14l6.98-1.94Z"/>
  <path class="cls-10" d="M369.85,706.15c3.88,2.33,13.18,5.04,29.06-1.55,16.28-6.59,33.71-2.33,36.43,9.3,2.71,11.24,3.1,25.96-2.33,32.16-3.88,5.43-8.14,5.04-12.79,3.49-8.53-2.71-28.68-12.01-34.49-14.73-7.04-3.38-14.68-5.35-22.48-5.81-2.33-5.81-2.33-15.89-.39-19.38s1.94-7.36,3.49-6.2c1.09.99,2.26,1.9,3.49,2.71Z"/>
  <path class="cls-10" d="M433.01,759.24c5.84-.12,11.12,3.45,13.18,8.91,1.94,5.81,13.56,6.98,18.6,6.98,5.04-.39,4.26,2.33,3.88,5.43,0,2.71-1.16,12.01-1.16,15.5,0,3.88,1.16,16.28,1.55,18.6.78,2.71-1.55,3.88-4.26,5.04s-12.4,3.88-18.6-.39c-3.49-2.33-7.36-5.81-3.49-5.81,3.88-.39-5.04-34.49-7.36-40.3-2.33-6.2-9.3-13.95-2.33-13.95Z"/>
  <path class="cls-10" d="M329.16,688.32c1.94.39,2.71,2.33,3.88,4.26,1.44,1.73,1.27,4.29-.39,5.81-3.49,3.88-7.36,20.15-6.59,32.16-2.9-.79-5.9-1.18-8.91-1.16-.78-6.59-.39-27.13,2.71-33.71,2.71-6.98,5.81-8.53,9.3-7.36Z"/>
  <path class="cls-10" d="M329.93,872.01c7.75,8.53,21.7,21.31,32.16,25.96,8.39,4.2,17.79,5.95,27.13,5.04,7.36-.77,5.81,2.33,0,3.49-6.2.77-20.15.77-29.06-3.88-8.91-5.04-23.25-13.95-32.16-27.13-2.71-3.1-.39-6.2,1.94-3.49Z"/>
  <path class="cls-10" d="M486.87,850.69c-9.12,4.77-18.74,8.54-28.68,11.24,1,3,1.53,6.14,1.55,9.3,6.59,0,19.38-4.65,29.84-11.24,2.33-1.55,3.49-3.49,2.33-5.43-.78-1.94-1.94-5.43-5.04-3.88Z"/>
  <path class="cls-10" d="M415.57,826.28c-1.55-1.55,6.98-3.49,8.91-3.49,2.69,1.77,5.16,3.85,7.36,6.2,1.16.78.78,1.16-.39,1.94-2.78.97-5.63,1.75-8.53,2.33-2.62-2.14-5.08-4.47-7.36-6.98Z"/>
  <path class="cls-10" d="M431.46,701.11c-2.33-1.94-2.33-2.71-.78-4.65.85-1.54,2.05-2.86,3.49-3.88,1.16-.39,2.71-.78,5.04,2.33,5.8,8.74,11.1,17.79,15.89,27.13,2.71,5.04,5.43,1.55,4.26-1.16-1.24-3.37-2.8-6.61-4.65-9.69,3.87-11.65,6.09-23.78,6.59-36.04.2-8.21-1.25-16.38-4.26-24.03,8.53,0,25.96,0,32.94-2.33,6.98-1.94,1.16-2.71-1.55-2.33-12.16.46-24.35-.06-36.43-1.55-24.8-2.71-48.83-17.05-56.58-26.35-1.16-1.55-8.53-.78-2.33,3.88,5.81,5.04,21.31,18.99,43.79,23.25,5.04,1.16,13.18,2.33,14.34,20.93.69,10.84.56,21.73-.39,32.55,0,1.94-1.16,2.33-2.71.39-2.57-3.93-5.7-7.45-9.3-10.46-2.15-1.44-5-1.28-6.98.39-2.85,2.16-5.45,4.63-7.75,7.36l7.36,4.26Z"/>
  <path class="cls-10" d="M382.63,759.63c-1.94,0-15.5,1.16-18.6,0-2.71-.78-4.65-4.26-2.71-5.81,2.71-1.55,7.36.78,11.63.78,4.65,0,9.69-1.16,11.24-.78,1.16.78,2.71.78,2.71,6.2l-4.26-.39Z"/>
  <path class="cls-10" d="M350.08,842.55c-3.88-2.71-8.53-13.56-9.3-36.04.21-8.88,1.92-17.65,5.04-25.96,2.33-6.2-1.55-3.88-2.33-1.55-2.33,5.47-4.02,11.19-5.04,17.05-1.61,9.62-1.61,19.44,0,29.06.94,6.81,2.37,13.54,4.26,20.15l7.36-2.71Z"/>
  <path class="cls-11" d="M473.31,103.57c.48-1.61,1.13-3.17,1.94-4.65-2.33,1.55-4.65,2.33-6.59,3.49,1.16,1.94,3.1,5.04,4.65,1.16Z"/>
  <path class="cls-1" d="M473.31,103.57c.48-1.61,1.13-3.17,1.94-4.65-2.33,1.55-4.65,2.33-6.59,3.49,1.16,1.94,3.1,5.04,4.65,1.16Z"/>
  <path class="cls-11" d="M527.56,106.28c-.78-3.1-3.88,1.94-7.36,6.2-3.88,4.65-9.3,1.94-9.69-.39-1.15-3.36-2.85-6.5-5.04-9.3-3.49-4.26,3.1-10.08,5.81-10.85,2.4-.54,4.74-1.31,6.98-2.33.78-.78-.39-5.04-1.16-8.53-12.28,3.88-24.21,8.8-35.65,14.73,3.49,1.16,2.33,8.14,1.94,8.91-.39,1.16-1.55,7.36,1.16,3.49,1.56-2.56,3.86-4.58,6.59-5.81,2.71-.78,5.81-.78,5.81,3.49.39,4.26-1.55,3.88-2.33,6.59-.39,2.71,0,2.71,1.55,3.1s2.33,2.33,1.16,5.43c-.78,2.71-5.43,3.1-9.69,2.71-4.26-.78-4.65,0-3.1,1.16,1.64,1.71,2.72,3.87,3.1,6.2,12.65-6,26.09-10.18,39.91-12.4.58-4.11.58-8.29,0-12.4Z"/>
  <path class="cls-1" d="M527.56,106.28c-.78-3.1-3.88,1.94-7.36,6.2-3.88,4.65-9.3,1.94-9.69-.39-1.15-3.36-2.85-6.5-5.04-9.3-3.49-4.26,3.1-10.08,5.81-10.85,2.4-.54,4.74-1.31,6.98-2.33.78-.78-.39-5.04-1.16-8.53-12.28,3.88-24.21,8.8-35.65,14.73,3.49,1.16,2.33,8.14,1.94,8.91-.39,1.16-1.55,7.36,1.16,3.49,1.56-2.56,3.86-4.58,6.59-5.81,2.71-.78,5.81-.78,5.81,3.49.39,4.26-1.55,3.88-2.33,6.59-.39,2.71,0,2.71,1.55,3.1s2.33,2.33,1.16,5.43c-.78,2.71-5.43,3.1-9.69,2.71-4.26-.78-4.65,0-3.1,1.16,1.64,1.71,2.72,3.87,3.1,6.2,12.65-6,26.09-10.18,39.91-12.4.58-4.11.58-8.29,0-12.4Z"/>
  <path class="cls-11" d="M432.62,165.57c-1.55-2.71-3.49-3.1-4.26-.78-.78,1.94-2.33,9.3-6.98,11.24-1.55.39-2.71.78-3.88,1.16,1.94,1.55,3.49,3.1,5.81,4.65,3.29-3.68,6.78-7.17,10.46-10.46-.01-1.99-.41-3.97-1.16-5.81Z"/>
  <path class="cls-1" d="M432.62,165.57c-1.55-2.71-3.49-3.1-4.26-.78-.78,1.94-2.33,9.3-6.98,11.24-1.55.39-2.71.78-3.88,1.16,1.94,1.55,3.49,3.1,5.81,4.65,3.29-3.68,6.78-7.17,10.46-10.46-.01-1.99-.41-3.97-1.16-5.81Z"/>
  <path class="cls-11" d="M477.57,129.92c-1.94-.39-3.1,1.94-4.26,3.49-1.17,2.96-4.22,4.72-7.36,4.26-3.88-.39-4.65-1.55-5.81-5.04-.66-2.8-3.34-4.65-6.2-4.26-2.71,0-4.65-3.49-1.55-6.98,2.71-3.49,5.81-1.94,8.53-1.94,2.33,0,3.49-2.71,1.55-3.88-2.18-1.68-3.8-3.97-4.65-6.59-11.18,7.19-21.81,15.23-31.78,24.03,1.7.3,3.38.69,5.04,1.16,2.22.62,3.69,2.74,3.49,5.04,0,2.71.39,3.49,2.33,1.55,1.55-1.55-.39-7.36,5.43-9.3,5.43-2.33,6.2,1.94,5.81,4.65,0,3.1,0,5.43,3.1,6.98,2.71,1.16,5.81,5.81-.39,8.14-4.01,1.77-8.15,3.19-12.4,4.26-2.71.78-1.94,3.49.39,5.04,1.16.78,1.94,1.94,2.71,2.33,7.64-6.78,15.67-13.12,24.03-18.99,4.34-3.12,8.87-5.96,13.56-8.53.39-1.94.78-4.65-1.55-5.43Z"/>
  <path class="cls-1" d="M477.57,129.92c-1.94-.39-3.1,1.94-4.26,3.49-1.17,2.96-4.22,4.72-7.36,4.26-3.88-.39-4.65-1.55-5.81-5.04-.66-2.8-3.34-4.65-6.2-4.26-2.71,0-4.65-3.49-1.55-6.98,2.71-3.49,5.81-1.94,8.53-1.94,2.33,0,3.49-2.71,1.55-3.88-2.18-1.68-3.8-3.97-4.65-6.59-11.18,7.19-21.81,15.23-31.78,24.03,1.7.3,3.38.69,5.04,1.16,2.22.62,3.69,2.74,3.49,5.04,0,2.71.39,3.49,2.33,1.55,1.55-1.55-.39-7.36,5.43-9.3,5.43-2.33,6.2,1.94,5.81,4.65,0,3.1,0,5.43,3.1,6.98,2.71,1.16,5.81,5.81-.39,8.14-4.01,1.77-8.15,3.19-12.4,4.26-2.71.78-1.94,3.49.39,5.04,1.16.78,1.94,1.94,2.71,2.33,7.64-6.78,15.67-13.12,24.03-18.99,4.34-3.12,8.87-5.96,13.56-8.53.39-1.94.78-4.65-1.55-5.43Z"/>
  <path class="cls-11" d="M418.67,157.82c.39-2.71-2.33-3.88-3.49-4.65-1.55,0-3.49-2.33-4.26-4.26-1.65,1.82-2.96,3.92-3.88,6.2.78,1.94,1.16,3.88,1.94,5.43,3.49,0,9.3,0,9.69-2.71Z"/>
  <path class="cls-1" d="M418.67,157.82c.39-2.71-2.33-3.88-3.49-4.65-1.55,0-3.49-2.33-4.26-4.26-1.65,1.82-2.96,3.92-3.88,6.2.78,1.94,1.16,3.88,1.94,5.43,3.49,0,9.3,0,9.69-2.71Z"/>
  <path class="cls-11" d="M545.78,298.49c-11.11-.41-22.18,1.43-32.55,5.43,1.94,1.16,3.88,3.88,7.75,2.33,5.81-1.94,7.75,4.26,5.04,5.81-2.33,1.94-3.49,5.81,1.55,2.71s9.69,1.55,7.75,4.65c-2.33,3.49-5.04.78-4.26,5.43.39,4.65-.39,8.91-4.65,9.69s-5.04-5.43-6.98-5.04.39,11.24-.39,11.24c-2.88.74-5.45,2.37-7.36,4.65.21,0,.38.16.39.37,0,0,0,.01,0,.02,16.28,11.63,20.54,5.04,23.25-.39,3.82-10.23,6.93-20.72,9.3-31.39.74-5.13,1.13-10.31,1.16-15.5Z"/>
  <path class="cls-1" d="M545.78,298.49c-11.11-.41-22.18,1.43-32.55,5.43,1.94,1.16,3.88,3.88,7.75,2.33,5.81-1.94,7.75,4.26,5.04,5.81-2.33,1.94-3.49,5.81,1.55,2.71s9.69,1.55,7.75,4.65c-2.33,3.49-5.04.78-4.26,5.43.39,4.65-.39,8.91-4.65,9.69s-5.04-5.43-6.98-5.04.39,11.24-.39,11.24c-2.88.74-5.45,2.37-7.36,4.65.21,0,.38.16.39.37,0,0,0,.01,0,.02,16.28,11.63,20.54,5.04,23.25-.39,3.82-10.23,6.93-20.72,9.3-31.39.74-5.13,1.13-10.31,1.16-15.5Z"/>
  <path class="cls-11" d="M509.74,331.04c.78-1.94-1.55-3.88-4.26-2.71-2.71,1.94-6.2,4.26-8.91,0-2.71-4.65,3.1-5.04,3.1-6.98.39-2.33-1.55-2.71-.78-5.81,1.16-3.49,5.04-2.71,7.75-.78,3.1,1.94,1.94-3.1,1.55-5.04-.19-1.28-.19-2.59,0-3.88-3.42,1.29-6.67,2.98-9.69,5.04-15.5,9.3-15.89,17.44-12.4,20.54,3.1,2.71,10.08,3.88,21.31,11.24.21-3.97.99-7.88,2.33-11.63Z"/>
  <path class="cls-1" d="M509.74,331.04c.78-1.94-1.55-3.88-4.26-2.71-2.71,1.94-6.2,4.26-8.91,0-2.71-4.65,3.1-5.04,3.1-6.98.39-2.33-1.55-2.71-.78-5.81,1.16-3.49,5.04-2.71,7.75-.78,3.1,1.94,1.94-3.1,1.55-5.04-.19-1.28-.19-2.59,0-3.88-3.42,1.29-6.67,2.98-9.69,5.04-15.5,9.3-15.89,17.44-12.4,20.54,3.1,2.71,10.08,3.88,21.31,11.24.21-3.97.99-7.88,2.33-11.63Z"/>
  <path class="cls-11" d="M460.52,322.12c-7.25-4.38-13.16-10.69-17.05-18.21,0,0,.39-1.55-1.16-1.55-6.77-.38-13.44-1.82-19.76-4.26-11.24-3.88-12.79-1.55-13.95,3.1-2.2,9.26-3.24,18.77-3.1,28.29,0,14.34,6.2,23.25,10.08,22.09,1.94-.78,6.59-3.1,12.01-5.81,0-3.1.39-7.75.39-10.46.78-3.1-3.1-1.94-4.65,0-1.16,1.55-4.26,4.65-6.98,4.26s-4.65-5.43-3.88-9.69c.39-4.65-5.04-6.2-1.55-12.4,3.49-5.81,6.2,1.55,8.91,1.16,3.1-.78,1.55-2.33,0-6.98s4.26-5.81,7.75-2.71c2.33,2.33,3.49-2.71,6.59-1.94,3.49.78,5.43,3.1,3.49,6.59-1.55,2.33-2.71,8.14,0,5.04,3.1-3.1,5.81-5.04,8.53-2.71,2.71,1.94,1.16,6.59.39,8.53-.78,2.33,4.65,5.04.78,7.75s-8.14-1.94-10.46-1.16c-1.94.39-2.33,3.1.39,5.04,1.64,1.3,3.47,2.35,5.43,3.1,5.7-1.97,11.16-4.57,16.28-7.75l3.88.39c0-5.43-.78-8.53-2.33-9.69Z"/>
  <path class="cls-1" d="M460.52,322.12c-7.25-4.38-13.16-10.69-17.05-18.21,0,0,.39-1.55-1.16-1.55-6.77-.38-13.44-1.82-19.76-4.26-11.24-3.88-12.79-1.55-13.95,3.1-2.2,9.26-3.24,18.77-3.1,28.29,0,14.34,6.2,23.25,10.08,22.09,1.94-.78,6.59-3.1,12.01-5.81,0-3.1.39-7.75.39-10.46.78-3.1-3.1-1.94-4.65,0-1.16,1.55-4.26,4.65-6.98,4.26s-4.65-5.43-3.88-9.69c.39-4.65-5.04-6.2-1.55-12.4,3.49-5.81,6.2,1.55,8.91,1.16,3.1-.78,1.55-2.33,0-6.98s4.26-5.81,7.75-2.71c2.33,2.33,3.49-2.71,6.59-1.94,3.49.78,5.43,3.1,3.49,6.59-1.55,2.33-2.71,8.14,0,5.04,3.1-3.1,5.81-5.04,8.53-2.71,2.71,1.94,1.16,6.59.39,8.53-.78,2.33,4.65,5.04.78,7.75s-8.14-1.94-10.46-1.16c-1.94.39-2.33,3.1.39,5.04,1.64,1.3,3.47,2.35,5.43,3.1,5.7-1.97,11.16-4.57,16.28-7.75l3.88.39c0-5.43-.78-8.53-2.33-9.69Z"/>
  <path class="cls-11" d="M438.44,388.39c-2.71-5.43-3.49-1.16-10.08,8.91-6.85,9.44-14.36,18.37-22.48,26.74,7.36,1.16,23.25,5.04,13.56,13.18-10.08,8.53-5.81,7.75-1.16,7.36,4.65-.78,12.4,1.94,6.59,12.4-5.81,10.08-9.69,17.44-15.11,20.54-5.43,3.49-13.56,3.1-15.11-4.65s-6.98,0-7.36,5.04c-.39,5.68-.39,11.37,0,17.05l-11.63-.78c-.14-6.21.12-12.42.78-18.6.78-4.65.39-10.08-6.59-7.75-2.96.91-6.16.64-8.91-.78-13.56,11.63-20.54,20.15-24.8,27.51,3.9,3.79,9.63,4.99,14.73,3.1,6.59-2.71,17.44.39,10.85,10.85-6.59,10.08-6.2,15.11.39,8.91,6.59-6.2,17.05-17.44,20.54-5.81,1.94,7.36-5.04,9.69-4.65,15.89s6.2,12.01-2.33,19.38c-8.53,7.36-12.01-5.04-17.44-3.49-2.85,1.04-4.5,4.01-3.88,6.98,7.36,10.85,18.21,25.96,22.09,32.16,6.2,10.08,6.2,22.09,8.53,20.15s8.14-7.36,10.08-8.91c2.23-1.38,3.33-4.04,2.71-6.59-2.86-10.87-4.03-22.1-3.49-33.33,1.16-13.95,7.75-29.45,12.4-38.36,4.65-8.53,18.6-36.04,22.09-43.01,3.49-7.36,9.69-15.89,10.85-22.48,1.55-6.59,7.36-22.09,9.69-29.45-2.4-11.09-6.04-21.88-10.85-32.16Z"/>
  <path class="cls-1" d="M438.44,388.39c-2.71-5.43-3.49-1.16-10.08,8.91-6.85,9.44-14.36,18.37-22.48,26.74,7.36,1.16,23.25,5.04,13.56,13.18-10.08,8.53-5.81,7.75-1.16,7.36,4.65-.78,12.4,1.94,6.59,12.4-5.81,10.08-9.69,17.44-15.11,20.54-5.43,3.49-13.56,3.1-15.11-4.65s-6.98,0-7.36,5.04c-.39,5.68-.39,11.37,0,17.05l-11.63-.78c-.14-6.21.12-12.42.78-18.6.78-4.65.39-10.08-6.59-7.75-2.96.91-6.16.64-8.91-.78-13.56,11.63-20.54,20.15-24.8,27.51,3.9,3.79,9.63,4.99,14.73,3.1,6.59-2.71,17.44.39,10.85,10.85-6.59,10.08-6.2,15.11.39,8.91,6.59-6.2,17.05-17.44,20.54-5.81,1.94,7.36-5.04,9.69-4.65,15.89s6.2,12.01-2.33,19.38c-8.53,7.36-12.01-5.04-17.44-3.49-2.85,1.04-4.5,4.01-3.88,6.98,7.36,10.85,18.21,25.96,22.09,32.16,6.2,10.08,6.2,22.09,8.53,20.15s8.14-7.36,10.08-8.91c2.23-1.38,3.33-4.04,2.71-6.59-2.86-10.87-4.03-22.1-3.49-33.33,1.16-13.95,7.75-29.45,12.4-38.36,4.65-8.53,18.6-36.04,22.09-43.01,3.49-7.36,9.69-15.89,10.85-22.48,1.55-6.59,7.36-22.09,9.69-29.45-2.4-11.09-6.04-21.88-10.85-32.16Z"/>
  <path class="cls-11" d="M569.42,522.08c-7.75-12.79-9.3-18.21-10.46-31.39-.39-9.84.13-19.7,1.55-29.45-2.71-.39-5.43,0-5.81,3.88-.49,6.29-2.06,12.46-4.65,18.21-1.94,3.88-7.75,3.88-11.63,3.88-3.49.39-3.49-1.94-1.16-7.36s3.49-7.75,2.71-12.79c-.78-4.65-2.71-.39-5.04,3.88-2.33,3.88-8.14,12.4-15.11,11.63-6.98-1.16-5.04-11.63-4.65-15.11.78-3.49-1.16-4.26-3.88-4.65-2.71-.78-8.53-1.94-5.04-10.85,2.71-8.53,6.2-7.75,10.08-6.2,4.26,1.55,5.04-1.16,1.16-2.71s-8.14-5.04-7.75-8.91c.78-11.24,7.75-10.08,13.18-8.91,5.6.33,11.05-1.96,14.73-6.2v-.78c-8.14-30.61,7.36-68.2,11.24-78.67,7.85-16.89,16.65-33.32,26.35-49.21-3.1-1.55-10.85-5.43-15.5-7.75-4.26-1.94-6.59-3.49-7.75-1.55-1.16,1.55-2.71,2.71-5.04,5.43-3.88,6.2-.39,5.04.39,5.04,1.55,0,6.59,6.59,7.36,8.53,1.16,1.16,0,2.33-1.94,7.36-2.71,6.2-4.65,20.93-7.36,29.45-6.98,26.35-18.6,23.64-23.64,20.54-5.04-3.49-6.59,1.55-11.63,8.91-1.55,1.55-4.65,5.04-8.53,8.91,5.04,2.33,11.63,8.53,3.88,14.73-9.69,7.36-11.24,11.24-6.59,10.08,4.65-.78,8.91-7.75,13.95-2.71,5.04,4.65-1.55,10.08-4.65,11.63-2.71,1.55-8.14,4.26-6.59,10.08,1.55,5.81,2.71,13.56-5.04,15.11-7.36,1.94-10.46-1.16-12.4-5.04-2.33-3.88-4.26-1.16-5.04,3.49-.84,3.3-1.36,6.67-1.55,10.08,0,1.94-5.43-.78-7.75-3.1-2.33-2.71-5.43,3.88-8.14.78-2.71-3.49,3.1-13.56,5.04-17.05s1.16-8.53-10.85-2.71c-3.88,6.59-6.98,15.89-11.63,30.61-7.43,19.97-16.78,39.18-27.9,57.35-16.28,26.35-19.38,50.76-16.66,66.26,2.33,15.11,4.26,13.95,7.75,13.95,3.1,0,11.24,10.08,16.66,16.66,5.43,6.2,7.75,3.49,10.46,1.16,15.88-11.52,32.89-21.38,50.76-29.45,12.4-5.96,25.23-11.01,38.36-15.11.24-4.95.89-9.88,1.94-14.73.39-3.1-2.33-3.88-5.43,0-2.71,3.88-10.85,13.56-16.28,10.85-5.43-2.33-10.08-8.14-6.98-13.56,2.71-5.04-1.16-6.2-3.49-8.91s-2.33-13.56,4.65-14.34c6.59-.78,8.53,5.04,13.18,6.59,4.65,1.16,8.53,1.16,2.71-5.04-5.81-6.59-12.79-3.88-9.3-12.79,3.88-8.53,8.91-8.14,15.11-6.2,5.81,1.55,8.91-1.55,12.79-4.26s11.63-6.2,17.05,0c5.43,6.2-3.88,12.01-6.2,13.95-3.88,4.26-4.65,11.63,0,7.36s12.01-20.93,17.44-7.36c2.71,7.75-2.71,11.24-1.94,15.89,1.16,5.04,9.3,11.24,2.71,17.44-6.59,6.2-16.28,1.16-20.15-2.71-3.88-3.49-8.14-5.43-6.2,1.16,1.27,4.28,1.92,8.71,1.94,13.18,13.18-3.49,24.8-5.81,30.61-5.43,8.53.78,15.11,3.49,14.73-4.65-1.16-8.14-5.43-13.56-13.18-26.35Z"/>
  <path class="cls-1" d="M569.42,522.08c-7.75-12.79-9.3-18.21-10.46-31.39-.39-9.84.13-19.7,1.55-29.45-2.71-.39-5.43,0-5.81,3.88-.49,6.29-2.06,12.46-4.65,18.21-1.94,3.88-7.75,3.88-11.63,3.88-3.49.39-3.49-1.94-1.16-7.36s3.49-7.75,2.71-12.79c-.78-4.65-2.71-.39-5.04,3.88-2.33,3.88-8.14,12.4-15.11,11.63-6.98-1.16-5.04-11.63-4.65-15.11.78-3.49-1.16-4.26-3.88-4.65-2.71-.78-8.53-1.94-5.04-10.85,2.71-8.53,6.2-7.75,10.08-6.2,4.26,1.55,5.04-1.16,1.16-2.71s-8.14-5.04-7.75-8.91c.78-11.24,7.75-10.08,13.18-8.91,5.6.33,11.05-1.96,14.73-6.2v-.78c-8.14-30.61,7.36-68.2,11.24-78.67,7.85-16.89,16.65-33.32,26.35-49.21-3.1-1.55-10.85-5.43-15.5-7.75-4.26-1.94-6.59-3.49-7.75-1.55-1.16,1.55-2.71,2.71-5.04,5.43-3.88,6.2-.39,5.04.39,5.04,1.55,0,6.59,6.59,7.36,8.53,1.16,1.16,0,2.33-1.94,7.36-2.71,6.2-4.65,20.93-7.36,29.45-6.98,26.35-18.6,23.64-23.64,20.54-5.04-3.49-6.59,1.55-11.63,8.91-1.55,1.55-4.65,5.04-8.53,8.91,5.04,2.33,11.63,8.53,3.88,14.73-9.69,7.36-11.24,11.24-6.59,10.08,4.65-.78,8.91-7.75,13.95-2.71,5.04,4.65-1.55,10.08-4.65,11.63-2.71,1.55-8.14,4.26-6.59,10.08,1.55,5.81,2.71,13.56-5.04,15.11-7.36,1.94-10.46-1.16-12.4-5.04-2.33-3.88-4.26-1.16-5.04,3.49-.84,3.3-1.36,6.67-1.55,10.08,0,1.94-5.43-.78-7.75-3.1-2.33-2.71-5.43,3.88-8.14.78-2.71-3.49,3.1-13.56,5.04-17.05s1.16-8.53-10.85-2.71c-3.88,6.59-6.98,15.89-11.63,30.61-7.43,19.97-16.78,39.18-27.9,57.35-16.28,26.35-19.38,50.76-16.66,66.26,2.33,15.11,4.26,13.95,7.75,13.95,3.1,0,11.24,10.08,16.66,16.66,5.43,6.2,7.75,3.49,10.46,1.16,15.88-11.52,32.89-21.38,50.76-29.45,12.4-5.96,25.23-11.01,38.36-15.11.24-4.95.89-9.88,1.94-14.73.39-3.1-2.33-3.88-5.43,0-2.71,3.88-10.85,13.56-16.28,10.85-5.43-2.33-10.08-8.14-6.98-13.56,2.71-5.04-1.16-6.2-3.49-8.91s-2.33-13.56,4.65-14.34c6.59-.78,8.53,5.04,13.18,6.59,4.65,1.16,8.53,1.16,2.71-5.04-5.81-6.59-12.79-3.88-9.3-12.79,3.88-8.53,8.91-8.14,15.11-6.2,5.81,1.55,8.91-1.55,12.79-4.26s11.63-6.2,17.05,0c5.43,6.2-3.88,12.01-6.2,13.95-3.88,4.26-4.65,11.63,0,7.36s12.01-20.93,17.44-7.36c2.71,7.75-2.71,11.24-1.94,15.89,1.16,5.04,9.3,11.24,2.71,17.44-6.59,6.2-16.28,1.16-20.15-2.71-3.88-3.49-8.14-5.43-6.2,1.16,1.27,4.28,1.92,8.71,1.94,13.18,13.18-3.49,24.8-5.81,30.61-5.43,8.53.78,15.11,3.49,14.73-4.65-1.16-8.14-5.43-13.56-13.18-26.35Z"/>
  <path class="cls-11" d="M462.85,575.56c-7.36,2.33-8.53-1.16-13.56-2.71-4.65-1.55-5.04,2.33-1.55,7.36s6.98,10.08,2.71,10.08c-3.88,0-6.98.39-7.36,3.49s-6.98-.39-8.53-6.98c-1.55-6.2-2.71-18.21-6.2-12.4-3.49,6.2-6.2,16.28-14.73,11.63-8.53-4.65-2.71-10.46-6.98-14.73s-8.53-9.69-3.88-17.44c3.88-7.36,7.75-1.16,11.63-1.16s4.65-3.49,1.16-6.2c-3.88-2.71-8.14-15.89,8.53-14.73,6.64-.02,13.13-2.04,18.6-5.81,5.43-3.88,19.38-1.94,13.56,8.14-5.81,10.08-3.88,12.01-.39,8.53,3.49-3.88,7.75-10.08,13.95-8.53s3.49,6.59-.39,12.01-1.55,8.91,1.55,11.24c2.71,2.33,8.53,13.56-8.14,18.21Z"/>
  <path class="cls-1" d="M462.85,575.56c-7.36,2.33-8.53-1.16-13.56-2.71-4.65-1.55-5.04,2.33-1.55,7.36s6.98,10.08,2.71,10.08c-3.88,0-6.98.39-7.36,3.49s-6.98-.39-8.53-6.98c-1.55-6.2-2.71-18.21-6.2-12.4-3.49,6.2-6.2,16.28-14.73,11.63-8.53-4.65-2.71-10.46-6.98-14.73s-8.53-9.69-3.88-17.44c3.88-7.36,7.75-1.16,11.63-1.16s4.65-3.49,1.16-6.2c-3.88-2.71-8.14-15.89,8.53-14.73,6.64-.02,13.13-2.04,18.6-5.81,5.43-3.88,19.38-1.94,13.56,8.14-5.81,10.08-3.88,12.01-.39,8.53,3.49-3.88,7.75-10.08,13.95-8.53s3.49,6.59-.39,12.01-1.55,8.91,1.55,11.24c2.71,2.33,8.53,13.56-8.14,18.21Z"/>
  <path class="cls-11" d="M493.08,504.64c-4.04.09-8.07-.3-12.01-1.16-.39,5.81-5.81,13.95-11.63,22.48-.39.78-3.88.78-5.43-.39-1.16-1.16-5.81-3.49-2.33-6.98s8.91-11.24,7.75-14.73c-.78-3.1-3.49-6.2-6.98-1.55s-9.3,13.95-15.89,13.95c-6.2.39-12.4-5.04-9.69-10.85,3.1-5.81,3.88-8.91,0-13.95-4.26-5.04-2.71-11.63,6.2-15.89,3.84-.9,7.88.11,10.85,2.71,3.49,2.71,5.04,0,.39-2.71-4.26-2.71-8.14-5.81-8.53-12.01-.39-5.81,2.71-11.63,10.85-8.53,5.2,2.66,11.48,1.89,15.89-1.94,3.49-2.71,17.44-6.2,15.5,6.2-1.55,8.91-5.81,9.3-6.98,13.95-1.55,5.04,2.33,1.55,4.26-1.55,2.33-3.88,7.36-18.6,17.05-7.36,2.33,2.71,1.55,7.36-1.55,12.4-2.71,5.04-.39,8.14,1.55,10.85,1.94,3.1,5.81,16.28-9.3,17.05Z"/>
  <path class="cls-1" d="M493.08,504.64c-4.04.09-8.07-.3-12.01-1.16-.39,5.81-5.81,13.95-11.63,22.48-.39.78-3.88.78-5.43-.39-1.16-1.16-5.81-3.49-2.33-6.98s8.91-11.24,7.75-14.73c-.78-3.1-3.49-6.2-6.98-1.55s-9.3,13.95-15.89,13.95c-6.2.39-12.4-5.04-9.69-10.85,3.1-5.81,3.88-8.91,0-13.95-4.26-5.04-2.71-11.63,6.2-15.89,3.84-.9,7.88.11,10.85,2.71,3.49,2.71,5.04,0,.39-2.71-4.26-2.71-8.14-5.81-8.53-12.01-.39-5.81,2.71-11.63,10.85-8.53,5.2,2.66,11.48,1.89,15.89-1.94,3.49-2.71,17.44-6.2,15.5,6.2-1.55,8.91-5.81,9.3-6.98,13.95-1.55,5.04,2.33,1.55,4.26-1.55,2.33-3.88,7.36-18.6,17.05-7.36,2.33,2.71,1.55,7.36-1.55,12.4-2.71,5.04-.39,8.14,1.55,10.85,1.94,3.1,5.81,16.28-9.3,17.05Z"/>
  <path class="cls-9" d="M487.65,123.72c4.26.39,8.53.39,9.69-2.71,1.16-2.71.39-4.65-1.16-5.04-1.55-.78-1.94-.78-1.55-3.49.39-2.33,2.71-2.33,2.33-6.2,0-4.26-3.1-4.65-5.81-3.49-3.1.78-3.88,1.94-6.59,5.81-2.71,3.49-1.55-2.33-1.16-3.49.78-.78,1.55-8.14-1.94-9.3-2.33,1.16-4.26,2.33-6.2,3.1-.69,1.49-1.21,3.05-1.55,4.65-1.55,3.88-3.49.78-4.65-1.16-3.48,1.86-6.85,3.93-10.08,6.2-.39,0-.78.39-1.16.39.86,2.72,2.64,5.05,5.04,6.59,1.94,1.55.78,3.88-1.94,3.88-2.33,0-5.04-1.55-8.53,1.94-2.71,3.49-.78,6.98,1.94,6.98,2.83-.27,5.44,1.53,6.2,4.26,1.16,3.49,1.94,4.65,5.81,5.04,3.12.35,6.11-1.38,7.36-4.26.78-1.55,2.33-4.26,3.88-3.88,2.71,1.16,2.33,3.49,1.55,6.2,3.1-1.55,5.81-3.1,8.91-4.65-.63-2.24-1.69-4.35-3.1-6.2-1.55-.78-1.16-1.55,2.71-1.16Z"/>
  <path class="cls-7" d="M487.65,123.72c4.26.39,8.53.39,9.69-2.71,1.16-2.71.39-4.65-1.16-5.04-1.55-.78-1.94-.78-1.55-3.49.39-2.33,2.71-2.33,2.33-6.2,0-4.26-3.1-4.65-5.81-3.49-3.1.78-3.88,1.94-6.59,5.81-2.71,3.49-1.55-2.33-1.16-3.49.78-.78,1.55-8.14-1.94-9.3-2.33,1.16-4.26,2.33-6.2,3.1-.69,1.49-1.21,3.05-1.55,4.65-1.55,3.88-3.49.78-4.65-1.16-3.48,1.86-6.85,3.93-10.08,6.2-.39,0-.78.39-1.16.39.86,2.72,2.64,5.05,5.04,6.59,1.94,1.55.78,3.88-1.94,3.88-2.33,0-5.04-1.55-8.53,1.94-2.71,3.49-.78,6.98,1.94,6.98,2.83-.27,5.44,1.53,6.2,4.26,1.16,3.49,1.94,4.65,5.81,5.04,3.12.35,6.11-1.38,7.36-4.26.78-1.55,2.33-4.26,3.88-3.88,2.71,1.16,2.33,3.49,1.55,6.2,3.1-1.55,5.81-3.1,8.91-4.65-.63-2.24-1.69-4.35-3.1-6.2-1.55-.78-1.16-1.55,2.71-1.16Z"/>
  <path class="cls-9" d="M521.36,80.32c-1.47.15-2.91.55-4.26,1.16.78,3.49,1.94,7.75,1.16,8.53-2.25.9-4.59,1.55-6.98,1.94-2.71.78-8.91,6.98-5.81,11.24,2.48,2.59,4.22,5.8,5.04,9.3,1.69,2.75,5.29,3.6,8.04,1.91.64-.4,1.2-.91,1.65-1.52,3.88-4.65,6.59-9.3,7.75-6.2.58,4.11.58,8.29,0,12.4.8.06,1.59-.07,2.33-.39,1.16-17.05-2.71-29.45-8.91-38.36Z"/>
  <path class="cls-7" d="M521.36,80.32c-1.47.15-2.91.55-4.26,1.16.78,3.49,1.94,7.75,1.16,8.53-2.25.9-4.59,1.55-6.98,1.94-2.71.78-8.91,6.98-5.81,11.24,2.48,2.59,4.22,5.8,5.04,9.3,1.69,2.75,5.29,3.6,8.04,1.91.64-.4,1.2-.91,1.65-1.52,3.88-4.65,6.59-9.3,7.75-6.2.58,4.11.58,8.29,0,12.4.8.06,1.59-.07,2.33-.39,1.16-17.05-2.71-29.45-8.91-38.36Z"/>
  <path class="cls-9" d="M438.82,160.92c-2.33-1.55-2.71-3.88-.39-5.04,4.25-.88,8.4-2.18,12.4-3.88,6.2-2.71,3.1-7.36.39-8.53-3.1-1.16-3.1-3.88-3.1-6.98.39-2.71-.39-6.98-5.81-4.65-5.81,1.94-3.88,7.36-5.43,9.3-1.94,1.94-2.71,1.16-2.33-1.55.39-2.33-1.94-4.26-3.49-5.04-1.65-.52-3.33-.91-5.04-1.16-5.54,4.8-10.6,10.12-15.11,15.89.88,1.97,2.38,3.6,4.26,4.65,2.25.32,3.81,2.4,3.49,4.65,0,0,0,0,0,0,0,2.33-5.81,2.33-9.69,2.71,1.96,6.12,5.12,11.78,9.3,16.66,1.07-.44,2.11-.96,3.1-1.55,4.65-1.94,6.2-8.91,7.36-10.85.39-2.33,2.33-1.94,3.88.78.82,1.71,1.35,3.54,1.55,5.43,2.71-2.71,5.43-5.04,7.75-7.36-.94-1.25-1.97-2.41-3.1-3.49Z"/>
  <path class="cls-7" d="M438.82,160.92c-2.33-1.55-2.71-3.88-.39-5.04,4.25-.88,8.4-2.18,12.4-3.88,6.2-2.71,3.1-7.36.39-8.53-3.1-1.16-3.1-3.88-3.1-6.98.39-2.71-.39-6.98-5.81-4.65-5.81,1.94-3.88,7.36-5.43,9.3-1.94,1.94-2.71,1.16-2.33-1.55.39-2.33-1.94-4.26-3.49-5.04-1.65-.52-3.33-.91-5.04-1.16-5.54,4.8-10.6,10.12-15.11,15.89.88,1.97,2.38,3.6,4.26,4.65,2.25.32,3.81,2.4,3.49,4.65,0,0,0,0,0,0,0,2.33-5.81,2.33-9.69,2.71,1.96,6.12,5.12,11.78,9.3,16.66,1.07-.44,2.11-.96,3.1-1.55,4.65-1.94,6.2-8.91,7.36-10.85.39-2.33,2.33-1.94,3.88.78.82,1.71,1.35,3.54,1.55,5.43,2.71-2.71,5.43-5.04,7.75-7.36-.94-1.25-1.97-2.41-3.1-3.49Z"/>
  <path class="cls-9" d="M518.65,340.72c1.16,0-1.55-10.85.39-11.24s3.1,5.81,6.98,5.04c4.26-.78,5.43-5.04,4.65-9.69-.39-4.65,2.33-2.33,4.26-5.43,2.33-3.49-2.33-7.75-7.36-4.65-5.43,3.1-4.26-.78-1.55-2.71,2.71-1.55.78-7.75-5.04-5.81-4.26,1.55-6.59-1.16-8.53-2.33-1.49.48-2.92,1.13-4.26,1.94-.19,1.41-.19,2.85,0,4.26.39,1.94,1.55,6.98-1.55,4.65-2.71-1.94-6.59-2.71-7.75.78-.78,3.49,1.16,3.88.78,5.81,0,2.33-5.81,2.71-3.1,6.98,2.71,4.65,6.2,1.94,8.91.39s5.04.39,4.26,2.71c-1.38,3.73-2.16,7.65-2.33,11.63,1.38.77,2.68,1.68,3.88,2.71,1.76-2.51,4.38-4.3,7.36-5.04Z"/>
  <path class="cls-7" d="M518.65,340.72c1.16,0-1.55-10.85.39-11.24s3.1,5.81,6.98,5.04c4.26-.78,5.43-5.04,4.65-9.69-.39-4.65,2.33-2.33,4.26-5.43,2.33-3.49-2.33-7.75-7.36-4.65-5.43,3.1-4.26-.78-1.55-2.71,2.71-1.55.78-7.75-5.04-5.81-4.26,1.55-6.59-1.16-8.53-2.33-1.49.48-2.92,1.13-4.26,1.94-.19,1.41-.19,2.85,0,4.26.39,1.94,1.55,6.98-1.55,4.65-2.71-1.94-6.59-2.71-7.75.78-.78,3.49,1.16,3.88.78,5.81,0,2.33-5.81,2.71-3.1,6.98,2.71,4.65,6.2,1.94,8.91.39s5.04.39,4.26,2.71c-1.38,3.73-2.16,7.65-2.33,11.63,1.38.77,2.68,1.68,3.88,2.71,1.76-2.51,4.38-4.3,7.36-5.04Z"/>
  <path class="cls-9" d="M436.5,330.26c2.33-.39,6.59,4.26,10.46,1.55s-1.55-5.43-.78-7.75c.39-2.33,2.33-6.59-.39-8.53-2.71-2.33-5.43-.39-8.53,2.71-2.71,3.1-1.94-2.71-.39-5.43,1.94-3.1,0-5.43-3.1-5.81-3.49-.78-4.65,3.88-6.59,1.94-3.88-3.49-9.3-1.94-7.75,2.71,1.55,4.26,2.71,5.81,0,6.59-3.1.39-5.81-6.98-8.91-.78-3.49,5.81,1.94,7.75,1.16,12.01-.39,4.65,1.55,9.69,4.26,9.69,2.71.78,5.43-2.33,6.98-4.26,1.55-1.55,5.04-3.1,4.65.39-.33,3.35-.46,6.71-.39,10.08,4.78-2.48,9.69-4.68,14.73-6.59h.39c-1.55-.78-3.49-1.94-5.43-3.1-3.1-1.94-2.33-4.65-.39-5.43Z"/>
  <path class="cls-7" d="M436.5,330.26c2.33-.39,6.59,4.26,10.46,1.55s-1.55-5.43-.78-7.75c.39-2.33,2.33-6.59-.39-8.53-2.71-2.33-5.43-.39-8.53,2.71-2.71,3.1-1.94-2.71-.39-5.43,1.94-3.1,0-5.43-3.1-5.81-3.49-.78-4.65,3.88-6.59,1.94-3.88-3.49-9.3-1.94-7.75,2.71,1.55,4.26,2.71,5.81,0,6.59-3.1.39-5.81-6.98-8.91-.78-3.49,5.81,1.94,7.75,1.16,12.01-.39,4.65,1.55,9.69,4.26,9.69,2.71.78,5.43-2.33,6.98-4.26,1.55-1.55,5.04-3.1,4.65.39-.33,3.35-.46,6.71-.39,10.08,4.78-2.48,9.69-4.68,14.73-6.59h.39c-1.55-.78-3.49-1.94-5.43-3.1-3.1-1.94-2.33-4.65-.39-5.43Z"/>
  <path class="cls-9" d="M369.85,467.44c6.98-2.33,7.36,3.49,6.59,7.75-1.04,6.27-1.3,12.65-.78,18.99l11.63.39c-.39-5.68-.39-11.37,0-17.05.39-5.04,5.43-12.79,7.36-5.04,1.55,7.75,9.69,8.14,15.11,5.04,5.43-3.49,9.3-10.46,15.11-20.93,5.81-10.08-1.94-12.79-6.59-12.4s-8.91,1.16,1.16-7.36c9.69-7.75-6.2-11.63-13.56-13.18-12.76,13.48-26.21,26.28-40.3,38.36-1.55,1.55-3.49,3.1-4.65,4.26,1.16,1.55,4.26,2.71,8.91,1.16Z"/>
  <path class="cls-7" d="M369.85,467.44c6.98-2.33,7.36,3.49,6.59,7.75-1.04,6.27-1.3,12.65-.78,18.99l11.63.39c-.39-5.68-.39-11.37,0-17.05.39-5.04,5.43-12.79,7.36-5.04,1.55,7.75,9.69,8.14,15.11,5.04,5.43-3.49,9.3-10.46,15.11-20.93,5.81-10.08-1.94-12.79-6.59-12.4s-8.91,1.16,1.16-7.36c9.69-7.75-6.2-11.63-13.56-13.18-12.76,13.48-26.21,26.28-40.3,38.36-1.55,1.55-3.49,3.1-4.65,4.26,1.16,1.55,4.26,2.71,8.91,1.16Z"/>
  <path class="cls-9" d="M357.83,543.39c5.81-1.94,9.3,10.46,17.83,3.1,8.53-6.98,2.33-13.18,1.94-19.38,0-5.81,6.59-8.14,4.65-15.89-3.1-11.24-13.56-.39-20.15,5.81s-6.98,1.16-.39-8.91c6.59-10.08-4.26-13.56-10.85-10.85-5.1,1.89-10.83.69-14.73-3.1-2.33,4.26-4.26,7.75-6.2,11.63-5.81,12.01-1.94,12.4,2.33,12.4,3.88,0,13.18,17.44,14.34,20.93.78,1.16,3.88,5.43,7.75,11.24-.89-2.88.65-5.95,3.49-6.98Z"/>
  <path class="cls-7" d="M357.83,543.39c5.81-1.94,9.3,10.46,17.83,3.1,8.53-6.98,2.33-13.18,1.94-19.38,0-5.81,6.59-8.14,4.65-15.89-3.1-11.24-13.56-.39-20.15,5.81s-6.98,1.16-.39-8.91c6.59-10.08-4.26-13.56-10.85-10.85-5.1,1.89-10.83.69-14.73-3.1-2.33,4.26-4.26,7.75-6.2,11.63-5.81,12.01-1.94,12.4,2.33,12.4,3.88,0,13.18,17.44,14.34,20.93.78,1.16,3.88,5.43,7.75,11.24-.89-2.88.65-5.95,3.49-6.98Z"/>
  <path class="cls-9" d="M446.19,463.95c-.78-5.81,2.71-11.63,10.85-8.53,5.25,2.72,11.64,1.78,15.89-2.33,3.49-2.71,17.44-5.81,15.11,6.2-1.16,9.3-5.81,9.69-6.98,14.34s2.33,1.55,4.65-1.94,6.98-18.21,17.05-6.98c2.33,2.33,1.55,6.98-1.55,12.01-1.94,3.63-1.48,8.08,1.16,11.24,1.94,2.33,6.2,15.89-8.91,16.66-4.04.12-8.07-.27-12.01-1.16-.39,5.81-6.2,13.95-11.63,22.48-.39.78-3.88.78-5.43-.39s-5.81-3.49-2.33-6.98,8.53-11.24,7.75-14.73c-1.16-3.1-3.49-6.2-6.98-1.55-3.88,4.65-9.69,13.95-15.89,13.95-6.2.39-12.4-5.04-9.69-10.85,3.1-5.81,3.88-8.91-.39-13.95-3.88-5.04-2.33-11.63,6.59-15.89,3.84-.9,7.88.11,10.85,2.71,3.49,2.71,5.04,0,.39-2.71-4.73-2.06-7.98-6.5-8.53-11.63Z"/>
  <path class="cls-7" d="M446.19,463.95c-.78-5.81,2.71-11.63,10.85-8.53,5.25,2.72,11.64,1.78,15.89-2.33,3.49-2.71,17.44-5.81,15.11,6.2-1.16,9.3-5.81,9.69-6.98,14.34s2.33,1.55,4.65-1.94,6.98-18.21,17.05-6.98c2.33,2.33,1.55,6.98-1.55,12.01-1.94,3.63-1.48,8.08,1.16,11.24,1.94,2.33,6.2,15.89-8.91,16.66-4.04.12-8.07-.27-12.01-1.16-.39,5.81-6.2,13.95-11.63,22.48-.39.78-3.88.78-5.43-.39s-5.81-3.49-2.33-6.98,8.53-11.24,7.75-14.73c-1.16-3.1-3.49-6.2-6.98-1.55-3.88,4.65-9.69,13.95-15.89,13.95-6.2.39-12.4-5.04-9.69-10.85,3.1-5.81,3.88-8.91-.39-13.95-3.88-5.04-2.33-11.63,6.59-15.89,3.84-.9,7.88.11,10.85,2.71,3.49,2.71,5.04,0,.39-2.71-4.73-2.06-7.98-6.5-8.53-11.63Z"/>
  <path class="cls-9" d="M522.53,424.43c-5.43-1.16-12.4-1.94-13.18,9.3-.39,3.88,3.88,7.36,7.75,8.91,3.88,1.16,3.1,3.88-1.16,2.71-3.88-1.55-7.36-2.71-10.46,6.2-2.71,8.53,2.71,9.69,5.04,10.46,2.71.39,5.04,1.16,4.26,4.65-.39,3.88-2.33,13.95,4.65,15.11,6.98.78,12.79-7.36,15.11-11.63,1.94-4.26,4.65-8.53,5.04-3.49.78,4.65-.39,6.98-2.71,12.4-2.33,5.43-2.33,7.75,1.16,7.36,3.49,0,9.69,0,11.24-3.88,2.59-5.78,4.29-11.92,5.04-18.21.39-3.49,3.49-3.88,5.43-3.88.78-6.2,1.94-12.01,2.71-17.05-12.01,1.55-22.09-12.79-25.58-25.19-3.49,4.65-9.69,7.75-14.34,6.2Z"/>
  <path class="cls-7" d="M522.53,424.43c-5.43-1.16-12.4-1.94-13.18,9.3-.39,3.88,3.88,7.36,7.75,8.91,3.88,1.16,3.1,3.88-1.16,2.71-3.88-1.55-7.36-2.71-10.46,6.2-2.71,8.53,2.71,9.69,5.04,10.46,2.71.39,5.04,1.16,4.26,4.65-.39,3.88-2.33,13.95,4.65,15.11,6.98.78,12.79-7.36,15.11-11.63,1.94-4.26,4.65-8.53,5.04-3.49.78,4.65-.39,6.98-2.71,12.4-2.33,5.43-2.33,7.75,1.16,7.36,3.49,0,9.69,0,11.24-3.88,2.59-5.78,4.29-11.92,5.04-18.21.39-3.49,3.49-3.88,5.43-3.88.78-6.2,1.94-12.01,2.71-17.05-12.01,1.55-22.09-12.79-25.58-25.19-3.49,4.65-9.69,7.75-14.34,6.2Z"/>
  <path class="cls-9" d="M466.34,422.49c-2.33,3.88-8.14,13.95-5.43,17.44s5.81-3.49,8.53-1.16c2.33,2.71,7.75,5.04,7.75,3.49.17-3.38.56-6.75,1.16-10.08,1.16-5.04,3.1-7.75,5.04-3.88,2.13,4.93,7.76,7.32,12.79,5.43,7.36-1.55,6.59-9.69,5.04-15.11-1.55-5.81,3.88-8.53,6.59-10.08s9.69-6.98,4.65-11.63-9.69,2.33-13.95,3.1c-4.65.78-2.71-3.1,6.2-10.46,8.14-6.2,1.55-12.01-3.49-14.34-12.79,13.18-35.65,34.1-41.08,39.14-1.73,1.92-3.29,4-4.65,6.2,12.01-6.2,12.79-1.16,10.85,1.94Z"/>
  <path class="cls-7" d="M466.34,422.49c-2.33,3.88-8.14,13.95-5.43,17.44s5.81-3.49,8.53-1.16c2.33,2.71,7.75,5.04,7.75,3.49.17-3.38.56-6.75,1.16-10.08,1.16-5.04,3.1-7.75,5.04-3.88,2.13,4.93,7.76,7.32,12.79,5.43,7.36-1.55,6.59-9.69,5.04-15.11-1.55-5.81,3.88-8.53,6.59-10.08s9.69-6.98,4.65-11.63-9.69,2.33-13.95,3.1c-4.65.78-2.71-3.1,6.2-10.46,8.14-6.2,1.55-12.01-3.49-14.34-12.79,13.18-35.65,34.1-41.08,39.14-1.73,1.92-3.29,4-4.65,6.2,12.01-6.2,12.79-1.16,10.85,1.94Z"/>
  <path class="cls-9" d="M541.13,543.39c3.88,3.88,13.18,8.91,19.76,2.71,6.59-5.81-1.55-12.4-2.33-17.44-1.16-4.65,4.65-7.75,1.55-15.5-5.43-13.56-12.79,2.33-17.44,6.98s-3.88-3.1.39-6.98c1.94-2.33,11.24-7.75,5.81-14.34-5.43-6.2-13.18-2.71-17.05,0s-6.98,6.2-12.79,4.26c-6.2-1.55-11.24-2.33-14.73,6.2-3.88,8.91,3.1,6.2,8.91,12.79,5.81,6.2,1.94,6.59-2.71,5.04-4.26-1.55-6.2-7.36-13.18-6.2-6.59.78-6.59,11.24-4.65,13.95,2.33,2.71,6.2,3.88,3.49,9.3-3.1,5.04,1.55,11.24,6.98,13.56,5.43,2.33,13.56-7.36,16.66-11.24,2.71-3.88,5.81-2.71,5.04,0-1.01,4.98-1.66,10.03-1.94,15.11,4.65-1.55,8.91-2.71,13.56-3.88-.16-4.45-.81-8.87-1.94-13.18-1.94-6.2,2.71-4.65,6.59-1.16Z"/>
  <path class="cls-7" d="M541.13,543.39c3.88,3.88,13.18,8.91,19.76,2.71,6.59-5.81-1.55-12.4-2.33-17.44-1.16-4.65,4.65-7.75,1.55-15.5-5.43-13.56-12.79,2.33-17.44,6.98s-3.88-3.1.39-6.98c1.94-2.33,11.24-7.75,5.81-14.34-5.43-6.2-13.18-2.71-17.05,0s-6.98,6.2-12.79,4.26c-6.2-1.55-11.24-2.33-14.73,6.2-3.88,8.91,3.1,6.2,8.91,12.79,5.81,6.2,1.94,6.59-2.71,5.04-4.26-1.55-6.2-7.36-13.18-6.2-6.59.78-6.59,11.24-4.65,13.95,2.33,2.71,6.2,3.88,3.49,9.3-3.1,5.04,1.55,11.24,6.98,13.56,5.43,2.33,13.56-7.36,16.66-11.24,2.71-3.88,5.81-2.71,5.04,0-1.01,4.98-1.66,10.03-1.94,15.11,4.65-1.55,8.91-2.71,13.56-3.88-.16-4.45-.81-8.87-1.94-13.18-1.94-6.2,2.71-4.65,6.59-1.16Z"/>
  <path class="cls-9" d="M423.71,531.77c6.7.35,13.3-1.71,18.6-5.81,5.43-3.88,19.76-1.55,13.95,8.53-5.81,9.69-3.88,12.01-.39,8.14,3.1-3.49,7.36-10.08,13.56-8.14,6.2,1.55,3.88,6.2,0,12.01-2.83,2.93-2.76,7.6.17,10.43.31.3.64.57.99.81,3.1,1.94,8.53,13.56-8.14,18.21-7.36,2.33-8.53-1.16-13.18-2.71-5.04-1.94-5.04,2.33-1.94,7.36,3.49,5.04,6.98,10.08,3.1,10.08s-6.98.39-7.75,3.49c-.39,2.71-6.98-.39-8.14-6.98-1.55-6.2-3.1-18.6-6.59-12.4-3.1,6.2-6.2,15.89-14.73,11.24s-2.71-10.46-6.98-14.73c-4.26-3.88-8.14-9.69-3.88-17.05,4.26-7.75,7.75-1.16,11.63-1.16s4.65-3.88,1.16-6.59-7.75-15.5,8.53-14.73Z"/>
  <path class="cls-7" d="M423.71,531.77c6.7.35,13.3-1.71,18.6-5.81,5.43-3.88,19.76-1.55,13.95,8.53-5.81,9.69-3.88,12.01-.39,8.14,3.1-3.49,7.36-10.08,13.56-8.14,6.2,1.55,3.88,6.2,0,12.01-2.83,2.93-2.76,7.6.17,10.43.31.3.64.57.99.81,3.1,1.94,8.53,13.56-8.14,18.21-7.36,2.33-8.53-1.16-13.18-2.71-5.04-1.94-5.04,2.33-1.94,7.36,3.49,5.04,6.98,10.08,3.1,10.08s-6.98.39-7.75,3.49c-.39,2.71-6.98-.39-8.14-6.98-1.55-6.2-3.1-18.6-6.59-12.4-3.1,6.2-6.2,15.89-14.73,11.24s-2.71-10.46-6.98-14.73c-4.26-3.88-8.14-9.69-3.88-17.05,4.26-7.75,7.75-1.16,11.63-1.16s4.65-3.88,1.16-6.59-7.75-15.5,8.53-14.73Z"/>
  <path class="cls-11" d="M483.39,321.35c-1.94,4.65-4.26,10.85-5.43,13.56-1.16,3.1-6.59,1.94-6.2,0,.78-4.65-5.81-1.55-5.04-5.43.78-2.71-.39-7.75,2.71-7.75,3.49,0,9.69-.39,13.95-.39Z"/>
  <path class="cls-1" d="M483.39,321.35c-1.94,4.65-4.26,10.85-5.43,13.56-1.16,3.1-6.59,1.94-6.2,0,.78-4.65-5.81-1.55-5.04-5.43.78-2.71-.39-7.75,2.71-7.75,3.49,0,9.69-.39,13.95-.39Z"/>
  <path class="cls-11" d="M473.31,103.57c.48-1.61,1.13-3.17,1.94-4.65-2.33,1.55-4.65,2.33-6.59,3.49,1.16,1.94,3.1,5.04,4.65,1.16Z"/>
  <path class="cls-11" d="M527.56,106.28c-.78-3.1-3.88,1.94-7.36,6.2-3.88,4.65-9.3,1.94-9.69-.39-1.15-3.36-2.85-6.5-5.04-9.3-3.49-4.26,3.1-10.08,5.81-10.85,2.4-.54,4.74-1.31,6.98-2.33.78-.78-.39-5.04-1.16-8.53-12.28,3.88-24.21,8.8-35.65,14.73,3.49,1.16,2.33,8.14,1.94,8.91-.39,1.16-1.55,7.36,1.16,3.49,1.56-2.56,3.86-4.58,6.59-5.81,2.71-.78,5.81-.78,5.81,3.49.39,4.26-1.55,3.88-2.33,6.59-.39,2.71,0,2.71,1.55,3.1s2.33,2.33,1.16,5.43c-.78,2.71-5.43,3.1-9.69,2.71-4.26-.78-4.65,0-3.1,1.16,1.64,1.71,2.72,3.87,3.1,6.2,12.65-6,26.09-10.18,39.91-12.4.58-4.11.58-8.29,0-12.4Z"/>
  <path class="cls-11" d="M432.62,165.57c-1.55-2.71-3.49-3.1-4.26-.78-.78,1.94-2.33,9.3-6.98,11.24-1.55.39-2.71.78-3.88,1.16,1.94,1.55,3.49,3.1,5.81,4.65,3.29-3.68,6.78-7.17,10.46-10.46-.01-1.99-.41-3.97-1.16-5.81Z"/>
  <path class="cls-11" d="M477.57,129.92c-1.94-.39-3.1,1.94-4.26,3.49-1.17,2.96-4.22,4.72-7.36,4.26-3.88-.39-4.65-1.55-5.81-5.04-.66-2.8-3.34-4.65-6.2-4.26-2.71,0-4.65-3.49-1.55-6.98,2.71-3.49,5.81-1.94,8.53-1.94,2.33,0,3.49-2.71,1.55-3.88-2.18-1.68-3.8-3.97-4.65-6.59-11.18,7.19-21.81,15.23-31.78,24.03,1.7.3,3.38.69,5.04,1.16,2.22.62,3.69,2.74,3.49,5.04,0,2.71.39,3.49,2.33,1.55,1.55-1.55-.39-7.36,5.43-9.3,5.43-2.33,6.2,1.94,5.81,4.65,0,3.1,0,5.43,3.1,6.98,2.71,1.16,5.81,5.81-.39,8.14-4.01,1.77-8.15,3.19-12.4,4.26-2.71.78-1.94,3.49.39,5.04,1.16.78,1.94,1.94,2.71,2.33,7.64-6.78,15.67-13.12,24.03-18.99,4.34-3.12,8.87-5.96,13.56-8.53.39-1.94.78-4.65-1.55-5.43Z"/>
  <path class="cls-11" d="M418.67,157.82c.39-2.71-2.33-3.88-3.49-4.65-1.55,0-3.49-2.33-4.26-4.26-1.65,1.82-2.96,3.92-3.88,6.2.78,1.94,1.16,3.88,1.94,5.43,3.49,0,9.3,0,9.69-2.71Z"/>
  <path class="cls-11" d="M545.78,298.49c-11.11-.41-22.18,1.43-32.55,5.43,1.94,1.16,3.88,3.88,7.75,2.33,5.81-1.94,7.75,4.26,5.04,5.81-2.33,1.94-3.49,5.81,1.55,2.71s9.69,1.55,7.75,4.65c-2.33,3.49-5.04.78-4.26,5.43.39,4.65-.39,8.91-4.65,9.69s-5.04-5.43-6.98-5.04.39,11.24-.39,11.24c-2.88.74-5.45,2.37-7.36,4.65.21,0,.38.16.39.37,0,0,0,.01,0,.02,16.28,11.63,20.54,5.04,23.25-.39,3.82-10.23,6.93-20.72,9.3-31.39.74-5.13,1.13-10.31,1.16-15.5Z"/>
  <path class="cls-11" d="M509.74,331.04c.78-1.94-1.55-3.88-4.26-2.71-2.71,1.94-6.2,4.26-8.91,0-2.71-4.65,3.1-5.04,3.1-6.98.39-2.33-1.55-2.71-.78-5.81,1.16-3.49,5.04-2.71,7.75-.78,3.1,1.94,1.94-3.1,1.55-5.04-.19-1.28-.19-2.59,0-3.88-3.42,1.29-6.67,2.98-9.69,5.04-15.5,9.3-15.89,17.44-12.4,20.54,3.1,2.71,10.08,3.88,21.31,11.24.21-3.97.99-7.88,2.33-11.63Z"/>
  <path class="cls-11" d="M460.52,322.12c-7.25-4.38-13.16-10.69-17.05-18.21,0,0,.39-1.55-1.16-1.55-6.77-.38-13.44-1.82-19.76-4.26-11.24-3.88-12.79-1.55-13.95,3.1-2.2,9.26-3.24,18.77-3.1,28.29,0,14.34,6.2,23.25,10.08,22.09,1.94-.78,6.59-3.1,12.01-5.81,0-3.1.39-7.75.39-10.46.78-3.1-3.1-1.94-4.65,0-1.16,1.55-4.26,4.65-6.98,4.26s-4.65-5.43-3.88-9.69c.39-4.65-5.04-6.2-1.55-12.4,3.49-5.81,6.2,1.55,8.91,1.16,3.1-.78,1.55-2.33,0-6.98s4.26-5.81,7.75-2.71c2.33,2.33,3.49-2.71,6.59-1.94,3.49.78,5.43,3.1,3.49,6.59-1.55,2.33-2.71,8.14,0,5.04,3.1-3.1,5.81-5.04,8.53-2.71,2.71,1.94,1.16,6.59.39,8.53-.78,2.33,4.65,5.04.78,7.75s-8.14-1.94-10.46-1.16c-1.94.39-2.33,3.1.39,5.04,1.64,1.3,3.47,2.35,5.43,3.1,5.7-1.97,11.16-4.57,16.28-7.75l3.88.39c0-5.43-.78-8.53-2.33-9.69Z"/>
  <path class="cls-11" d="M438.44,388.39c-2.71-5.43-3.49-1.16-10.08,8.91-6.85,9.44-14.36,18.37-22.48,26.74,7.36,1.16,23.25,5.04,13.56,13.18-10.08,8.53-5.81,7.75-1.16,7.36,4.65-.78,12.4,1.94,6.59,12.4-5.81,10.08-9.69,17.44-15.11,20.54-5.43,3.49-13.56,3.1-15.11-4.65s-6.98,0-7.36,5.04c-.39,5.68-.39,11.37,0,17.05l-11.63-.78c-.14-6.21.12-12.42.78-18.6.78-4.65.39-10.08-6.59-7.75-2.96.91-6.16.64-8.91-.78-13.56,11.63-20.54,20.15-24.8,27.51,3.9,3.79,9.63,4.99,14.73,3.1,6.59-2.71,17.44.39,10.85,10.85-6.59,10.08-6.2,15.11.39,8.91,6.59-6.2,17.05-17.44,20.54-5.81,1.94,7.36-5.04,9.69-4.65,15.89s6.2,12.01-2.33,19.38c-8.53,7.36-12.01-5.04-17.44-3.49-2.85,1.04-4.5,4.01-3.88,6.98,7.36,10.85,18.21,25.96,22.09,32.16,6.2,10.08,6.2,22.09,8.53,20.15s8.14-7.36,10.08-8.91c2.23-1.38,3.33-4.04,2.71-6.59-2.86-10.87-4.03-22.1-3.49-33.33,1.16-13.95,7.75-29.45,12.4-38.36,4.65-8.53,18.6-36.04,22.09-43.01,3.49-7.36,9.69-15.89,10.85-22.48,1.55-6.59,7.36-22.09,9.69-29.45-2.4-11.09-6.04-21.88-10.85-32.16Z"/>
  <path class="cls-11" d="M569.42,522.08c-7.75-12.79-9.3-18.21-10.46-31.39-.39-9.84.13-19.7,1.55-29.45-2.71-.39-5.43,0-5.81,3.88-.49,6.29-2.06,12.46-4.65,18.21-1.94,3.88-7.75,3.88-11.63,3.88-3.49.39-3.49-1.94-1.16-7.36s3.49-7.75,2.71-12.79c-.78-4.65-2.71-.39-5.04,3.88-2.33,3.88-8.14,12.4-15.11,11.63-6.98-1.16-5.04-11.63-4.65-15.11.78-3.49-1.16-4.26-3.88-4.65-2.71-.78-8.53-1.94-5.04-10.85,2.71-8.53,6.2-7.75,10.08-6.2,4.26,1.55,5.04-1.16,1.16-2.71s-8.14-5.04-7.75-8.91c.78-11.24,7.75-10.08,13.18-8.91,5.6.33,11.05-1.96,14.73-6.2v-.78c-8.14-30.61,7.36-68.2,11.24-78.67,7.85-16.89,16.65-33.32,26.35-49.21-3.1-1.55-10.85-5.43-15.5-7.75-4.26-1.94-6.59-3.49-7.75-1.55-1.16,1.55-2.71,2.71-5.04,5.43-3.88,6.2-.39,5.04.39,5.04,1.55,0,6.59,6.59,7.36,8.53,1.16,1.16,0,2.33-1.94,7.36-2.71,6.2-4.65,20.93-7.36,29.45-6.98,26.35-18.6,23.64-23.64,20.54-5.04-3.49-6.59,1.55-11.63,8.91-1.55,1.55-4.65,5.04-8.53,8.91,5.04,2.33,11.63,8.53,3.88,14.73-9.69,7.36-11.24,11.24-6.59,10.08,4.65-.78,8.91-7.75,13.95-2.71,5.04,4.65-1.55,10.08-4.65,11.63-2.71,1.55-8.14,4.26-6.59,10.08,1.55,5.81,2.71,13.56-5.04,15.11-7.36,1.94-10.46-1.16-12.4-5.04-2.33-3.88-4.26-1.16-5.04,3.49-.84,3.3-1.36,6.67-1.55,10.08,0,1.94-5.43-.78-7.75-3.1-2.33-2.71-5.43,3.88-8.14.78-2.71-3.49,3.1-13.56,5.04-17.05s1.16-8.53-10.85-2.71c-3.88,6.59-6.98,15.89-11.63,30.61-7.43,19.97-16.78,39.18-27.9,57.35-16.28,26.35-19.38,50.76-16.66,66.26,2.33,15.11,4.26,13.95,7.75,13.95,3.1,0,11.24,10.08,16.66,16.66,5.43,6.2,7.75,3.49,10.46,1.16,15.88-11.52,32.89-21.38,50.76-29.45,12.4-5.96,25.23-11.01,38.36-15.11.24-4.95.89-9.88,1.94-14.73.39-3.1-2.33-3.88-5.43,0-2.71,3.88-10.85,13.56-16.28,10.85-5.43-2.33-10.08-8.14-6.98-13.56,2.71-5.04-1.16-6.2-3.49-8.91s-2.33-13.56,4.65-14.34c6.59-.78,8.53,5.04,13.18,6.59,4.65,1.16,8.53,1.16,2.71-5.04-5.81-6.59-12.79-3.88-9.3-12.79,3.88-8.53,8.91-8.14,15.11-6.2,5.81,1.55,8.91-1.55,12.79-4.26s11.63-6.2,17.05,0c5.43,6.2-3.88,12.01-6.2,13.95-3.88,4.26-4.65,11.63,0,7.36s12.01-20.93,17.44-7.36c2.71,7.75-2.71,11.24-1.94,15.89,1.16,5.04,9.3,11.24,2.71,17.44-6.59,6.2-16.28,1.16-20.15-2.71-3.88-3.49-8.14-5.43-6.2,1.16,1.27,4.28,1.92,8.71,1.94,13.18,13.18-3.49,24.8-5.81,30.61-5.43,8.53.78,15.11,3.49,14.73-4.65-1.16-8.14-5.43-13.56-13.18-26.35Z"/>
  <path class="cls-12" d="M462.85,575.56c-7.36,2.33-8.53-1.16-13.56-2.71-4.65-1.55-5.04,2.33-1.55,7.36s6.98,10.08,2.71,10.08c-3.88,0-6.98.39-7.36,3.49s-6.98-.39-8.53-6.98c-1.55-6.2-2.71-18.21-6.2-12.4-3.49,6.2-6.2,16.28-14.73,11.63-8.53-4.65-2.71-10.46-6.98-14.73s-8.53-9.69-3.88-17.44c3.88-7.36,7.75-1.16,11.63-1.16s4.65-3.49,1.16-6.2c-3.88-2.71-8.14-15.89,8.53-14.73,6.64-.02,13.13-2.04,18.6-5.81,5.43-3.88,19.38-1.94,13.56,8.14-5.81,10.08-3.88,12.01-.39,8.53,3.49-3.88,7.75-10.08,13.95-8.53s3.49,6.59-.39,12.01-1.55,8.91,1.55,11.24c2.71,2.33,8.53,13.56-8.14,18.21Z"/>
  <path class="cls-12" d="M493.08,504.64c-4.04.09-8.07-.3-12.01-1.16-.39,5.81-5.81,13.95-11.63,22.48-.39.78-3.88.78-5.43-.39-1.16-1.16-5.81-3.49-2.33-6.98s8.91-11.24,7.75-14.73c-.78-3.1-3.49-6.2-6.98-1.55s-9.3,13.95-15.89,13.95c-6.2.39-12.4-5.04-9.69-10.85,3.1-5.81,3.88-8.91,0-13.95-4.26-5.04-2.71-11.63,6.2-15.89,3.84-.9,7.88.11,10.85,2.71,3.49,2.71,5.04,0,.39-2.71-4.26-2.71-8.14-5.81-8.53-12.01-.39-5.81,2.71-11.63,10.85-8.53,5.2,2.66,11.48,1.89,15.89-1.94,3.49-2.71,17.44-6.2,15.5,6.2-1.55,8.91-5.81,9.3-6.98,13.95-1.55,5.04,2.33,1.55,4.26-1.55,2.33-3.88,7.36-18.6,17.05-7.36,2.33,2.71,1.55,7.36-1.55,12.4-2.71,5.04-.39,8.14,1.55,10.85,1.94,3.1,5.81,16.28-9.3,17.05Z"/>
  <polygon class="cls-10" points="741.47 265.55 750.77 258.96 770.53 288.41 782.55 280.27 762.01 251.21 770.92 245.01 792.62 275.23 804.64 267.1 772.08 221.76 718.61 259.73 748.06 301.2 760.07 293.06 741.47 265.55"/>
  <polygon class="cls-10" points="779.84 368.24 797.27 360.1 785.65 334.14 826.34 317.09 818.97 300.42 761.23 325.61 779.84 368.24"/>
  <polygon class="cls-10" points="790.3 395.75 792.24 411.64 830.99 407.38 832.54 424.04 849.59 422.88 845.32 366.3 827.89 367.85 829.05 391.1 790.3 395.75"/>
  <polygon class="cls-10" points="792.24 450.78 792.62 469.77 849.59 469.77 849.2 450.39 792.24 450.78"/>
  <path class="cls-10" d="M819.36,496.89c-10.08-2.02-20.54.08-29.06,5.81-6.75,4.88-11.23,12.29-12.4,20.54-.87,7.29-.21,14.68,1.94,21.7l15.11-5.04c-1.71-4.47-1.84-9.39-.39-13.95,3.1-10.46,11.24-15.11,21.7-13.56,10.85,1.94,16.66,11.63,14.73,23.25-.84,5.2-3.97,9.76-8.53,12.4l9.3,10.85c7.34-4.55,12.62-11.77,14.73-20.15,1.94-10.85-.78-18.21-5.81-27.13-4.59-7.81-12.39-13.19-21.31-14.73Z"/>
  <path class="cls-10" d="M808.9,576.33c-8.14-1.94-18.99,6.98-24.03,11.63-3.1,3.1-13.56,13.56-18.6,12.01-4.26-1.55-2.71-8.14-1.16-12.4,1.56-6.13,5.27-11.49,10.46-15.11l-9.69-3.88c-5.34,4.22-9.37,9.86-11.63,16.28-2.49,6.54-3.42,13.57-2.71,20.54,1.16,6.98,3.88,11.63,11.63,10.85,5.81-.39,20.93-10.46,29.84-18.6,4.26-3.88,8.14-4.65,10.08-3.49,3.1,1.55,2.71,7.36,1.94,10.46-1.55,4.65-3.88,11.63-7.36,14.34l12.79,8.53c5.12-5.78,8.48-12.91,9.69-20.54,3.49-18.21-6.2-29.45-11.24-30.61Z"/>
  <path class="cls-10" d="M737.21,198.51c-1.19-8.67-4.98-16.77-10.85-23.25-7.25-6.24-16.96-8.82-26.35-6.98-9.69,1.41-18.37,6.73-24.03,14.73-5.82,8.2-8.18,18.36-6.59,28.29,1.94,8.91,5.81,13.95,13.95,19.76,6.27,3.83,13.26,6.34,20.54,7.36l1.55-15.89c-4.91-.15-9.59-2.07-13.18-5.43-7.49-6.24-9-17.15-3.49-25.19,6.59-8.91,17.83-10.46,27.9-3.88,3.88,2.71,5.43,6.59,6.2,13.18l14.34-2.71Z"/>
  <path class="cls-10" d="M155.16,526.73c.39-4.65.39-12.4,4.65-13.18,4.65-1.16,7.75,3.49,8.53,7.75,1.55,6.59,3.1,11.63.78,17.44l12.01-1.16c1.75-6.47,1.75-13.29,0-19.76-1.16-6.74-4.58-12.89-9.69-17.44-5.04-4.65-8.91-5.81-16.66-4.26-4.65.78-13.18,9.3-13.56,25.96,0,3.1-.78,9.3-3.49,9.69-3.49,0-6.2-4.26-6.98-7.75-.94-6.39-.27-12.92,1.94-18.99h-12.4c-2.12,8.09-2.52,16.54-1.16,24.8,3.49,16.28,13.56,21.7,21.31,20.54,8.91-1.16,13.56-10.08,14.73-23.64Z"/>
  <polygon class="cls-10" points="129.59 457.37 174.93 456.98 174.54 443.03 129.59 443.42 129.59 424.43 114.86 424.43 115.64 478.29 129.97 477.9 129.59 457.37"/>
  <polygon class="cls-10" points="210.97 316.7 176.09 296.55 176.48 296.55 222.2 295.77 233.05 278.72 176.86 246.17 167.95 259.35 206.7 283.76 154 284.92 146.64 299.26 202.44 331.42 210.97 316.7"/>
  <path class="cls-10" d="M154.78,349.64c9.95-.1,18.1,7.88,18.21,17.83.1,9.95-7.88,18.1-17.83,18.21-.13,0-.25,0-.38,0-9.95.1-18.1-7.88-18.21-17.83s7.88-18.1,17.83-18.21c.13,0,.25,0,.38,0ZM154.78,402.34c19.26,0,34.88-15.61,34.88-34.88s-15.61-34.88-34.88-34.88-34.88,15.61-34.88,34.88c.06,19.24,15.64,34.82,34.88,34.88Z"/>
  <path class="cls-10" d="M177.25,614.31c-9.95-.11-17.93-8.26-17.83-18.21.11-9.95,8.26-17.93,18.21-17.83,9.95.11,17.93,8.26,17.83,18.21h0c-.29,9.87-8.34,17.75-18.21,17.83ZM212.13,596.48c0-19.26-15.61-34.88-34.88-34.88s-34.88,15.61-34.88,34.88,15.61,34.88,34.88,34.88c19.18-.19,34.68-15.7,34.88-34.88h0Z"/>
  <path class="cls-10" d="M242.74,677.47l-1.55-1.55c-3.88-4.65-16.66-18.21-11.24-23.25,5.04-4.65,17.05,11.24,20.54,15.5l1.55,1.55-9.3,7.75ZM221.04,696.85c-4.65-5.43-18.6-16.28-12.4-21.7,5.43-5.43,19.38,11.24,20.93,13.56l-8.53,8.14ZM219.1,636.01c-6.24,6.28-7.51,15.96-3.1,23.64-5.43-2.71-16.28-3.88-21.31.78-12.79,10.85,2.71,26.35,15.11,38.75l17.44,17.44,46.11-38.36-18.6-21.7c-6.98-8.14-25.19-29.84-35.65-20.54h0Z"/>
</svg>