<?xml version="1.0" encoding="UTF-8"?><svg id="uuid-3ec14b66-38e3-4c14-b85a-61a4401e95ee" xmlns="http://www.w3.org/2000/svg" viewBox="0 0 261.91 267.17">
<title>Brooklyn Nets 2012-2024 logo - Brandlogos.net</title><g id="uuid-832a7cdc-e6be-4cd3-b44d-61b4d804da41"><g id="uuid-fa26a03b-44a7-4801-9058-3509b508af9b"><g id="uuid-ca17d2bb-0ed3-4664-ac16-796c5f7b1e8d"><g id="uuid-33683f02-3fa9-433e-9d21-b9cdb82276f6"><path id="uuid-f4f10bdf-12c8-4e26-ac3c-33dd6f5b9ae8" d="M261.86,41.54l.02-11.84-6.99-3.53c-2.12-1.06-52.61-26.16-122.36-26.16h-3.15C59.35,0,9.12,25.11,7.04,26.16L.03,29.69l.02,11.6c-.57,29.74,3.14,105.28,49.54,164.2,37.88,48.13,74.18,59.55,78.19,60.68l3.49,1,3.47-.97c1.56-.44,38.65-11.27,77.56-60.7,46.45-58.94,50.14-134.22,49.56-163.96" style="fill:#fefefe;"/></g><path id="uuid-3e5c7b87-bcca-402d-a496-d2adb1d023ce" d="M254.42,41.59c.02-2.62.02-4.1.02-4.1v-3.22l-2.91-1.47c-2.04-1.03-51.01-25.36-119-25.36h-3.15C61.43,7.44,12.42,31.76,10.38,32.8l-2.92,1.47v3.22s0,1.48.03,3.95c-.55,28.93,3,102.39,47.94,159.46,36.46,46.32,70.62,57.06,74.39,58.13l1.46.42,1.45-.42c1.48-.41,36.28-10.57,73.73-58.14,44.99-57.09,48.53-130.46,47.96-159.3" style="fill:#2d2925;"/><path id="uuid-d0ce8ce6-3447-468f-a720-aad76b9a802d" d="M131.28,251.59c-2.77-.8-35.29-10.79-70.23-55.2C14.99,137.92,14.79,61.37,15.14,43.34c-.02-2.53-.02-3.96-.02-3.96,0,0,.04-.02.14-.07v-.15l1.03-.48c2.45-1.11,7.9-3.5,15.79-6.33,19.62-7.18,54.77-17.26,97.31-17.26h3.1c42.46,0,77.52,10.03,97.17,17.2,7.99,2.86,13.5,5.27,15.96,6.39l1.03.47v.16c.08.05.14.07.14.07,0,0,0,1.43-.03,3.96.36,18.03.17,94.58-45.9,153.04-35.03,44.5-66.92,54.47-69.58,55.2M203.24,198.35c44.02-55.88,47.48-127.85,46.9-156.2.02-2.64.02-4.1.02-4.1v-1.07l-.96-.48c-2-1.02-49.95-24.83-116.69-24.83h-3.15C62.69,11.67,14.71,35.48,12.69,36.5l-.97.48v1.07s0,1.46.04,3.94c-.54,28.45,2.94,100.5,46.92,156.36,35.55,45.17,68.5,55.55,72.13,56.57l.49.13.48-.13c1.41-.39,34.93-10.18,71.47-56.57" style="fill:#fefefe;"/><path id="uuid-a43a38a0-8c9e-4ff8-abb8-052f94fada83" d="M216.08,75.51c-16.36-16.92-18.25-19.66-18.25-26.62s3.01-7.81,5.97-7.81c1.53,0,3.43.31,5.61.94,11.84,3.4,11.84,9.86,11.84,14.65v6.87c0,.54.36,1.03.87,1.21,2.86.97,4.29,1.48,7.29,2.59.39.14.83.09,1.17-.14.35-.25.55-.64.55-1.06v-5.74c0-7.25,0-19.39-21.17-25.46-14.8-4.24-22.36.3-22.36,13.14,0,10.67,6.54,17.05,17.38,27.63l2.19,2.14c12.86,12.6,15.46,16.75,15.46,24.74,0,2.86-.43,4.87-1.32,6.12-.91,1.28-2.36,1.87-4.57,1.87-1.72,0-3.89-.38-6.45-1.11-5.64-1.62-9.73-3.83-12.15-6.57-2.96-3.33-2.96-6.15-2.96-11.79v-6.1c0-.6-.42-1.11-.99-1.25-3.17-.71-4.68-1.03-7.72-1.63-.37-.07-.77.03-1.06.27-.3.25-.46.61-.46.99v10.79c0,10.15,8.29,17.88,24.01,22.36,4.43,1.27,8.26,1.9,11.39,1.9,12.31,0,12.31-9.91,12.31-14.14,0-11.16-5.68-17.55-16.57-28.8M183.14,29.63c-15.63-2.86-31.6-4.41-47.47-4.59-.35-.01-.68.13-.91.36-.25.25-.38.57-.38.91v4.91c0,.7.56,1.27,1.26,1.29,7.44.08,11.26.25,18.31.8v70.96c0,.67.5,1.23,1.17,1.29,3.11.25,4.62.39,7.75.73.04.01.1.02.13.02.32,0,.62-.12.86-.33.27-.25.43-.59.43-.96V34.31c7.06.8,10.94,1.38,18.39,2.74.38.07.77-.04,1.06-.28.28-.24.45-.6.45-.98v-4.9c0-.62-.43-1.15-1.04-1.26M127.83,25.17c-13.29.22-26.71,1.4-39.86,3.51-.62.1-1.08.64-1.08,1.26v76.94c0,.38.17.74.45.98.24.19.54.3.83.3.06,0,.13,0,.19,0,12.98-2.08,26.21-3.26,39.35-3.48.69,0,1.26-.58,1.26-1.28v-4.79c0-.34-.13-.68-.39-.91-.24-.24-.6-.37-.92-.36-12.3.21-18.87.67-30.63,2.2v-30.45c9.76-1.26,14.92-1.69,25.12-2.06.68-.03,1.24-.6,1.24-1.29v-4.69c0-.35-.14-.68-.4-.92-.25-.24-.58-.38-.94-.36-9.99.37-15.37.8-24.86,2.03v-27.06c11.96-1.57,18.22-2.01,30.67-2.21.7,0,1.26-.58,1.26-1.28v-4.79c0-.35-.14-.68-.38-.91-.25-.25-.59-.38-.92-.37M76.88,30.68c-3.07.62-4.55.94-7.55,1.63-.59.13-1,.66-.99,1.27l.62,55.96c0,3.72.1,7.13.25,10.18-7.56-19.33-15.46-39.35-23.47-59.61-.26-.63-.96-.97-1.61-.74-4.46,1.48-6.63,2.24-11.02,3.9-.49.18-.83.67-.83,1.19v76.95c0,.42.2.82.55,1.06.21.15.47.23.74.23.14,0,.3-.03.45-.09,2.71-1.03,4.08-1.52,6.97-2.53.51-.18.86-.66.86-1.2-.1-18.21-.21-36.41-.3-54.6,0-4.79-.06-7.47-.22-10.86,7.9,20.08,15.59,39.74,22.88,58.56.25.6.88.94,1.51.77,4.68-1.15,6.98-1.66,11.68-2.61.59-.13,1.03-.65,1.03-1.26V31.94c0-.39-.18-.75-.47-1-.3-.24-.7-.33-1.06-.26" style="fill:#fefefe;"/><path id="uuid-1ddbaa11-e1d3-492d-8a6d-af793054aac1" d="M174.09,204.84c-.74.51-1.48,1.06-2.31,1.62-2.16,1.5-4.25,2.77-6.5,4.11-1.03.64-2.11,1.27-3.22,1.96-7.66,4.74-16.83,9.99-26.67,13-2.85.88-5.47,1.52-8.02,1.93-2.37.34-4.59.52-6.8.52h-.42c-2.91-.02-5.73-.3-8.43-.8,10.29,3.65,21.72,4.44,33.1,1.61,6.51-1.61,12.5-4.29,17.79-7.79,5.08-3.97,9.18-9.61,11.82-16.42-.11.08-.22.16-.33.25h0ZM121.99,225.11c6.54-.77,11.95-2.42,18.11-5.52.9-.44,1.78-.9,2.66-1.36.75-.39,1.49-.78,2.25-1.16,5.23-2.74,10.85-5.71,17.64-9.35,2.39-1.28,4.77-2.65,7.09-3.96l2.71-1.51c1.05-.56,2.03-1.09,3.03-1.69.09-.06.21-.13.33-.21.87-3.17,1.44-6.62,1.7-10.26-6.67,3.34-16.69,6.27-31.39,9.22-18.83,3.74-37.25,2.07-53.69-4.87-11.05-4.65-16.27-11.1-18.46-14.65.28,2.53.72,5.05,1.36,7.59,3.63,14.33,12.42,26.04,23.95,33.62l-.05-.1,1.62.95c1.31.78,2.94,1.46,4.85,2.01,3.59,1.07,7.12,1.6,10.83,1.6,1.74,0,3.55-.12,5.49-.34h0ZM180.66,200.99c-.04-.23-.1-.24-.22-.24-.18,0-.57.08-1.38.59-.14.11-.3.21-.46.32-.13.09-.28.18-.39.27-1.43,3.78-3.32,7.36-5.49,10.55,3.15-3.34,5.87-7.06,8.11-11.04h-.07l-.1-.45ZM182.86,186.79c-.2.14-.39.28-.59.43-.31.23-.63.47-.97.7-.27,3.63-.94,7.23-1.97,10.71,1.8-.63,2.42.1,2.6.51.01.06.03.13.04.19,2.97-5.82,4.92-12.15,5.73-18.73-.91,2.2-2.4,4.49-4.85,6.19h0ZM181.47,183.67c.14-.1.28-.21.41-.3,4.82-3.34,6.06-8.78,6.23-9.67,0-4.56-.56-9.18-1.74-13.8-.04-.19-.09-.36-.15-.55-.44,4.24-2.53,8.16-6.22,11.67.98,4.23,1.46,8.47,1.46,12.64h0ZM95.67,190.6c13.58,4.47,21.12,5.91,31.03,5.91,3.61,0,7.71-.22,12.94-.65,14.48-1.25,29.74-6.03,37.94-10-.01-3.98-.38-8.02-1.09-12.03-2.43,1.47-5.18,2.16-8.57,2.16s-7.52-.65-14.21-2.25c-7.9-1.87-19.2-8.6-29.16-14.52-5.47-3.26-10.63-6.34-14.9-8.44-16.27-8.04-25.5-6.91-27.97-6.38-5.81,9.66-8.73,21.01-7.98,32.71,1.09,1.56,6.66,8.47,21.96,13.51h0ZM103.97,144.06c5.53,2.31,12.79,6.2,20.46,10.32,12.1,6.5,24.61,13.22,33.08,15.33,7.55,1.87,13.74,1.7,18.09-.48-.01-.08-.03-.17-.05-.25-.05-.32-.11-.62-.21-.93-3.67-15.42-22.98-49.17-56.41-49.17-1.41,0-2.85.07-4.28.2-12.92,3.75-23.56,11.68-30.77,21.94,1.22-.39,2.82-.74,4.99-.74,4.08,0,9.16,1.26,15.09,3.77h0ZM178.9,166.81c.88-.91,1.56-1.9,2.09-2.94,4.04-7.76.42-16.46-1.1-19.48-11.24-18.54-32.46-29.46-54.59-27.33,22.91,1.23,45.1,21.73,53.6,49.76h0Z" style="fill:#fefefe;"/><path id="uuid-09111db9-2558-463d-b95a-81e77fc6f17e" d="M153.52,185.27c0-4.17,0-10.37-4.94-15.18.54-.94.99-1.95,1.34-3.04.83-2.48.89-5.2.85-6.97l-.02-11.48v-.18c-.13-4.27-.78-8.78-4.27-12.7-3.13-3.52-7.84-5.37-13.62-5.37l-15.59.04c-1.7,0-3.38.66-4.62,1.9-1.2,1.21-1.91,2.86-1.91,4.61l.15,75.37c0,2.24,1.15,4.32,3.06,5.47,1.06.64,2.26,1,3.53,1l15.85-.03c5.73-.01,10.51-1.64,14.25-4.86l.05-.03c5.23-4.69,5.78-10.21,5.92-15.5v-.06l-.03-12.99Z" style="fill:#fefefe;"/><path id="uuid-1ef0fde0-b614-47b6-8623-440a90753a6f" d="M132.52,166.65c-1.34.38-1.99.49-4.89.59h-2.89c-.5.02-.63-.22-.63-.59,0-.23-.03-24.22-.03-24.22,0-.39.13-.62.54-.66h4.84c2.14.07,4.52.13,6.05,1.08.71.43,1.14.95,1.4,1.64.21.72.42,1.97.54,4.1l.03,9.38c-.03.16-.03.4-.03.71-.07,2.42-.12,6.53-4.92,7.97h0ZM138,205.78c-1.17.83-2.58,1.31-6.21,1.44,0,0-6.22.01-6.71.01-.56,0-.78-.34-.78-.88,0-4.59-.06-29.86-.06-30.07,0-.24.06-.56.54-.56s3.13-.03,3.13-.03c3.3.16,6.75.42,9,1.84,1.29.79,2.17,1.89,2.73,3.37.5,1.52.59,3.19.59,4.75l.02,11.15c0,5.08-.32,7.48-2.26,8.98h0ZM149.48,185.79c0-4.22,0-9.37-4.39-13.01-.91-.77-2.02-1.43-3.32-1.95,2.03-1.37,3.42-3.25,4.19-5.61.71-2.12.67-4.73.65-5.76l-.03-11.97c-.12-3.32-.48-7.09-3.16-10.15-2.37-2.63-5.97-3.98-10.54-3.97l-16.25.04c-.48,0-.94.19-1.31.55-.36.34-.53.8-.53,1.28l.14,78.65c0,.62.32,1.25.87,1.57.3.19.66.29,1.03.29l16.54-.04c1.75,0,7.14-.01,11.63-3.84,3.98-3.6,4.38-7.84,4.5-12.61l-.03-13.45Z" style="fill:#2d2925;"/></g></g></g></svg>