<?xml version="1.0" encoding="UTF-8"?><svg id="uuid-e680847c-e817-4408-baf5-d7cf6eb71331" xmlns="http://www.w3.org/2000/svg" viewBox="0 0 85.39 73.47">
<title>Cleveland Cavaliers logo - Brandlogos.net</title><g id="uuid-4e1209f1-03fa-4baf-9609-6ff0239ed3b3"><g id="uuid-1aa72d60-f6c8-4835-babc-f568d4c8579f"><path d="M85.39,14.63v-6.27l-1.53-1.55C64.17-11.92,22,12.67,7.69,24.52L.62,35.52l8.79-2.18C-4.1,50.25.73,61.36,1.3,62.51c1.42,4,4.67,7.2,9.93,9.3,4,1.6,8.53,1.79,12.42,1.61,16.79-.78,36.64-11.25,49.46-22.42l.3-.26,2.59-12.84-5,2.77c-10.18,4.49-20.6,8.43-31.21,11.8-9.11,2.84-13.29,3.3-16.27,2.61l-.39-.08c-.56-.18-.95-.68-1-1.26-.14-5.7,9.66-18,14.6-23.25,4.6-4.94,11.83-10.36,17.95-12.94,4.1-1.72,6.74-2.41,8-2.28-.46,1.38-1.02,2.72-1.7,4,0,0-4.76,9.39-6.34,12.49-.08.16,0,.35.15.43.09.04.2.04.29,0l30.31-17.55Z" style="fill:#b4975a;"/><path d="M46.51,13.71c-5.65,3-12.12,9-14.15,11.13-16.51,17.59-28.08,41.09,8.08,29.83,10.71-3.4,21.22-7.38,31.5-11.92C22.55,84.47-24.07,67,21.81,23.16c-4.18.95-8.39,1.86-12.52,3C24,14,64.27-8.66,82.26,8.46l-19.26,11.78c8.25-16.17-6.61-12.37-16.53-6.53" style="fill:#72253d;"/></g></g></svg>