<?xml version="1.0" encoding="UTF-8"?><svg id="uuid-7c607fe6-9ad2-4bd4-94d5-16468db4e379" xmlns="http://www.w3.org/2000/svg" viewBox="0 0 299.61 299.61">
<title>Denver Nuggets logo - Brandlogos.net</title><path d="M149.88,0c82.66.14,149.63,67.14,149.73,149.81,0,82.62-67.19,149.81-149.73,149.81C67.16,299.67.05,232.65,0,149.93c-.03-39.77,15.77-77.92,43.89-106.03C71.94,15.69,110.11-.12,149.88,0" style="fill:#ffc627;"/><path d="M149.88,287.7c75.95,0,137.75-61.79,137.75-137.9S225.83,11.99,149.88,11.99c-76.1-.07-137.9,61.79-137.9,137.75s61.79,137.97,137.9,137.97" style="fill:#8b2332;"/><path d="M22.17,149.73c0-70.33,57.3-127.56,127.63-127.56,70.47.01,127.59,57.15,127.57,127.62-.01,70.45-57.12,127.56-127.57,127.57-70.33.07-127.63-57.23-127.63-127.63" style="fill:#0d2240;"/><path d="M250.33,96.33l2.85-1.57-9.14-14.23-2.55,1.87c-15.58-19.7-43.29-41.65-69.66-44.94,19.85,9.06,42.17,32.21,55.8,50.04l-14.31,10.41,1.72,2.62-64.72,42.02-64.72-42.02,1.72-2.62-14.38-10.41c13.71-17.83,35.95-40.97,55.88-50.04-26.29,3.3-54,25.24-69.51,44.87l-2.7-1.95-9.14,14.16,2.85,1.65-.07.15c-11.39,22.4-19.77,56.93-11.61,82.24-.22-21.87,11.53-51.91,22.1-71.91l15.43,8.69,1.57-2.47,60.07,37.75-79.25,51.53-.15-.15-10.64,2.85.15.3c-.52,1.95.45,5.62,2.7,9.14,2.25,3.6,5.09,5.92,7.27,6.37l.15.3,7.04-8.54-.07-.15,157.82-99.25,1.57,2.47,15.5-8.69c10.56,20,22.32,50.11,22.17,71.91,8.09-25.39-.37-60-11.76-82.39" style="fill:#ffc627;"/><path d="M242.16,202.01l-.15.15-72.88-47.34-12.73,7.57,79.17,49.81-.07.15,7.04,8.54.22-.3c2.1-.37,4.94-2.77,7.27-6.37,2.17-3.52,3.22-7.12,2.7-9.14l.15-.3-10.71-2.77Z" style="fill:#ffc627;"/><polygon points="162.76 50.19 157.3 57.38 149.73 39.25 149.73 122.92 175.2 90.26 200.82 96.92 162.76 50.19" style="fill:#ffc627;"/><polygon points="162.76 69.81 162.76 50.19 157.3 57.38 162.76 69.81" style="fill:#fff;"/><polygon points="149.73 39.25 103.52 95.65 123.89 90.41 149.73 122.92 149.73 39.25" style="fill:#fff;"/><path d="M122.62,250.18c6.5-6.26,14.92-10.14,23.89-11.01v-12.51h-34.53c.68,8.84,4.44,17.17,10.64,23.52" style="fill:#ffc627;"/><path d="M146.44,261.79v-14.83c-6.7.82-12.98,3.7-17.98,8.24,5.35,3.66,11.53,5.92,17.98,6.59" style="fill:#ffc627;"/><path d="M154.15,185.01v14.76c6.69-.77,12.96-3.66,17.9-8.24-5.34-3.61-11.49-5.85-17.9-6.52" style="fill:#fff;"/><path d="M177.97,196.62c-6.47,6.24-14.87,10.09-23.82,10.94v11.39h34.46c-1.04-8.4-4.77-16.23-10.64-22.32" style="fill:#fff;"/><path d="M146.44,199.77v-14.76c-6.43.64-12.59,2.91-17.9,6.59,4.97,4.52,11.23,7.37,17.9,8.16" style="fill:#fff;"/><path d="M154.15,226.66v12.51c8.97.82,17.38,4.71,23.82,11.01,6.24-6.32,10.04-14.66,10.71-23.52h-34.53Z" style="fill:#ffc627;"/><path d="M111.98,218.94h34.46v-11.39c-8.96-.87-17.37-4.72-23.89-10.94-5.85,6.1-9.55,13.93-10.56,22.32" style="fill:#fff;"/><path d="M154.15,261.79c6.43-.64,12.59-2.91,17.9-6.59-4.95-4.57-11.21-7.45-17.9-8.24v14.83Z" style="fill:#ffc627;"/></svg>