<svg xmlns="http://www.w3.org/2000/svg" width="273.67709" height="362.81266" viewBox="0 0 273.67709 362.81266"><title>Houston Rockets</title><path d="M183.8075,168.44391l.37791-32.47039c-.04535-15.2375-15.8724-17.79221-27.57263-17.59568,7.8455-2.60006,17.27823-7.02921,24.12605-14.42121,7.16527-6.62105,12.27465-15.948,11.39789-29.02381-1.49655-22.02484-29.02381-32.98435-74.67585-28.5552-.75583.07559-1.49654.15117-2.23726.22675A234.33811,234.33811,0,0,0,104.67227,0L102.4199,2.25237c-6.06174,18.82012-9.68972,33.83088-11.806,47.75324A363.71442,363.71442,0,0,0,44.28158,60.95l-2.25237,2.25237S64.05405,61.207,89.16267,61.55466c-2.79657,28.54008.04534,55.65921-.03023,106.87413-40.55776-1.14886-76.15727,5.59313-84.8493,16.43172-2.857,2.35818-4.3838,4.94311-4.278,7.72456.43839,12.4107,37.32281,23.82372,89.15752,28.17729l2.207,70.39787,2.25237-2.25238,3.6431-47.73812a8.34682,8.34682,0,0,1,.257-2.01051c1.08839.15118,2.11632,1.5419,2.11632,3.96054l1.60235,62.8698,2.25237-2.25238,3.86983-51.16959a9.92052,9.92052,0,0,1,.33257-2.82679c1.10351.19652,2.1012,1.79887,2.02561,4.68614l1.78376,65.54544L113.7573,317.72l3.08379-95.38555q8.9339.2721,18.23057.28722c6.54548,0,13.00025-.10582,19.319-.31746l3.12914,99.45189,2.25237-2.25237,2.67564-52.04636a9.72457,9.72457,0,0,1,.31746-2.61516c1.02792.22674,1.96516,1.75353,1.95,4.44428l2.69074,72.99789,2.23725-2.25238,2.721-63.06632a8.48754,8.48754,0,0,1,.3628-2.28259c1.3-.01511,2.60005,1.52676,2.66051,4.55008l2.23725,83.57949,2.25237-2.25238L183.15749,220.596c44.29155-3.86984,77.92591-12.80374,86.25513-23.06787,2.76634-2.32795,4.24776-4.73149,4.24776-7.18037C273.0557,176.69756,232.07468,166.17643,183.8075,168.44391ZM88.69406,205.94812c-35.50882-3.41633-59.49881-10.62694-59.49881-19.74223a3.758,3.758,0,0,1,.55931-1.9198c8.31411-5.85011,33.83088-9.53855,59.37787-13.37816C89.1022,180.9302,88.69406,205.94812,88.69406,205.94812ZM161.02682,83.71555c1.34537,10.05252-1.52677,17.62592-6.71176,23.3551-9.26645,8.40481-23.79348,12.2293-35.59952,13.96771.21163-18.95618-.07559-38.638-1.72329-57.95692C139.80317,65.53032,159.364,71.27462,161.02682,83.71555Zm-6.65128,124.15236q-8.34435.24942-17.08173.257c-6.8478,0-13.52932-.12093-19.99921-.34767l.257-8.08738c-.60467-20.49806.66513-46.21134,1.08839-73.663,16.62823,1.91979,36.68792,6.66641,36.34024,18.36663Zm88.311-15.81192c-8.26876,6.53037-30.27848,11.56417-59.31742,14.14911l.40816-34.91927c33.24134,4.33846,60.2244,9.19088,60.2244,17.17243A6.00184,6.00184,0,0,1,242.68652,192.056Z" fill="#ffd520"/><path d="M273.67548,190.33271c-.31745-13.63515-41.6008-24.15627-89.868-21.88879l.37791-32.47038c-.06046-20.08992-27.57263-18.13988-36.83908-16.90032,10.82346-1.95,47.02765-10.98974,44.79039-44.14038-1.49655-22.02484-29.02381-32.98435-74.67585-28.55519-.75583.07558-1.49654.15116-2.23726.22674A234.338,234.338,0,0,0,104.67227,0c-6.349,19.68177-10.0374,35.20649-12.09326,49.673A365.207,365.207,0,0,0,44.28158,60.95S66.30642,58.95461,91.415,59.30229c-2.84191,28.96335.136,56.46039-.04535,109.187-47.98-1.69306-89.64124,7.649-89.12728,21.82833.42327,12.41071,37.32281,23.8237,89.15752,28.17728l2.207,70.38273,3.6431-47.73812c.10582-5.92569,4.62567-5.38149,4.62567-.28722l1.61747,62.8698L107.363,252.5525c-.06047-6.90828,4.77684-6.57571,4.61055-.393l1.78376,65.54544,3.15936-97.69838q9.97693.36281,20.39224.3628c6.54548,0,13.00026-.10582,19.319-.31746l3.12914,99.43678,2.67564-52.04633c.04535-6.63617,4.535-6.2885,4.51987-.40815l2.69074,72.99789,2.721-63.06632c.21163-6.1978,5.16986-5.92569,5.27569,0l2.25238,83.57952L183.218,218.52512C235.62709,214.18665,273.9627,202.75853,273.67548,190.33271ZM163.27919,81.4783c3.70356,27.54239-24.383,36.59721-44.56363,39.57518.21163-19.77248-.0907-40.34613-1.93492-60.45116C140.61946,62.8698,161.5408,68.58387,163.27919,81.4783ZM29.19525,186.221c0-8.40481,31.07965-12.8642,62.18955-17.53522-.03023,10.00717-.1814,20.92134-.51395,32.9239L91.022,206.19C54.2434,202.84922,29.19525,195.51768,29.19525,186.221Zm88.11447,21.55622.257-8.08738c-.6349-21.11784.74071-47.75323,1.11862-76.15727,16.991,1.75353,38.91005,6.37919,38.54725,18.60849l-.61979,65.68148c-6.25826.21163-12.713.31746-19.30386.31746C130.46113,208.12489,123.77961,208.004,117.30972,207.77722ZM183.354,206.2051l.45351-37.45885c34.25414,4.414,62.44653,9.32692,62.44653,17.47475C246.254,195.54792,220.58611,202.89457,183.354,206.2051Z" fill="#ce0e2d"/></svg>