<svg xml:space="preserve" style="max-height: 500px" viewBox="73.44 57.28 261.6 207.20000000000002" y="0px" x="0px" id="Layer_1" version="1.1" xmlns="http://www.w3.org/2000/svg" width="261.6" height="207.20000000000002"><metadata id="metadata81">image/svg+xml</metadata><defs id="defs79"/>
<style id="style2" type="text/css">
	.st0{fill:#12173F;}
	.st1{fill:#5D76A9;}
	.st2{fill:#707271;}
	.st3{fill:#FFBB22;}
</style>
<g id="g74">
	<path style="fill:#12173f;stroke-width:0.90719259" id="path4" d="m 129.87401,326.56118 c 0,-3.2659 -2.63085,-5.89676 -5.89675,-5.89676 h -11.06775 v 20.86543 h 4.89884 v -6.53178 h 4.53597 c 1.4515,0 2.63085,1.17935 2.63085,2.63086 v 3.8102 h 4.89884 v -3.8102 c 0,-1.72367 -0.54431,-3.2659 -1.54222,-4.53597 1.08863,-1.08863 1.72366,-2.54014 1.72366,-4.2638 v -2.26798 z m -5.89675,-1.08863 c 0.54432,0 1.08863,0.45359 1.08863,1.08863 v 2.3587 c 0,0.63503 -0.54431,1.27007 -1.27007,1.27007 h -6.07819 v -4.62669 h 6.25963 z" class="st0"/>
	<polygon style="fill:#12173f" transform="matrix(0.90719258,0,0,0.90719258,18.561485,18.569299)" id="polygon6" points="229.7,333 229.7,350.6 243.4,350.6 243.4,356 224.3,356 224.3,333" class="st0"/>
	<polygon style="fill:#12173f" transform="matrix(0.90719258,0,0,0.90719258,18.561485,18.569299)" id="polygon8" points="277.4,356 296.5,356 296.5,350.6 282.8,350.6 282.8,346.9 294.6,346.9 294.6,341.5 282.8,341.5 282.8,338.3 296.5,338.3 296.5,333 277.4,333" class="st0"/>
	<polygon style="fill:#12173f" transform="matrix(0.90719258,0,0,0.90719258,18.561485,18.569299)" id="polygon10" points="156.5,338.3 156.5,333 177.1,333 165.3,350.6 175.9,350.6 175.9,356 155.2,356 167.1,338.3" class="st0"/>
	<polygon style="fill:#12173f" transform="matrix(0.90719258,0,0,0.90719258,18.561485,18.569299)" id="polygon12" points="189.7,338.3 189.7,333 210.4,333 198.5,350.6 209.2,350.6 209.2,356 188.5,356 200.3,338.3" class="st0"/>
	<rect style="fill:#12173f;stroke-width:0.90719259" id="rect14" height="20.865429" width="4.89884" class="st0" y="320.66443" x="251.43784"/>
	<rect style="fill:#12173f;stroke-width:0.90719259" id="rect16" height="20.865429" width="4.89884" class="st0" y="320.66443" x="142.84686"/>
	<rect style="fill:#12173f;stroke-width:0.90719259" id="rect18" height="20.865429" width="4.89884" class="st0" y="320.66443" x="142.84686"/>
	<g transform="matrix(0.90719258,0,0,0.90719258,18.561485,18.569299)" id="g22">
		<path style="fill:#12173f" id="path20" d="m 228.1,282.6 h -19.6 v 42.1 h 9.7 v -13.6 h 9.9 c 6.5,0 11.8,-5.3 11.8,-11.8 v -5 c 0,-6.4 -5.3,-11.7 -11.8,-11.7 z m 2.1,16.7 c 0,1.2 -1,2.1 -2.1,2.1 h -9.9 v -9.2 h 9.9 c 1.2,0 2.1,1 2.1,2.1 z" class="st0"/>
	</g>
	<path style="fill:#5d76a9;stroke-width:0.90719259" id="path24" d="m 212.42854,313.13473 h -0.72576 v -34.20116 h 13.69861 c 3.71949,0 6.71323,2.99373 6.71323,6.71322 v 4.53596 c 0,3.71949 -2.99374,6.71323 -6.71323,6.71323 h -12.97285 z m 0,-17.05522 h 12.97285 c 3.2659,0 5.98747,-2.63086 5.98747,-5.98747 v -4.53597 c 0,-3.26589 -2.63086,-5.98747 -5.98747,-5.98747 h -12.97285 z" class="st1"/>
	<polygon style="fill:#12173f" transform="matrix(0.90719258,0,0,0.90719258,18.561485,18.569299)" id="polygon26" points="121.1,324.7 153.1,324.7 153.1,315 130.8,315 130.8,308.5 149.6,308.5 149.6,298.8 130.8,298.8 130.8,292.2 153.1,292.2 153.1,282.6 121.1,282.6" class="st0"/>
	<polygon style="fill:#5d76a9" transform="matrix(0.90719258,0,0,0.90719258,18.561485,18.569299)" id="polygon28" points="125.6,320.3 153.1,320.3 153.1,319.5 126.4,319.5 126.4,304 149.6,304 149.6,303.2 126.4,303.2 126.4,287.8 153.1,287.8 153.1,287 125.6,287" class="st1"/>
	<path style="fill:#12173f;stroke-width:0.90719259" id="path30" d="m 192.28886,274.94192 h -30.30023 v 38.19281 h 8.79977 v -29.39304 h 7.34826 v 29.39304 h 8.79977 v -29.39304 h 5.44315 c 1.08863,0 1.90511,0.90719 1.90511,1.9051 v 27.48794 h 8.79976 v -27.48794 c -0.0907,-5.89675 -4.89884,-10.70487 -10.79559,-10.70487" class="st0"/>
	<path style="fill:#5d76a9;stroke-width:0.90719259" id="path32" d="m 192.28886,278.93357 h -26.30858 v 34.20116 h 0.72575 v -33.38469 h 15.42228 v 33.47541 h 0.72575 v -33.47541 h 9.4348 c 3.2659,0 5.98747,2.63086 5.98747,5.98747 v 27.48794 h 0.72576 v -27.48794 c 0,-3.81021 -3.08446,-6.80394 -6.71323,-6.80394" class="st1"/>
	<path style="fill:#12173f;stroke-width:0.90719259" id="path34" d="M 113.00023,274.94192 H 82.7 v 38.19281 h 8.799768 v -29.39304 h 7.34826 v 29.39304 h 8.799772 v -29.39304 h 5.44315 c 1.08863,0 1.90511,0.90719 1.90511,1.9051 v 27.48794 h 8.79976 v -27.48794 c -0.0907,-5.89675 -4.89884,-10.70487 -10.79559,-10.70487" class="st0"/>
	<path style="fill:#5d76a9;stroke-width:0.90719259" id="path36" d="M 113.00023,278.93357 H 86.691647 v 34.20116 h 0.725754 v -33.38469 h 15.422269 v 33.47541 h 0.72576 v -33.47541 h 9.4348 c 3.2659,0 5.98747,2.63086 5.98747,5.98747 v 27.48794 h 0.72576 v -27.48794 c 0,-3.81021 -2.99374,-6.80394 -6.71323,-6.80394" class="st1"/>
	<rect style="fill:#12173f;stroke-width:0.90719259" id="rect38" height="38.192806" width="8.7997675" class="st0" y="274.94193" x="274.48053"/>
	<rect style="fill:#5d76a9;stroke-width:0.90719259" id="rect40" height="38.192806" width="0.72575408" class="st1" y="274.94193" x="278.47217"/>
	<polygon style="fill:#12173f" transform="matrix(0.90719258,0,0,0.90719258,18.561485,18.569299)" id="polygon42" points="254.1,282.6 244.4,282.6 244.4,324.7 254.1,324.7 254.1,308.5 266.1,308.5 266.1,324.7 275.8,324.7 275.8,282.6 266.1,282.6 266.1,298.8 254.1,298.8" class="st0"/>
	<polygon style="fill:#5d76a9" transform="matrix(0.90719258,0,0,0.90719258,18.561485,18.569299)" id="polygon44" points="249.6,282.6 248.8,282.6 248.8,324.7 249.6,324.7 249.6,304 270.5,304 270.5,324.7 271.4,324.7 271.4,282.6 270.5,282.6 270.5,303.2 249.6,303.2" class="st1"/>
	<path style="fill:#12173f;stroke-width:0.90719259" id="path46" d="M 99.75522,341.52985 H 88.596752 C 85.330858,341.52985 82.7,338.899 82.7,335.6331 v -8.9812 c 0,-3.2659 2.630858,-5.89676 5.896752,-5.89676 h 5.170997 c 3.265894,0 5.896752,2.63086 5.896752,5.89676 v 0.99791 h -4.89884 v -0.99791 c 0,-0.54432 -0.453596,-1.08864 -1.088631,-1.08864 h -5.170998 c -0.544315,0 -1.088631,0.4536 -1.088631,1.08864 v 8.9812 c 0,0.54432 0.453597,1.08863 1.088631,1.08863 h 6.259629 v -1.9051 h -2.903016 v -4.89884 h 7.711137 v 11.61206 z" class="st0"/>
	<path style="fill:#12173f;stroke-width:0.90719259" id="path48" d="M 99.75522,341.52985 H 88.596752 C 85.330858,341.52985 82.7,338.899 82.7,335.6331 v -8.9812 c 0,-3.2659 2.630858,-5.89676 5.896752,-5.89676 h 5.170997 c 3.265894,0 5.896752,2.63086 5.896752,5.89676 v 0.99791 h -4.89884 v -0.99791 c 0,-0.54432 -0.453596,-1.08864 -1.088631,-1.08864 h -5.170998 c -0.544315,0 -1.088631,0.4536 -1.088631,1.08864 v 8.9812 c 0,0.54432 0.453597,1.08863 1.088631,1.08863 h 6.259629 v -1.9051 h -2.903016 v -4.89884 h 7.711137 v 11.61206 z" class="st0"/>
	<path style="fill:#12173f;stroke-width:0.90719259" id="path50" d="m 311.22181,341.52985 h -5.171 c -3.26589,0 -5.89675,-2.63085 -5.89675,-5.89675 v -0.72575 h 4.89884 v 0.72575 c 0,0.54432 0.4536,1.08863 1.08863,1.08863 h 5.171 c 0.54431,0 1.08863,-0.45359 1.08863,-1.08863 v -0.90719 l -8.98121,-2.3587 c -1.9051,-0.54432 -3.17517,-2.26798 -3.17517,-4.26381 v -1.27007 c 0,-3.35661 2.72158,-6.07819 6.07819,-6.07819 h 5.08028 c 3.26589,0 5.89675,2.63086 5.89675,5.89676 v 0.99791 h -4.89884 v -0.99791 c 0,-0.54432 -0.4536,-1.08864 -1.08863,-1.08864 h -5.08028 c -0.63503,0 -1.17935,0.54432 -1.17935,1.17936 v 0.99791 l 8.98121,2.3587 c 1.9051,0.54431 3.17517,2.26798 3.17517,4.2638 v 1.17935 c 0,3.35662 -2.72158,5.98747 -5.98747,5.98747" class="st0"/>
	<path style="fill:#12173f;stroke-width:0.90719259" id="path52" d="m 306.50441,313.04401 h -18.05313 v -12.15638 h 8.79976 v 3.35661 h 9.25337 c 1.08863,0 1.99582,-0.90719 1.99582,-1.99582 v -1.72367 l -14.33364,-4.44524 c -3.35661,-1.08863 -5.71531,-4.17309 -5.71531,-7.71114 v -2.72158 c 0,-5.98747 4.80812,-10.79559 10.79559,-10.79559 H 317.3 v 12.60998 h -8.79977 v -3.81021 h -9.25336 c -1.08863,0 -1.99583,0.90719 -1.99583,1.99582 v 2.17726 l 14.24293,4.35453 c 3.44733,1.08863 5.71531,4.17308 5.71531,7.80185 v 2.26799 c 0.0907,5.98747 -4.7174,10.79559 -10.70487,10.79559" class="st0"/>
	<path style="fill:#5d76a9;stroke-width:0.90719259" id="path54" d="m 306.50441,309.05236 h -13.97077 v -8.16473 h 0.72576 v 7.43898 h 13.24501 c 3.35661,0 5.98747,-2.72158 5.98747,-5.98748 v -2.26798 c 0,-1.4515 -0.99791,-2.81229 -2.3587,-3.26589 l -14.78724,-4.53596 c -1.72367,-0.54432 -2.8123,-2.08655 -2.8123,-3.81021 v -2.72158 c 0,-3.71949 2.99374,-6.80394 6.80395,-6.80394 h 13.97076 v 8.61833 h -0.72575 v -7.89258 h -13.24501 c -3.35662,0 -5.98747,2.72158 -5.98747,5.98747 v 2.72158 c 0,1.45151 0.90719,2.72158 2.3587,3.17517 l 14.78724,4.53597 c 1.72366,0.54431 2.90301,2.08654 2.90301,3.90092 v 2.26799 c -0.0907,3.8102 -3.17517,6.80394 -6.89466,6.80394" class="st1"/>
	<path style="fill:#707271;stroke-width:0.90719259" id="path56" d="m 292.8058,105.47835 c 2.63086,-4.98956 3.90093,-9.979121 3.90093,-14.787242 0,-10.886311 -6.07819,-20.593272 -14.6058,-26.399304 -11.88422,-8.074014 -29.6652,-9.162645 -42.27518,5.896752 -18.41601,-2.540139 -33.83828,2.540139 -39.73503,4.989559 -5.89675,-2.44942 -21.31903,-7.438979 -39.73504,-4.989559 -12.60997,-15.059397 -30.48167,-13.970766 -42.27517,-5.896752 -8.52761,5.806032 -14.6058,15.512993 -14.6058,26.399304 0,4.808121 1.27007,9.797682 3.90093,14.787242 -9.525524,13.6986 -16.057311,30.02807 -16.057311,46.62969 0,19.95824 8.527611,30.20952 11.702781,34.65476 0,0 1.36079,-1.36079 2.54014,-2.54014 9.07193,22.95197 24.4942,35.38051 43.18237,46.6297 0,0 0.4536,-2.26798 0.81647,-4.26381 20.13968,17.4181 29.6652,13.1543 50.53063,36.7413 20.77471,-23.49628 30.66311,-19.50464 50.53063,-36.7413 0.36287,1.99583 0.81647,4.26381 0.81647,4.26381 8.34617,-4.98956 31.75174,-17.59954 43.18237,-46.6297 1.17935,1.17935 2.54013,2.54014 2.54013,2.54014 1.99583,-2.72158 11.70279,-13.60789 11.70279,-34.65476 0.0907,-16.60162 -6.53179,-32.84037 -16.05731,-46.62969" class="st2"/>
	<path style="fill:#12173f;stroke-width:0.90719259" id="path58" d="m 287.09049,105.84122 c 19.14176,-29.393035 -24.31276,-60.056145 -45.35963,-30.390947 -21.31903,-3.810209 -39.19072,3.991647 -41.64014,5.080278 -2.3587,-1.088631 -20.32111,-8.890487 -41.64014,-5.080278 -21.04687,-29.665198 -64.501392,0.997912 -45.35963,30.390947 -21.86334,30.02808 -19.595358,59.60256 -9.52552,73.4826 l 4.17308,-4.17308 c 0,0 5.98748,28.93944 37.37634,47.89976 l 1.08863,-6.25963 c 19.3232,20.684 37.01346,20.2304 53.79652,39.10001 16.69234,-18.86961 34.3826,-18.41601 53.79652,-39.10001 l 1.08863,6.25963 c 31.47958,-18.96032 37.37634,-47.89976 37.37634,-47.89976 l 4.17308,4.17308 c 10.342,-13.97076 12.51926,-43.54524 -9.34408,-73.4826" class="st0"/>
	<path style="fill:#5d76a9;stroke-width:0.90719259" id="path60" d="m 200.27216,215.79296 c 0,0 -15.15012,0.27216 -17.32738,1.63295 0,0 -2.63086,4.53596 17.32738,4.44524 18.96032,-0.0907 16.14803,-3.53805 16.32946,-4.08236 0,0 -6.44106,-1.99583 -16.32946,-1.99583" class="st1"/>
	<path style="fill:#5d76a9;stroke-width:0.90719259" id="path62" d="m 187.20858,198.28415 c 0,0 2.35871,-6.80395 4.89884,-4.62669 3.44734,2.99374 8.07402,9.07193 8.07402,9.70696 v 8.16474 l -5.53388,0.27216 c -3.17517,0.0907 -13.33573,2.54014 -13.33573,2.54014 -14.06148,-34.74548 -6.25963,-61.14478 -2.54014,-70.48887 -13.88004,2.99374 -16.14802,-13.69861 -16.14802,-13.69861 1.4515,-0.27215 3.53805,0.36288 5.98747,1.45151 3.71949,1.81439 8.07401,4.80812 11.61206,7.5297 v 0 c 0.99791,0.81647 1.99583,1.54223 2.8123,2.26798 9.4348,7.9833 17.14594,6.35035 17.14594,6.35035 v 34.01972 c -0.0907,0 -27.66937,-2.17726 -12.97286,16.51091" class="st1"/>
	<path style="fill:#5d76a9;stroke-width:0.90719259" id="path64" d="m 213.06357,198.28415 c 17.59954,-17.8717 -11.06775,-16.78307 -12.88213,-16.51091 2.99373,0.18144 25.21995,0.27216 12.88213,16.51091" class="st1"/>
	<path style="fill:#5d76a9;stroke-width:0.90719259" id="path66" d="m 224.76636,144.30619 c 15.78515,42.63805 -4.26381,70.03527 -4.35453,70.2167 12.42854,-32.56821 4.44525,-59.69327 -0.99791,-69.76311 -2.8123,0.27216 -6.16891,0.0907 -6.16891,0.0907 0,0 4.17309,-2.63085 6.89467,-5.08027 0.18143,-0.18144 0.36287,-0.36288 0.63503,-0.54432 2.26798,-1.99582 6.62251,-5.53387 11.7935,-7.62042 v 0 c 1.90511,-0.72575 3.99165,-1.27007 6.07819,-1.54223 0.0907,0 -1.4515,14.06149 -13.88004,14.24293" class="st1"/>
	<path style="fill:#5d76a9;stroke-width:0.90719259" id="path68" d="m 249.80487,89.148881 c 0,0 6.44107,-16.148028 26.21787,-12.2471 0,0 -18.14385,-11.974942 -30.75383,9.616241 0,0 -18.14385,-8.52761 -45.17819,3.175174 0,0 -25.40139,-8.890487 -44.72459,-3.900928 0,0 -11.24919,-19.50464 -27.12506,-11.521346 -15.87587,8.074014 -7.62042,26.671458 -4.80812,31.479588 0,0 -26.308588,26.76217 -16.42019,59.8747 l 5.26172,-6.6225 c 0,0 7.5297,36.01554 27.03434,47.44617 l 1.17935,-8.89049 c 0,0 20.32111,24.4942 44.27099,34.92692 2.26799,1.08863 14.96868,7.34826 15.33156,10.43271 v -17.14594 c 0,0 -16.60162,1.36079 -20.95615,-6.25963 -2.99373,-5.17099 -22.04478,-39.19072 -12.60998,-74.84338 0,0 -9.16264,-1.36079 -10.88631,-16.87379 0,0 -6.80394,-3.35661 -15.33155,-2.63086 0,0 15.24083,-4.80812 29.48376,0.72576 14.24292,5.53387 18.05313,19.59536 27.76009,13.33573 l 2.63086,-39.553596 2.90301,39.553596 c 9.61625,6.16891 13.51717,-7.80186 27.7601,-13.33573 14.24292,-5.53388 29.48376,-0.72576 29.48376,-0.72576 0,0 -6.07819,-4.2638 -15.87587,-6.25962 -8.16474,-1.63295 -20.13968,3.62877 -20.13968,3.62877 0,0 1.63295,-11.24919 7.0761,-17.23666 4.62669,-4.89884 15.15012,-6.078192 18.41601,-16.148029 z M 126.88028,102.84749 c -0.54432,-5.352438 6.25963,-10.704874 6.25963,-10.704874 -2.8123,-2.903016 -7.71114,-0.362877 -7.71114,-0.362877 4.44524,-8.709049 14.42436,-4.445244 14.42436,-4.445244 -3.81021,-4.626682 -11.7935,-4.354524 -11.7935,-4.354524 9.8884,-9.79768 21.86334,5.170998 21.86334,5.170998 -10.70487,2.3587 -23.04269,14.696521 -23.04269,14.696521 z" class="st1"/>
	<path style="fill:#ffbb22;stroke-width:0.90719259" id="path70" d="m 180.13248,139.04447 c -1.54222,-0.4536 -4.08236,1.08863 -5.44315,3.81021 -4.7174,-1.36079 -6.35035,-6.44107 -6.16891,-11.33991 v 0 c 3.71949,1.81439 8.16473,4.80812 11.61206,7.5297" class="st3"/>
	<path style="fill:#ffbb22;stroke-width:0.90719259" id="path72" d="m 226.58074,142.9454 c -1.45151,-2.90302 -4.17308,-4.44524 -5.71531,-3.71949 2.26798,-1.99582 6.62251,-5.53387 11.7935,-7.62042 v 0 c 0.27216,4.89884 -1.45151,9.97912 -6.07819,11.33991" class="st3"/>
</g>
</svg>