<?xml version="1.0" encoding="UTF-8"?>
<!DOCTYPE svg PUBLIC "-//W3C//DTD SVG 1.1//EN" "http://www.w3.org/Graphics/SVG/1.1/DTD/svg11.dtd">
<!-- Creator: CorelDRAW 2019 (64-Bit) -->
<svg xmlns="http://www.w3.org/2000/svg" xml:space="preserve" width="198.969mm" height="199.025mm" version="1.1" style="shape-rendering:geometricPrecision; text-rendering:geometricPrecision; image-rendering:optimizeQuality; fill-rule:evenodd; clip-rule:evenodd"
viewBox="0 0 198.9442 199.0001"
 xmlns:xlink="http://www.w3.org/1999/xlink"
 xmlns:xodm="http://www.corel.com/coreldraw/odm/2003">
 <defs>
  <style type="text/css">
   <![CDATA[
    .fil1 {fill:#0C2340}
    .fil2 {fill:#236191}
    .fil3 {fill:#78BE20}
    .fil0 {fill:#9DA2A2}
    .fil4 {fill:white}
   ]]>
  </style>
 </defs>
 <g id="Layer_x0020_1">
  <metadata id="CorelCorpID_0Corel-Layer"/>
  <g id="_733895344">
   <path class="fil0" d="M198.9442 99.5004c0,26.3886 -10.4795,51.6967 -29.1345,70.3569 -18.6548,18.6601 -43.956,29.1428 -70.3377,29.1428 -26.3814,0 -51.6826,-10.4827 -70.3372,-29.1428 -18.6548,-18.6602 -29.1348,-43.9683 -29.1348,-70.3569 0,-26.3893 10.48,-51.6972 29.1348,-70.3576 18.6546,-18.6591 43.9558,-29.1428 70.3372,-29.1428 26.3817,0 51.6829,10.4837 70.3377,29.1428 18.655,18.6604 29.1345,43.9683 29.1345,70.3576z"/>
   <path class="fil1" d="M195.9396 99.3606c0,25.4566 -10.1104,49.8704 -28.1069,67.8709 -17.9977,18.0004 -42.4064,28.1133 -67.8582,28.1133 -25.4514,0 -49.8606,-10.1129 -67.8578,-28.1133 -17.9972,-18.0005 -28.1072,-42.4144 -28.1072,-67.8709 0,-25.4567 10.1101,-49.8713 28.1072,-67.8705 17.9972,-18.0005 42.4065,-28.1139 67.8578,-28.1139 25.4519,0 49.8605,10.1134 67.8582,28.1139 17.9965,17.9992 28.1069,42.4139 28.1069,67.8705z"/>
   <path class="fil2" d="M100.2164 35.8953c-4.8706,-0.0292 -9.6764,0.5067 -14.3345,1.5607 -0.429,1.3853 -1.01,4.0863 -0.0365,6.5422 0.5869,1.48 1.724,2.6802 3.3266,3.613 4.3957,-1.7905 9.1679,-3.6199 13.7714,-5.1598 5.8128,-2.1217 10.9776,-3.2899 14.9913,-3.9094 -0.1076,-0.0307 -0.2101,-0.0682 -0.3172,-0.0989 -2.8551,-0.8312 -5.7191,-1.4521 -8.5819,-1.8754 -2.9514,-0.4329 -5.8969,-0.6557 -8.8192,-0.6724zm-18.7659 2.7344l0 0c-9.0867,2.7553 -17.4724,7.5113 -24.4973,13.9157 0.3073,0 0.6526,0.0097 0.9768,0.0181 6.0204,-0.3579 14.5899,-0.1114 19.4867,0.0863 2.0671,-0.9286 4.5826,-2.0341 7.3736,-3.2175 -1.2149,-1.1292 -2.1394,-2.449 -2.7382,-3.9735 -0.9487,-2.4212 -0.9117,-4.8799 -0.6021,-6.8291l0.0005 0zm45.2059 3.2008l0 0 0.0006 0.0014c14.4819,6.7079 25.5099,18.4579 31.5663,32.461 -5.7792,-7.1821 -13.3407,-12.0305 -20.8612,-15.3055 -1.433,-2.8681 -3.6094,-5.2683 -6.8601,-6.63 -0.8533,-1.9548 -2.0515,-3.3261 -4.3977,-4.2046 -1.9895,0.4426 -4.9448,2.3083 -7.3909,5.3072 -3.2899,-0.5889 -6.0835,-0.9064 -8.0805,-1.0763l-0.4597 -0.039c-0.5578,-0.0528 -1.2018,-0.096 -1.9251,-0.1475 -3.0755,-0.2089 -7.3563,-0.5193 -12.5389,-2.0368 0.2816,-0.1922 0.5677,-0.3746 0.8591,-0.5444 16.5441,-8.0222 29.9101,-7.7159 30.0854,-7.7117l0.0027 -0.0738zm-34.4648 11.4388l0 0c-1.3678,1.512 -2.4936,3.1089 -3.3397,4.4524 1.7174,1.7863 4.9996,5.2216 6.6262,7.051 2.8084,1.6898 5.6245,3.522 8.4177,5.4793 4.4476,-5.0078 8.3986,-9.0704 12.2959,-13.1485 -1.8927,-0.2701 -3.8537,-0.4956 -5.8976,-0.6697l-0.5073 -0.0431c-0.526,-0.0529 -1.1362,-0.0919 -1.8165,-0.1393 -3.5024,-0.2367 -9.0686,-0.6696 -15.7774,-2.9822l-0.0012 0zm-35.3776 3.3638l0 0c-1.6353,-0.0028 -3.0222,0.057 -4.0739,0.1295 -5.2722,5.8017 -9.5223,12.6628 -12.4076,20.3715 6.4621,-6.7074 16.1841,-13.84 26.9823,-11.7287 0.8532,-1.5157 1.7179,-3.0331 2.5044,-4.4112 -3.3729,-2.2114 -5.4794,-3.8139 -11.2904,-4.3347 -0.597,-0.0167 -1.1704,-0.0264 -1.7154,-0.0264l0.0006 0zm82.2759 7.3636l0 0c1.9294,8.6434 -0.26,18.4637 -0.26,18.4637 0,0 4.6995,2.7204 5.8412,7.9082 0.0042,0.0028 0.6264,0.2671 1.1207,1.0302 1.313,1.6108 2.9879,5.3268 0.2953,12.6323 0,0 -1.5984,-3.4099 -4.9816,0.2623 -0.291,0.4067 -0.5722,0.8086 -0.8506,1.2063 6.4433,8.8653 11.351,18.1179 13.8487,27.1495 2.8667,-4.6977 5.178,-9.841 6.7901,-15.3796 2.2444,-7.7079 2.946,-15.4965 2.3167,-23.0472 -1.6358,-7.5406 -6.9612,-21.4317 -24.1199,-30.2252l-0.0005 -0.0006zm-59.0599 1.4782l0 0c-1.7398,0.8316 -3.646,1.7996 -5.4837,2.8628 5.1743,3.3948 9.0253,9.1351 11.9556,15.8772 4.114,-1.4281 6.9541,-1.4576 6.9541,-1.4576 2.7634,-3.5149 5.3145,-6.5975 7.709,-9.3824 -2.7654,-1.934 -5.5487,-3.7427 -8.3253,-5.4054 -3.045,-1.0959 -10.3164,-2.152 -12.8104,-2.4941l0.0006 -0.0005zm-17.1053 3.6178l0 0 0 -0.0005c0.7549,-0.0251 1.5153,-0.0006 2.2803,0.0815 -0.9658,1.7441 -1.78,3.2506 -2.2671,4.2116 -3.2071,4.9615 -6.2201,10.9146 -8.4587,17.958 -2.6681,8.4019 -3.8918,17.1938 -3.6768,26.3125 -2.7417,2.8954 -5.6224,5.8007 -8.6174,8.6086 -5.5739,-11.9984 -7.448,-25.7688 -4.625,-39.5068 4.0393,-5.4745 14.0439,-17.288 25.3648,-17.6649zm7.7918 1.699l0 0 0 -0.0006c5.2542,2.6491 9.1411,8.1936 12.0838,14.9804 -2.8133,1.3852 -5.9214,3.4077 -8.9963,6.3631 -4.4379,4.2713 -10.944,12.3355 -18.849,21.0393 0.5096,-16.2295 5.779,-29.8259 13.1803,-40.2373 0.737,-0.7239 1.6126,-1.4434 2.5812,-2.1449zm67.0812 38.4333l0 0c6.6018,9.3074 11.3814,18.9223 13.2165,28.0159 -4.0835,5.5359 -9.008,10.3109 -14.5294,14.1999 -2.2285,-7.2413 -5.2296,-11.9336 -5.103,-18.0244 0.2323,-11.1179 2.2695,-17.4554 6.4159,-24.1915z"/>
   <path class="fil3" d="M125.9261 50.9275c-1.2222,-0.0362 -2.7922,1.0581 -4.7175,4.5666 4.1083,-4.401 7.7242,-1.5663 7.7242,-1.5663 -0.4393,-1.0443 -1.435,-2.9558 -3.0067,-3.0003zm-38.4958 0.8687l0 0 -8.8175 4.4247c0,0 -6.3113,-0.5207 -9.6295,-0.6167 3.0259,1.9506 5.6523,4.1934 5.6523,4.1934l-3.9021 6.4741 8.3219 -4.526c0,0 5.252,0.885 10.0348,1.8606 -2.733,-3.1227 -6.0576,-5.4319 -6.0576,-5.4319l4.3978 -6.378zm3.549 38.0873l0 0c-4.8054,2.4016 -12.0333,9.606 -12.0333,9.606 3.4846,-2.3711 10.7254,-3.4404 10.7254,-3.4404 0.1501,-2.9705 1.3085,-6.1651 1.3085,-6.1651l-0.0006 -0.0005z"/>
   <path class="fil0" d="M99.7603 27.8494c-35.5514,0 -66.023,26.5991 -70.886,61.8667 -2.0187,14.6441 0.4638,29.2183 7.0258,42.1206 0.8208,-0.6836 1.6382,-1.383 2.4476,-2.0917 -6.0211,-12.1714 -8.2754,-25.8547 -6.3779,-39.6037 4.6479,-33.7323 33.7911,-59.1662 67.7911,-59.1662 3.1324,0 6.3076,0.2172 9.4379,0.6488 18.1022,2.4963 34.165,11.9108 45.2293,26.5155 11.0655,14.6019 15.7867,32.6144 13.289,50.7157 -2.7525,19.974 -14.0953,37.0363 -29.9454,47.6343 0.2144,1.0639 0.4041,2.1825 0.5612,3.3577 17.1839,-11.0134 29.5332,-29.1955 32.4806,-50.565 2.6077,-18.9276 -2.3278,-37.7617 -13.8975,-53.0291 -11.5697,-15.2689 -28.3625,-25.1136 -47.2908,-27.7227 -3.2708,-0.451 -6.5905,-0.6808 -9.8655,-0.6808l0.0005 0zm31.2958 29.6955l0 0 0.0011 0.0014c6.1554,3.3157 5.0042,15.904 5.0042,15.904 0,0 -0.9732,-6.7046 -4.0708,-10.2009 0.7085,3.0016 0.5856,8.5482 -2.7656,17.9738 -1.5184,4.2611 -5.9035,11.0357 -3.9972,15.3665 1.9072,4.3306 5.812,1.1856 8.4906,-0.2893 2.6806,-1.4755 6.7871,-5.0383 9.0774,-3.8152 0.0836,0.0431 0.4593,0.2993 0.4593,0.2993 0.8911,0.6411 0.9579,1.626 0.2173,3.1613 -0.7157,-0.3529 -1.9018,-0.3301 -3.826,1.1448 -3.9386,3.0177 -25.5272,23.4655 -17.9209,44.1013 0,0 0.6351,-7.6161 3.1232,-9.8702 0,0 0.8691,7.0868 3.6396,12.3404 4.2512,9.8134 4.5068,14.3605 4.5068,14.3605 -1.6458,-1.9427 -3.59,-2.4827 -3.59,-2.4827 5.6344,15.5476 0.9535,24.6957 0.9535,24.6957 -4.4684,-17.66 -19.7899,-18.0842 -25.0163,-44.0385 -8.6292,3.833 -12.7546,19.0326 -12.7546,19.0326 -10.1946,-24.786 -4.8536,-38.7728 -4.8536,-38.7728 -8.4313,3.0678 -16.0597,10.9369 -16.0597,10.9369 2.5691,-18.0843 14.5676,-23.9811 18.0989,-25.3446 0.2077,3.2396 1.0887,5.6695 1.0887,5.6695 0.6771,-5.3716 3.3899,-11.9841 6.1552,-17.6179 6.3798,-10.6579 14.8564,-22.2598 22.6319,-30.5999 2.0507,1.0765 8.3741,1.7916 11.2431,1.2705 0.0068,0.0071 0.0182,0.0262 0.0182,0.0262 0.128,-1.2355 0.2884,-2.806 0.1458,-3.2529zm-67.1133 71.8841l0 0 -0.001 0c-0.0093,0.0249 -0.0234,0.0527 -0.0315,0.0772 -4.3156,6.6171 -10.2637,10.4469 -10.2637,10.4469 0.6565,0.8363 1.3178,1.3949 1.9095,1.7817 -6.1574,2.5158 -20.7224,-0.916 -20.7224,-0.916 14.7173,-0.8434 29.1092,-11.3898 29.1092,-11.3898z"/>
   <path class="fil4" d="M107.36 10.0744l-0.3503 2.6384 3.3599 0.4468 -1.2481 9.4201 2.7074 0.3606 1.2487 -9.4228 3.3604 0.4455 0.3486 -2.6384 -9.4265 -1.2502zm-23.3359 1.0763l0 0 -0.3895 0.0654 -3.398 13.0386 2.9601 -0.511 1.692 -6.3988 3.7204 5.4646 2.9824 -0.5137 -7.5676 -11.145zm40.4744 2.1886l0 0 -3.4596 11.6658 2.6176 0.7754 3.4595 -11.6615 -2.6175 -0.7797zm-52.7405 0.6432l0 0 -8.8137 3.5656 0.9975 2.4671 3.1407 -1.2697 3.5665 8.806 2.5318 -1.0205 -3.565 -8.8116 3.1406 -1.2711 -0.9984 -2.4657zm64.5533 3.3136l0 0 -5.6885 10.8931 2.4069 1.2585 2.6204 -5.0205 1.241 4.6488 0.3144 0.167 4.5181 -1.6456 -2.6218 5.0205 2.4296 1.2683 5.686 -10.8945 -0.3676 -0.1921 -8.0123 2.9265 -2.1586 -8.1838 -0.0157 -0.0598 -0.352 -0.1866zm-81.77 5.6414l0 0c-3.452,0 -6.2495,2.7971 -6.2495,6.2498 0,3.4515 2.7976,6.2485 6.2495,6.2485 3.4523,0 6.2511,-2.7971 6.2511,-6.2485 0,-3.4528 -2.7989,-6.2498 -6.2511,-6.2498zm0 2.8402l0 0c1.8843,0 3.4098,1.5245 3.4098,3.4096 0,1.8824 -1.5255,3.4111 -3.4098,3.4111 -1.8846,0 -3.4094,-1.5287 -3.4094,-3.4111 0,-1.8851 1.5248,-3.4096 3.4094,-3.4096zm100.8208 3.2495l0 0 -1.7821 2.0508 -1.2139 1.3978 -0.0976 0.1128 -1.6832 1.9366 -1.4451 1.6652 -1.7836 2.0493 2.0509 1.7822 1.7792 1.5453c0.7782,0.6767 1.6917,1.0512 2.644,1.0805 1.1249,0.0348 2.1998,-0.4357 2.9431,-1.2948 0.6517,-0.749 0.9621,-1.6958 0.898,-2.6662 0.6864,-0.1852 1.3171,-0.5764 1.8171,-1.15 0.7656,-0.8814 1.0789,-1.9659 0.8785,-3.0463 -0.1615,-0.8785 -0.6461,-1.6749 -1.4397,-2.3626l-1.5147 -1.3185 -2.0508 -1.7821zm0.2675 3.8315l0 0 1.5174 1.3184c0.6362,0.5527 0.7323,1.0707 0.291,1.5788 -0.5428,0.6251 -1.2209,0.266 -1.6957,-0.1462l-1.4257 -1.239 1.313 -1.512zm-115.6479 1.4799l0 0 -0.2399 0.0056c-1.36,0.0404 -2.6424,0.7073 -3.8106,1.9812 -0.7369,0.8048 -1.1868,1.7571 -1.2715,2.683 -0.1022,1.0832 0.2981,2.0702 1.154,2.854 1.3248,1.2128 2.883,1.2948 4.7625,0.2479l1.308 -0.724c0.6788,-0.3815 1.1177,-0.5276 1.4799,-0.1921 0.4338,0.394 0.3296,0.9523 -0.3069,1.6596 -0.0049,0.0083 -0.0109,0.0153 -0.019,0.0195 -0.843,0.9202 -1.7969,0.9899 -2.4403,0.962l-0.2322 -0.0111 -0.297 3.0337 0.2574 0.0125c1.0108,0.0543 2.9899,-0.1629 4.8673,-2.2178 0.018,-0.0195 0.0347,-0.039 0.0521,-0.0557 0.9535,-1.0623 1.462,-2.112 1.5147,-3.1229 0.0556,-1.0511 -0.3812,-2.0049 -1.2947,-2.8415 -1.3554,-1.2391 -2.8308,-1.2641 -4.9301,-0.0891l-1.4651 0.8172c-0.5389,0.3064 -0.8512,0.3175 -1.1509,0.0418 -0.3519,-0.323 -0.2865,-0.8186 0.1731,-1.3282 0.0026,-0.0042 0.0026,-0.0055 0.0043,-0.0083 0.527,-0.5736 1.1055,-0.8688 1.8274,-0.9245l0.2425 -0.0181 -0.1844 -2.7832 -0.0006 -0.0014zm112.6628 1.9701l0 0 1.6736 1.4549c0.689,0.5959 0.852,1.3073 0.4148,1.81 -0.4371,0.4984 -1.1417,0.4789 -1.7558,-0.0557l-1.7792 -1.5482 1.4465 -1.661zm15.7728 5.331l0 0 5.1334 6.4851 -2.1134 1.6735 -3.4348 -4.3439 -1.5732 1.246 2.9613 3.7382 -2.1315 1.6847 -2.9586 -3.7382 -1.5969 1.2627 3.4362 4.3425 -2.1301 1.6861 -5.132 -6.4852 9.5397 -7.5516zm-140.6782 4.0904l0 0 -0.0006 0 2.2396 1.4939 -3.0722 4.6083 1.6701 1.1111 2.6449 -3.9665 2.2602 1.5064 -2.6464 3.9693 1.6948 1.1278 3.0737 -4.6084 2.2585 1.5078 -4.5884 6.8791 -10.1209 -6.7497 4.5867 -6.8791zm150.6971 10.3306l0 0 -10.9112 5.3781 1.2042 2.4506 5.0513 -2.4881 -3.4502 5.7332 1.4382 2.9172c0,0 2.4965,-4.2023 2.6732,-4.4791 1.0429,1.1035 2.7581,1.2525 4.2757,0.5068 2.2764,-1.1235 2.9933,-3.3779 1.7278,-5.9416l-2.009 -4.0772zm-1.1961 3.6352l0 0 0.7714 1.5657c0.5512,1.1208 0.2923,1.898 -0.6989,2.3864 -1.0039,0.4943 -1.7947,0.2344 -2.3461,-0.8865l-0.7727 -1.5652 3.0463 -1.5004zm-158.8906 1.743l0 0 -1.0411 2.548 5.878 2.4011 -8.5695 3.908 -0.1652 0.4096 11.3561 4.6422 1.0291 -2.5175 -5.9052 -2.4109 8.6087 -3.9245 0.1651 -0.4126 -11.356 -4.6434zm166.9281 9.5392l0 0 -10.8806 7.2261 0.1018 0.4214 7.3247 1.7017 -5.7487 4.8284 0.1016 0.4242 12.9772 1.4678 -0.6766 -2.8004 -6.2457 -0.737 5.1375 -4.3078 -0.0988 -0.4127 -6.5464 -1.5392 5.2307 -3.4638 -0.6766 -2.8089zm-173.5227 9.9193l0 0 -0.4232 2.716 6.2712 0.9795 -7.4384 5.779 -0.0669 0.4405 12.1209 1.8964 0.4214 -2.6889 -6.2999 -0.9854 7.4687 -5.8002 0.0696 -0.4405 -12.1234 -1.8964zm127.4793 5.6419l0 0c0.5987,0.9262 0.6196,2.2058 0.5485,3.0243 0.8048,-0.198 1.4062,-0.2273 1.8532,-0.1974 -0.1323,-0.3689 -0.3829,-0.9218 -0.8326,-1.4678 -0.6377,-0.7766 -1.5691,-1.3591 -1.5691,-1.3591zm-6.3485 1.2252l0 0c0.6689,1.9792 0.5268,3.9826 0.365,5.0943 0.9359,-0.6444 1.7865,-1.1763 2.5619,-1.6104 -0.1418,-0.3367 -0.3589,-0.8189 -0.6883,-1.4025 -0.619,-1.1116 -2.2385,-2.0813 -2.2385,-2.0813zm50.6586 5.9454l0 0c-3.4528,0 -6.2498,2.7994 -6.2498,6.251 0,3.4523 2.7971,6.2466 6.2498,6.2466 3.4514,0 6.2497,-2.7944 6.2497,-6.2466 0,-3.4517 -2.7984,-6.251 -6.2497,-6.251zm0 2.8416l0 0c1.8838,0 3.4111,1.5249 3.4111,3.4094 0,1.8822 -1.5273,3.4099 -3.4111,3.4099 -1.8852,0 -3.4111,-1.5277 -3.4111,-3.4099 0,-1.8845 1.5259,-3.4094 3.4111,-3.4094zm-161.4782 3.5829l0 0 -12.1615 0.2905 0.0652 2.7307 12.1601 -0.2905 -0.0638 -2.7312 0 0.0005zm0.5423 10.0178l0 0 -12.0224 2.5403 0.087 0.4068 7.353 4.3226 -4.9432 6.8715 -0.0364 0.0496 0.0833 0.3893 12.0222 -2.5387 -0.5612 -2.6584 -5.5385 1.17 2.8004 -3.9125 -0.0756 -0.3487 -4.1438 -2.4419 5.5419 -1.1698 -0.5666 -2.6801zm153.9802 2.4647l0 0 -1.8421 7.8994 2.6955 0.6293 1.2238 -5.2396 9.15 2.1352 0.6223 -2.6611 -11.8495 -2.7634zm8.8046 15.2082l0 0 -13.459 0.6091 -0.1476 0.3677 9.3253 9.7251 1.1168 -2.7894 -4.5625 -4.7945 6.6008 -0.3068 1.1263 -2.8107 0 -0.0006zm-18.0799 10.2832l0 0 0 0.0006 10.2817 6.5022 -4.4217 6.989 -2.2736 -1.4385 2.9612 -4.6814 -1.6943 -1.0714 -2.552 4.0305 -2.2945 -1.4521 2.5479 -4.0316 -1.7208 -1.0872 -2.9613 4.6798 -2.2945 -1.4504 4.4219 -6.9895zm-6.1608 12.9546l0 0c-0.2172,0 -2.1677,0.0157 -3.4988,0.6623 -0.6989,0.3388 -1.3058,0.7711 -1.8029,1.2703 -0.6363,0.6391 -1.086,1.3896 -1.2975,2.1891 -0.3524,1.3372 0.0347,2.7372 1.008,3.6578 0.9356,0.8812 2.2484,1.1612 3.5169,0.7473 0.419,-0.1371 0.909,-0.3774 1.4757,-0.6569 0.6656,-0.327 1.6722,-0.8442 2.137,-0.8708 1.1196,-0.0658 1.0917,1.5472 -0.3411,2.2482 -0.5317,0.2574 -1.4423,0.5232 -1.9171,0.5831l0.344 2.7383c0.1865,-0.0228 1.8432,-0.2464 3.0211,-0.9725 2.0147,-1.2431 2.4072,-2.8302 2.4587,-3.667 0.053,-0.7886 -0.277,-1.9531 -1.1278,-2.7716 -0.7184,-0.6911 -1.6873,-1.011 -2.726,-0.9039 -0.9537,0.0996 -2.0758,0.6532 -3.0671,1.1395 -0.4345,0.2126 -0.8814,0.4322 -1.1167,0.5101 -0.3063,0.0995 -0.5653,0.0565 -0.7644,-0.1307 -0.1866,-0.1767 -0.3453,-0.5175 -0.2339,-0.9446 0.1699,-0.6363 0.7811,-1.2665 1.6387,-1.6833 0.5736,-0.2794 1.7098,-0.385 2.289,-0.385l0.004 -2.76z"/>
  </g>
 </g>
</svg>
