<?xml version="1.0" encoding="UTF-8"?><svg id="a" xmlns="http://www.w3.org/2000/svg" viewBox="0 0 178.7057 103.6427">
<title>Oklahoma_City_Thunder-logo - brandlogos.net</title><path d="M145.9226,22.05l-.24.82c-.13.44-.25.88-.38,1.31s-.3,1-.44,1.48-.29.92-.43,1.38l-.24.76c10.98-2,21.7933-3.7533,32.44-5.26-10.2176-.7788-20.4728-.9424-30.71-.49ZM42.2726,46.4l-.44-.87c-13.6189,5.6915-26.7379,12.5119-39.22,20.39,12.3933-4.4867,25.1933-8.7767,38.4-12.87.76-1.56,1.51-3.13,2.28-4.69l-.76-1.44c-.09-.17-.17-.35-.26-.52ZM87.6126,56.4c-.63-1.3-1-1.81-1.62-3.11l-1,2.73-4.42,3.52-1.73.8.08.64c3.4404-.0229,6.869-.4049,10.23-1.14,0-1.3,0-2.67-.08-4.07l-1.46.63ZM97.9626,51.28l-.86.9-5.51,2.42c.06,1.58.1,3.1.1,4.56,3.34-.84,6.28-1.72,8.9-2.64.2212-1.9989.6093-3.9758,1.16-5.91-.8268.3003-1.6761.5343-2.54.7-.4161.0464-.8366.0364-1.25-.03ZM80.8326,27.34l2.72-2.87,2.14-.48c-.64-4.18-1.29-8-1.84-11-9.3249,1.3536-18.4471,3.8525-27.16,7.44l.28.59c1.5493,3.1372,3.3449,6.1467,5.37,9,.7733-.26,1.5533-.5,2.34-.72,2.6667-.7067,5.31-1.3967,7.93-2.07,2.44-.64,6.31-1.91,8.22.11ZM100.4926,59.34c-2.63.89-5.55,1.73-8.83,2.55,0,1.11,0,7.52-1.81,11.17,5.0957-1.4391,9.9106-3.7315,14.24-6.78-2.3-1.11-3.5-3.99-3.6-6.99v.05ZM97.3626,21.51l-1,2.56-.1.26,3-3.2c3.07-.6,6.13-1.16,9.2-1.71l-.51,1.54c1.5031-1.2071,3.3087-1.9785,5.22-2.23h.26c.474-1.9397.828-3.9068,1.06-5.89l-1.56-.34c-4.1583-.4471-8.3378-.6674-12.52-.66-4.679-.0024-9.354.2747-14,.83.55,3,1.18,6.68,1.81,10.77,3.04-.67,6.06-1.31,9.14-1.93ZM71.5126,63.84c1.08,1.3333,2.19,2.6667,3.33,4,1.055-1.1659,1.6302-2.6877,1.61-4.26-1.22,0-2.54-.1-3.92-.22l-1.02.48ZM54.3626,21.46c-1.21.52-2.41,1.07-3.6,1.63,1.08,3.81,2.35,7.53,3.78,11.16h.06l.46-.41.11-.08c.4-.31.81-.59,1.23-.87h.08l.56-.35.09-.06c.43-.26.87-.5,1.31-.73h.09l.57-.29.12-.06.66-.31c-1.9727-2.7908-3.7215-5.7333-5.23-8.8l-.29-.83ZM76.5626,69.67c.57.63,1.15,1.24,1.74,1.86l.19.2c.93,1,1.88,1.92,2.84,2.86,1.48-.14,3-.34,4.38-.6.3524-.3138.6862-.6476,1-1,.027-.0535.0644-.1011.11-.14,1.46-1.49,2.18-5.29,2.36-10.44-3.3325.7012-6.7249,1.0797-10.13,1.13.0675,2.3123-.8568,4.5431-2.54,6.13h.05ZM117.2626,13.5c-.1307,1.5752-.3545,3.1412-.67,4.69,1.91-.3,3.82-.58,5.73-.86l-2.37,9.45-3.81,4,3.24-1c-1.02,4.06-2.02,8.06-3.12,12.06l-4.14,4.35c-1.74.72-4.62,2.1-7.39,3.26-.6586,1.9871-1.1733,4.019-1.54,6.08,9.48-3.81,14.34-8.66,19.61-17,1.8148-7.8213,1.6187-15.975-.57-23.7-1.6467-.46-3.3033-.9033-4.97-1.33ZM102.9326,58.41c-.06,5.85,3.58,5.6,4.17,5.51,5.5616-4.6276,9.9854-10.4713,12.93-17.08-4.41,5.18-9.41,8.67-17.1,11.57Z" style="fill:#ef3b24;"/><path d="M92.5926,84.27c-3.5055-2.5884-6.8454-5.3939-10-8.4h0l-1.34-1.28c-1-.94-1.91-1.89-2.84-2.86l-.19-.2c-.59-.62-1.17-1.23-1.74-1.86s-1.12-1.25-1.64-1.83c-1.14-1.3333-2.25-2.6667-3.33-4l-.68.32-3,1.41c6.6196,7.6874,14.2292,14.4631,22.63,20.15.71-.46,1.41-.93,2.11-1.4h0l.02-.05ZM90.6626,10.13c-16.1091.428-31.9469,4.2478-46.48,11.21,1.6471,5.8163,3.7331,11.4993,6.24,17l1.71-1.79c.17-.2.35-.38.53-.57.0382-.0281.0719-.0618.1-.1l.47-.46.09-.08c.37-.36.75-.69,1.14-1h0c-1.43-3.63-2.7-7.35-3.78-11.16,1.19-.56,2.39-1.11,3.6-1.63l2.38-1c8.7129-3.5875,17.8351-6.0864,27.16-7.44.86-.13,1.71-.24,2.57-.35,4.646-.5553,9.321-.8325,14-.83,4.1824-.0041,8.3619.2195,12.52.67-7.3167-1.5573-14.7699-2.3846-22.25-2.47Z" style="fill:#fdbb30;"/><path d="M62.9426,37.73c-3.72,7.8733-7.3033,15.8-10.75,23.78,2.38-1.09,4.75-2.16,7.13-3.22,3.1933-7.5533,6.4933-15.0567,9.9-22.51-2.11.64-4.2,1.3-6.28,1.95ZM89.6326,1.48c-21.72,0-38.54,5.37-57.71,15.24l1.29,5.19c2.087,8.4788,5.1263,16.6944,9.06,24.49.09.17.17.35.26.52.25.48.5,1,.76,1.44-.77,1.56-1.52,3.13-2.28,4.69-2.7667,5.7733-5.4533,11.5833-8.06,17.43-1.29,2.94-4.09,8.1.15,9.94,3.89,1,7.63-1.6,11-3.31l1.81-.91,2.36-1.2.42-.21c1.47-.74,2.93-1.47,4.4-2.19,1-.49,2.91-1.43,5.34-2.59.51.58,1,1.15,1.57,1.72l.21.23c.5.54,1,1.07,1.51,1.6l.09.08c8.2853,8.4348,17.6379,15.7502,27.82,21.76,22.75-13.64,37.92-29.68,48-50.84.17-.34.33-.69.49-1,.29-.63.57-1.26.86-1.9l.09-.2c.17-.4.35-.8.52-1.21.06-.12.11-.25.16-.38,1.74-4.07,3.3-8.34,4.71-12.8.14-.46.28-.92.43-1.38s.29-1,.44-1.48.25-.87.38-1.31c.5667-2,1.1133-4.05,1.64-6.15C128.1726,6.84,111.3626,1.48,89.6326,1.48ZM56.6026,66.84c-3,1.5-6,3-9,4.53-2.75,1.4-6.65,4-9.77,3.21-2.83-1.22-.18-6,.69-7.89,3.3333-7.46,6.7867-14.85,10.36-22.17,1.1545-2.5156,2.6337-4.869,4.4-7,3.22-3.56,7.24-5.49,11.75-6.72,2.6333-.7067,5.2633-1.3967,7.89-2.07,1.94-.48,6.39-2.09,7.24.54.43,2-.9,4.23-1.66,6-2.04,4.7933-4.04,9.6-6,14.42-.8596,2.2661-1.8857,4.4654-3.07,6.58-3.07,4.96-7.71,8.05-12.83,10.57ZM82.0126,31.99c.86-2.07,1.75-4.15,2.63-6.15,3.4-.77,6.82-1.52,10.24-2.22-1.54,4-3.0633,8-4.57,12,3.22-4.38,6.4833-8.7133,9.79-13,2-.4,4.0333-.7833,6.1-1.15-.52,1.61-1,3.21-1.58,4.82l-2.11.49c-2.5,3.6467-4.9767,7.3333-7.43,11.06,1.38,3.0667,2.7467,6.14,4.1,9.22-2.22,1-4.43,1.94-6.65,2.93-1.4333-2.9333-2.8767-5.8567-4.33-8.77-1.5933,4.2733-3.1633,8.5567-4.71,12.85-3.42,1.58-6.8433,3.17-10.27,4.77,1-2.66,2.08-5.31,3.14-8,2.56-6.52,5.1767-13.0267,7.85-19.52l-2.2.67ZM112.3626,24.64c-1.3333,4.6667-2.6967,9.3333-4.09,14,1.08-.4,2.15-.8,3.24-1.19.36-1.3.72-2.61,1.09-3.91,1.56-.5133,3.1133-1.0067,4.66-1.48-.74,2.8933-1.4867,5.7833-2.24,8.67-2.9667,1.22-5.9233,2.4567-8.87,3.71-.9107.4445-1.8707.7802-2.86,1-2.91.24-2-3.07-1.4-4.88l4.41-13.8c.4163-1.5485,1.1749-2.9838,2.22-4.2,1.3199-1.2715,3.0199-2.0758,4.84-2.29,2.31-.38,4.63-.74,6.94-1.08-.53,2.1-1,4.21-1.59,6.31l-4.19,1c.23-.81.45-1.63.68-2.45l-2.84.59ZM101.8026,50.64c-.5508,1.9342-.9388,3.9111-1.16,5.91-2.62.92-5.56,1.8-8.9,2.64,0-1.46,0-3-.1-4.56l5.51-2.42.86-.9c.4148.0564.8352.0564,1.25,0,.8469-.1682,1.6795-.4023,2.49-.7l.05.03ZM89.1526,59.84c-3.3593.7519-6.7879,1.1507-10.23,1.19l-.08-.64,1.73-.8,4.43-3.56,1-2.73c.64,1.3,1,1.81,1.62,3.11l1.46-.64c.04,1.35.07,2.72.07,4.07ZM89.6326,91.15c-10.2955-6.2348-19.6525-13.9015-27.79-22.77l6-2.86,3-1.41,1.7-.8c1.38.12,2.7.19,3.92.22.0302,1.5908-.5494,3.1329-1.62,4.31.55.63,1.11,1.26,1.67,1.88,1.6832-1.5869,2.6075-3.8177,2.54-6.13,3.3804-.0417,6.7491-.4066,10.06-1.09-.18,5.15-.9,9-2.36,10.44-.0456.0389-.083.0865-.11.14-.3138.3524-.6476.6862-1,1,1.42-.26,2.81-.59,4.19-1,1.78-3.72,1.8-10.13,1.83-11.24,3.28-.82,6.2-1.66,8.83-2.55.1,3,1.3,5.88,3.6,6.94,1-.73,2-1.51,3-2.31-.59.09-4.23.34-4.17-5.51,7.69-2.9,12.69-6.39,17.1-11.61,1.1762-2.6516,2.1035-5.4068,2.77-8.23-5.27,8.31-10.13,13.16-19.61,17,.3667-2.061.8814-4.0929,1.54-6.08,2.77-1.16,5.65-2.54,7.39-3.26l4.15-4.39c1.1-4,2.1-8,3.1-12.06l-3.24,1,3.81-4,2.43-9.45c-1.91.28-3.82.56-5.73.86.3155-1.5488.5393-3.1148.67-4.69h0c-.61-.16-1.23-.3-1.84-.45l-.37-.08-.56-.13h0c-.2336,1.9698-.5876,3.9235-1.06,5.85h-.26c-1.9113.2515-3.7169,1.0229-5.22,2.23l.51-1.54c-3.07.55-6.13,1.11-9.2,1.71l-3,3.2.1-.26,1-2.56c-3,.62-6,1.26-9.08,1.92-.63-4.09-1.26-7.78-1.81-10.77-.86.11-1.71.22-2.57.35.55,3,1.2,6.8,1.84,11l-2.14.48-2.81,2.89c-1.91-2-5.78-.75-8.22-.13-2.6667.6667-5.31,1.3567-7.93,2.07-.7867.22-1.5667.46-2.34.72-2.0251-2.8533-3.8207-5.8628-5.37-9l-.28-.59-2.38,1,.34.7c1.5085,3.0667,3.2573,6.0092,5.23,8.8l-.66.31-.12.06-.57.29h-.09c-.44.23-.88.47-1.31.73l-.09.06-.56.35-.12.13c-.42.28-.83.56-1.23.87l-.07.13-.51.41-.09.07c-.39.32-.77.65-1.14,1l-.09.08-.47.44c-.0281.0382-.0618.0719-.1.1-.18.19-.36.37-.53.57l-1.71,1.79-2.43,2.54c-.9354,1.0879-1.7783,2.2519-2.52,3.48-2.3692-4.7688-4.4106-9.6936-6.11-14.74-1.1867-3.5133-2.2467-7.1533-3.18-10.92,17.73-8.82,33.43-13.52,53.45-13.51s35.73,4.69,53.42,13.51c-8.69,32.67-24.53,54.62-53.42,72.44v.05Z" style="fill:#002d62;"/><path d="M176.5126,30.2c-11.1938.9153-22.317,2.5521-33.3,4.9.75-2,1.45-4,2.12-6,10.6667-1.9267,21.17-3.6233,31.51-5.09,2.13-.22,2.13-2.78-.1-2.93-9.6017-.7294-19.2367-.9231-28.86-.58.4-1.51.79-3,1.16-4.55C129.1126,5.67,112.2626,0,89.6326,0S50.1426,5.67,30.2126,15.94l1.57,6.33c1.8941,7.7559,4.5747,15.2983,8,22.51-13.1838,5.5951-25.8922,12.2503-38,19.9-3.28,1.94-1.55,3.84,1.3,2.64,11.3333-4.1333,23.0333-8.0833,35.1-11.85-2.24,4.78-4.4333,9.57-6.58,14.37-1.66,3.76-4.55,9.53,1,11.95.5401.1444,1.0925.2381,1.65.28-8.2574,5.7018-16.1711,11.8859-23.7,18.52-2.94,2.6-.74,3.94,1.7,2.4,16.11-8.88,33.11-17.56,50.94-25.87,8.0005,7.6782,16.8745,14.3908,26.44,20,21.65-13,37.89-28.3,49-51.19,13.0133-4.6667,25.8367-8.9467,38.47-12.84,2.26-.49,2.19-3.14-.59-2.89ZM137.5126,44.75l.09-.19c-10.05,21.16-25.22,37.2-48,50.84-10.1715-6.012-19.5139-13.3272-27.79-21.76.55.58,1.11,1.14,1.68,1.71-18.13,8.49-35.51,17.3-51.94,26.39,10.7362-9.438,22.228-17.9799,34.36-25.54l-1.81.91c-3.37,1.71-7.11,4.32-11,3.31-4.24-1.84-1.44-7-.15-9.94,2.6-5.8467,5.2867-11.6567,8.06-17.43-13.1867,4.0733-25.9867,8.3633-38.4,12.87,12.4821-7.8781,25.6011-14.6985,39.22-20.39l.44.87c-3.9337-7.7956-6.973-16.0112-9.06-24.49l-1.29-5.19C51.0926,6.85,67.9226,1.48,89.6326,1.48s38.54,5.36,57.73,15.24c-.5467,2.08-1.1067,4.12-1.68,6.12l.24-.82c10.2372-.4524,20.4924-.2888,30.71.49-10.6333,1.5533-21.4467,3.33-32.44,5.33l.24-.76c-1.41,4.46-3,8.73-4.71,12.8.38-.89.76-1.8,1.13-2.71,11.7862-2.6443,23.7415-4.4687,35.78-5.46-12.8467,3.9-25.8867,8.2467-39.12,13.04ZM54.4626,34.28l.09-.07h-.06l-.03.07ZM89.6326,5.15c-20,0-35.72,4.68-53.44,13.51.9267,3.7733,1.9833,7.4133,3.17,10.92,1.6957,5.0496,3.7338,9.9777,6.1,14.75.7444-1.2319,1.5907-2.3993,2.53-3.49l2.43-2.56c-2.5069-5.5007-4.5929-11.1837-6.24-17,14.5377-6.9415,30.3753-10.7407,46.48-11.15,7.4835.0511,14.9434.845,22.27,2.37l1.56.34h0l.56.13.37.08c.61.15,1.23.29,1.84.45h0c1.66.42,3.3267.8767,5,1.37,5.1185,17.9036-.8154,37.1408-15.13,49.05-1,.8-2,1.58-3,2.31-4.3294,3.0485-9.1443,5.3409-14.24,6.78-1.38.39-2.77.72-4.19,1s-2.9.46-4.38.6l1.3,1.23,2.95-.48c26.0424-4.4066,43.6315-29.0251,39.36-55.09-.06-.34-.13-.69-.19-1v-1.65l-.05-.2v-.59c-.14-.54-.26-1-.39-1.46l2,.63c1.4.46,2.71.93,4,1.42,3.28,1.22,6.19,2.47,8.6,3.62-7.1773,25.0909-22.7255,46.9699-44.06,62l-1.74,1.22h0c-.7.47-1.4.94-2.11,1.4-8.5764-5.6482-16.3558-12.422-23.13-20.14l-6,2.86c8.1409,8.8508,17.4977,16.5006,27.79,22.72,28.87-17.82,44.71-39.77,53.4-72.44-17.69-8.82-33.41-13.51-53.42-13.51ZM71.5126,63.84l1-.48-1.7.8.7-.32ZM84.6426,25.84c-.88,2.06-1.77,4.12-2.63,6.19l2.2-.61c-2.6667,6.48-5.2833,12.9867-7.85,19.52-1.06,2.66-2.1,5.31-3.14,8,3.4267-1.6667,6.85-3.29,10.27-4.87,1.5533-4.2933,3.1233-8.5767,4.71-12.85,1.46,2.92,2.9033,5.8433,4.33,8.77,2.22-1,4.43-2,6.65-2.93-1.3333-3.0667-2.7-6.14-4.1-9.22,2.46-3.7267,4.9367-7.44,7.43-11.14l2.11-.49c.53-1.61,1.06-3.21,1.58-4.82-2.04.3733-4.0733.7567-6.1,1.15-3.3333,4.3067-6.5967,8.64-9.79,13,1.5067-4,3.03-8,4.57-12-3.42.74-6.84,1.49-10.24,2.3ZM118.6926,25.54c.54-2.1,1.06-4.21,1.59-6.31-2.31.34-4.63.7-6.94,1.08-1.8283.2024-3.5394.9999-4.87,2.27-1.0451,1.2162-1.8037,2.6515-2.22,4.2l-4.41,13.8c-.57,1.81-1.51,5.12,1.4,4.88.9893-.2198,1.9493-.5555,2.86-1,2.9467-1.2467,5.9033-2.4833,8.87-3.71.7533-2.8933,1.5-5.7833,2.24-8.67-1.5467.48-3.1.9733-4.66,1.48-.37,1.3-.73,2.61-1.09,3.91-1.09.39-2.16.79-3.24,1.19,1.3333-4.6667,2.6967-9.3333,4.09-14l2.87-.61c-.23.82-.45,1.64-.68,2.45l4.19-.96ZM69.4326,56.28c1.1843-2.1146,2.2104-4.3139,3.07-6.58,1.96-4.82,3.96-9.6267,6-14.42.76-1.8,2.09-4.07,1.66-6-.85-2.63-5.3-1-7.24-.54-2.6267.6667-5.2567,1.3567-7.89,2.07-4.51,1.23-8.53,3.16-11.75,6.72-1.7663,2.131-3.2455,4.4844-4.4,7-3.6,7.3333-7.0533,14.7233-10.36,22.17-.87,1.94-3.52,6.67-.69,7.89,3.12.81,7-1.81,9.77-3.21,3-1.53,6-3,9-4.53,5.12-2.53,9.76-5.62,12.83-10.57ZM52.1926,61.51c3.4467-7.98,7.03-15.9067,10.75-23.78,2.08-.65,4.17-1.31,6.28-2-3.42,7.4933-6.7067,15.0133-9.86,22.56-2.42,1.06-4.79,2.13-7.17,3.22Z" style="fill:#fff;"/><path d="M140.8526,37.13c-.37.91-.75,1.82-1.13,2.71-.05.13-.1.26-.16.38-.17.41-.35.81-.52,1.21l-.09.2c-.29.64-.57,1.27-.86,1.9-.16.34-.32.69-.49,1l-.09.19c13.2333-4.76,26.2733-9.11,39.12-13.05-12.0385.9913-23.9938,2.8157-35.78,5.46ZM61.7226,73.56c-.51-.53-1-1.06-1.51-1.6l-.21-.23c-.53-.57-1.06-1.14-1.57-1.72-2.43,1.16-4.35,2.1-5.34,2.59-1.47.72-2.93,1.45-4.4,2.19l-.42.21-2.36,1.2c-12.132,7.5601-23.6238,16.1021-34.36,25.54,16.43-9.09,33.81-17.9,51.94-26.39-.57-.57-1.13-1.13-1.68-1.71l-.09-.08ZM129.8026,17.42c-1.31-.49-2.62-1-4-1.42l-2-.63c.13.45.25.92.39,1.46v.59l.05.2v1.65c.06.34.13.69.19,1,4.3104,25.9111-13.0069,50.4744-38.86,55.12l-2.95.48h0c3.1546,3.0061,6.4945,5.8116,10,8.4h0l1.74-1.22c21.314-15.0425,36.8403-36.9241,44-62.01-2.37-1.15-5.28-2.4-8.56-3.62Z" style="fill:#007dc3;"/></svg>