<?xml version="1.0" encoding="UTF-8"?>
<svg xmlns="http://www.w3.org/2000/svg"
     width="1651" height="2048"
     viewBox="0 0 1651 2048"
     role="img"
     aria-labelledby="title desc"
     shape-rendering="geometricPrecision">
  <title id="title">Logo vetorial</title>
  <desc id="desc">Logo convertida para SVG com fundo transparente.</desc>

  <polygon points="1650,0 1430,1 1304,226 1283,406 1055,811 758,810 980,418 980,2 749,3 628,225 610,407 286,981 340,1116 541,1117 450,1347 439,1339 278,1164 298,1435 1,1449 237,1615 70,1866 340,1778 452,2046 538,1753 838,1829 644,1605 883,1406 636,1420 906,1116 1260,1115 1650,424" fill="#000000"/>

  <g fill="#C4CED4">
    <polygon points="1443,454 1335,455 1100,867 537,867 548,843 770,455 661,454 377,953 690,955 462,1476 459,1478 357,1368 367,1508 213,1515 335,1601 249,1731 389,1685 447,1824 492,1672 647,1712 547,1595 671,1492 486,1504 485,1501 848,953 1164,953"/><polygon points="898,63 789,63 711,201 827,201"/><polygon points="1568,63 1465,63 1387,201 1493,201"/><polygon points="696,260 683,379 787,379 797,260"/><polygon points="1370,260 1357,379 1460,379 1469,260"/>
  </g>

  <circle cx="410.82" cy="1588.62" r="46.7" fill="#000000"/>
</svg>
