<?xml version="1.0" encoding="UTF-8"?>
<svg id="logosandtypes_com" data-name="logosandtypes com" xmlns="http://www.w3.org/2000/svg" viewBox="0 0 150 150">
  <defs>
    <style>
      .cls-1 {
        fill: #4e018f;
      }

      .cls-2 {
        fill: none;
      }
    </style>
  </defs>
  <g id="Layer_2" data-name="Layer 2">
    <path id="Layer_3" data-name="Layer 3" class="cls-2" d="M0,0H150V150H0V0Z"/>
  </g>
  <path class="cls-1" d="M148.82,26.63l-14.42,30.95h-57.83l-18.2,39.04h-16.33c.16-1.97,.54-3.91,1.13-5.79,1.52-4.53,4.37-8.5,8.19-11.38,.98,1.12,1.87,2.32,2.65,3.58,.15,.2,.39,.2,.44,0h0l26.34-56.46h68.03v.05Z"/>
  <path class="cls-1" d="M14.96,108.74c-1.63,3.23-3.98,6.05-6.87,8.24-4.13-4.81-6.56-10.84-6.92-17.17H17.42c-.21,3.11-1.04,6.15-2.45,8.93"/>
  <path class="cls-1" d="M28.16,99.81v27.03c-6.61-.39-12.89-3.06-17.76-7.55,3.14-2.44,5.68-5.56,7.46-9.12,1.64-3.22,2.6-6.74,2.8-10.35h7.5Z"/>
  <path class="cls-1" d="M16.24,90.83c.63,1.87,1.01,3.82,1.13,5.79H1.18c.37-6.31,2.8-12.32,6.92-17.12,3.83,2.84,6.67,6.8,8.14,11.33"/>
  <path class="cls-1" d="M28.16,69.64v26.98h-7.55c-.15-2.32-.6-4.61-1.32-6.82-1.65-5.01-4.76-9.42-8.93-12.65,2.99-2.77,6.53-4.86,10.4-6.13,2.4-.77,4.89-1.23,7.41-1.37"/>
  <path class="cls-1" d="M38.85,96.62h-7.5v-26.98c6.63,.35,12.93,3.01,17.8,7.5-4.21,3.21-7.34,7.62-8.98,12.65-.72,2.21-1.17,4.5-1.32,6.82"/>
  <path class="cls-1" d="M49.15,119.33c-4.9,4.49-11.21,7.15-17.85,7.5v-27.03h7.5c.25,3.6,1.2,7.12,2.8,10.35,1.81,3.58,4.39,6.71,7.55,9.17"/>
  <path class="cls-1" d="M58.37,99.81c-.35,6.34-2.8,12.38-6.97,17.17-5.47-4.11-8.88-10.39-9.37-17.22h16.33v.05Z"/>
</svg>