<svg width="512" height="512" viewBox="0 0 512 512" fill="none" xmlns="http://www.w3.org/2000/svg">
  <title>Escudo genérico de futebol</title>
  <path
    d="M256 48
       C214 92 156 118 92 122
       C84 258 128 374 256 464
       C384 374 428 258 420 122
       C356 118 298 92 256 48Z"
    fill="#9CA3AF"
  />
  <path
    d="M256 76
       C218 111 166 135 112 140
       C108 255 147 356 256 434
       C365 356 404 255 400 140
       C346 135 294 111 256 76Z"
    fill="#D1D5DB"
  />
  <path
    d="M256 106
       C224 133 180 153 136 158
       C134 251 168 334 256 398
       C344 334 378 251 376 158
       C332 153 288 133 256 106Z"
    fill="#9CA3AF"
  />
</svg>
